# Blender 4.1.1
# www.blender.org
o plate_01_collision.004
v 0.028772 0.007401 -0.059782
v 0.043067 0.007401 -0.059782
v 0.056685 0.007401 -0.034567
v 0.072123 0.013798 -0.034567
v 0.053115 0.013798 -0.059782
v 0.043440 0.007401 -0.059476
v 0.095758 0.015667 -0.059782
v 0.064906 0.007401 -0.034567
v 0.107331 0.019188 -0.034567
v 0.095883 0.019188 -0.059782
v 0.052252 0.007401 -0.052244
v 0.096855 0.017427 -0.059782
v 0.104562 0.015667 -0.043314
v 0.062891 0.007401 -0.038331
v 0.061437 0.007401 -0.041046
v 0.107214 0.015667 -0.034567
v 0.108225 0.017427 -0.034567
v 0.104663 0.019188 -0.043356
v 0.105457 0.017427 -0.043684
vn -0.0000 -1.0000 -0.0000
vn -0.3525 0.8506 0.3902
vn -0.2496 0.9499 0.1882
vn -0.0000 -0.0000 -1.0000
vn 0.1523 -0.9707 -0.1858
vn -0.0000 -0.0000 1.0000
vn -0.1503 0.9821 0.1133
vn -0.1248 0.9906 0.0567
vn 0.1523 -0.9708 -0.1856
vn 0.7729 -0.4816 -0.4132
vn 0.1824 -0.9784 -0.0975
vn 0.1824 -0.9784 -0.0976
vn 0.1823 -0.9784 -0.0977
vn 0.1626 -0.9776 -0.1334
vn 0.1914 -0.9798 -0.0580
vn 0.8606 0.4371 -0.2612
vn -0.0000 1.0000 -0.0000
vn 0.7929 0.4378 -0.4239
vn 0.7935 0.4365 -0.4240
vn 0.7736 -0.4802 -0.4134
vn 0.8393 -0.4802 -0.2549
vn 0.8386 -0.4818 -0.2542
vn 0.8608 0.4366 -0.2614
s 0
f 1//1 2//1 6//1
f 1//1 6//1 11//1
f 1//1 11//1 15//1
f 1//1 15//1 14//1
f 1//1 14//1 8//1
f 1//1 8//1 3//1
f 1//2 3//2 4//2
f 1//3 4//3 5//3
f 1//4 5//4 10//4
f 1//4 10//4 12//4
f 1//4 12//4 7//4
f 1//4 7//4 2//4
f 2//5 7//5 6//5
f 3//6 8//6 16//6
f 3//6 16//6 17//6
f 3//6 17//6 9//6
f 3//6 9//6 4//6
f 4//7 9//7 5//7
f 5//8 9//8 10//8
f 6//9 7//9 11//9
f 7//10 12//10 13//10
f 7//11 13//11 8//11
f 7//12 8//12 14//12
f 7//13 14//13 15//13
f 7//14 15//14 11//14
f 8//15 13//15 16//15
f 9//16 17//16 18//16
f 9//17 18//17 10//17
f 10//18 18//18 12//18
f 12//19 18//19 19//19
f 12//20 19//20 13//20
f 13//21 19//21 17//21
f 13//22 17//22 16//22
f 17//23 19//23 18//23
