# Blender 4.1.1
# www.blender.org
o plate_01_collision.008
v -0.000003 0.007400 -0.073887
v 0.000011 0.007400 -0.073880
v 0.000019 0.000001 -0.055210
v -0.000003 -0.000000 -0.055217
v -0.011346 0.007400 -0.072766
v 0.000019 0.007400 -0.071537
v 0.000019 0.001799 -0.000026
v -0.055214 0.000001 -0.000026
v -0.021134 -0.000000 -0.051009
v -0.010775 0.000009 -0.054154
v -0.051011 -0.000000 -0.021132
v -0.014413 0.007400 -0.072455
v 0.000019 0.007400 -0.066598
v 0.000019 0.003231 -0.000026
v -0.073885 0.007400 -0.000026
v -0.072460 0.007400 -0.014415
v -0.054150 0.000009 -0.010778
v -0.039038 -0.000000 -0.039042
v -0.030683 0.000009 -0.045904
v -0.041042 0.007400 -0.061428
v -0.028281 0.007400 -0.068261
v -0.045903 0.000009 -0.030676
v -0.071570 0.007400 -0.017372
v -0.068257 0.007400 -0.028276
v -0.061428 0.007400 -0.041045
v -0.066600 0.007400 -0.000026
v -0.059475 0.007400 -0.043431
v -0.052241 0.007400 -0.052245
vn 0.1810 -0.9143 -0.3624
vn 0.1518 -0.9189 -0.3642
vn -0.0364 -0.9290 -0.3682
vn -0.0000 1.0000 -0.0000
vn -0.0001 1.0000 -0.0000
vn 1.0000 -0.0068 -0.0031
vn 1.0000 -0.0000 -0.0000
vn 0.0325 -0.9989 0.0326
vn 0.0249 -0.9994 0.0249
vn -0.0016 -1.0000 -0.0080
vn -0.0370 -0.9291 -0.3679
vn -0.0000 -1.0000 -0.0000
vn -0.0373 -0.9291 -0.3678
vn -0.0000 -0.0000 1.0000
vn -0.3682 -0.9290 -0.0365
vn -0.3677 -0.9292 -0.0371
vn -0.0077 -1.0000 -0.0015
vn -0.1067 -0.9291 -0.3540
vn -0.0045 -1.0000 -0.0068
vn -0.1749 -0.9292 -0.3256
vn -0.1746 -0.9291 -0.3261
vn -0.1071 -0.9290 -0.3541
vn -0.0068 -1.0000 -0.0046
vn -0.3539 -0.9292 -0.1065
vn -0.3541 -0.9290 -0.1076
vn -0.3263 -0.9290 -0.1745
vn -0.3255 -0.9292 -0.1750
vn 0.0623 0.9961 0.0624
vn -0.2862 -0.9292 -0.2339
vn -0.2861 -0.9291 -0.2342
vn -0.2860 -0.9290 -0.2347
vn -0.2346 -0.9290 -0.2861
vn -0.2341 -0.9291 -0.2862
s 0
f 1//1 2//1 3//1
f 1//2 3//2 4//2
f 1//3 4//3 5//3
f 1//4 5//4 12//4
f 1//4 12//4 21//4
f 1//4 21//4 20//4
f 1//4 20//4 28//4
f 1//4 28//4 27//4
f 1//4 27//4 25//4
f 1//4 25//4 24//4
f 1//4 24//4 23//4
f 1//4 23//4 16//4
f 1//4 16//4 15//4
f 1//4 15//4 26//4
f 1//4 26//4 13//4
f 1//4 13//4 6//4
f 1//5 6//5 2//5
f 2//6 6//6 3//6
f 3//7 6//7 13//7
f 3//7 13//7 14//7
f 3//7 14//7 7//7
f 3//8 7//8 8//8
f 3//9 8//9 4//9
f 4//10 9//10 10//10
f 4//11 10//11 5//11
f 4//12 8//12 11//12
f 4//12 11//12 18//12
f 4//12 18//12 9//12
f 5//13 10//13 12//13
f 7//14 14//14 26//14
f 7//14 26//14 15//14
f 7//14 15//14 8//14
f 8//15 15//15 16//15
f 8//16 16//16 17//16
f 8//17 17//17 11//17
f 9//18 12//18 10//18
f 9//19 18//19 19//19
f 9//20 19//20 20//20
f 9//21 20//21 21//21
f 9//22 21//22 12//22
f 11//23 22//23 18//23
f 11//24 17//24 23//24
f 11//25 23//25 24//25
f 11//26 24//26 25//26
f 11//27 25//27 22//27
f 13//28 26//28 14//28
f 16//24 23//24 17//24
f 18//29 22//29 25//29
f 18//30 25//30 27//30
f 18//31 27//31 28//31
f 18//32 28//32 20//32
f 18//33 20//33 19//33
