# Blender 4.1.1
# www.blender.org
o plate_01_collision.007
v -0.059782 0.007401 -0.028772
v -0.059782 0.007401 -0.043067
v -0.034567 0.007401 -0.056685
v -0.034567 0.013798 -0.072123
v -0.059782 0.013798 -0.053115
v -0.059476 0.007401 -0.043440
v -0.059782 0.015667 -0.095758
v -0.034567 0.007401 -0.064906
v -0.034567 0.019188 -0.107331
v -0.059782 0.019188 -0.095883
v -0.052244 0.007401 -0.052252
v -0.059782 0.017427 -0.096855
v -0.043314 0.015667 -0.104562
v -0.038331 0.007401 -0.062891
v -0.041046 0.007401 -0.061437
v -0.034567 0.015667 -0.107214
v -0.034567 0.017427 -0.108225
v -0.043356 0.019188 -0.104663
v -0.043684 0.017427 -0.105457
vn -0.0000 -1.0000 -0.0000
vn 0.3902 0.8506 0.3525
vn 0.1882 0.9499 0.2496
vn -1.0000 -0.0000 -0.0000
vn -0.1858 -0.9707 -0.1523
vn 1.0000 -0.0000 -0.0000
vn 0.1133 0.9821 0.1503
vn 0.0567 0.9906 0.1248
vn -0.1856 -0.9708 -0.1523
vn -0.4132 -0.4816 -0.7729
vn -0.0975 -0.9784 -0.1824
vn -0.0976 -0.9784 -0.1824
vn -0.0977 -0.9784 -0.1823
vn -0.1334 -0.9776 -0.1626
vn -0.0580 -0.9798 -0.1914
vn -0.2612 0.4371 -0.8606
vn -0.0000 1.0000 -0.0000
vn -0.4239 0.4378 -0.7929
vn -0.4240 0.4365 -0.7935
vn -0.4134 -0.4802 -0.7736
vn -0.2549 -0.4802 -0.8393
vn -0.2542 -0.4818 -0.8386
vn -0.2614 0.4366 -0.8608
s 0
f 1//1 2//1 6//1
f 1//1 6//1 11//1
f 1//1 11//1 15//1
f 1//1 15//1 14//1
f 1//1 14//1 8//1
f 1//1 8//1 3//1
f 1//2 3//2 4//2
f 1//3 4//3 5//3
f 1//4 5//4 10//4
f 1//4 10//4 12//4
f 1//4 12//4 7//4
f 1//4 7//4 2//4
f 2//5 7//5 6//5
f 3//6 8//6 16//6
f 3//6 16//6 17//6
f 3//6 17//6 9//6
f 3//6 9//6 4//6
f 4//7 9//7 5//7
f 5//8 9//8 10//8
f 6//9 7//9 11//9
f 7//10 12//10 13//10
f 7//11 13//11 8//11
f 7//12 8//12 14//12
f 7//13 14//13 15//13
f 7//14 15//14 11//14
f 8//15 13//15 16//15
f 9//16 17//16 18//16
f 9//17 18//17 10//17
f 10//18 18//18 12//18
f 12//19 18//19 19//19
f 12//20 19//20 13//20
f 13//21 19//21 17//21
f 13//22 17//22 16//22
f 17//23 19//23 18//23
