# Blender 4.1.1
# www.blender.org
o wine_glass_collision.014
v -0.044454 0.140667 -0.013853
v -0.043857 0.140666 -0.016796
v -0.038787 0.140665 -0.013853
v -0.043971 0.151868 -0.013855
v -0.033507 0.140665 -0.023231
v -0.011190 0.197036 -0.023231
v -0.021470 0.197048 -0.013853
v -0.043325 0.151000 -0.017015
v -0.042895 0.140666 -0.019107
v -0.040157 0.140666 -0.023231
v -0.011406 0.199253 -0.023231
v -0.021457 0.198844 -0.013853
v -0.042491 0.150937 -0.018957
v -0.043082 0.153263 -0.016663
v -0.042394 0.153396 -0.018434
v -0.022086 0.199977 -0.013855
v -0.040149 0.166024 -0.015968
v -0.039557 0.152053 -0.023230
v -0.013334 0.200541 -0.023232
v -0.023510 0.200769 -0.013852
v -0.038720 0.173616 -0.013854
v -0.038079 0.173999 -0.016063
v -0.033950 0.186147 -0.013854
v -0.027818 0.199901 -0.013853
v -0.033291 0.173982 -0.023231
v -0.016763 0.201064 -0.023230
v -0.025562 0.201000 -0.013859
v -0.021011 0.200957 -0.021008
v -0.026963 0.200536 -0.013855
v -0.023329 0.199535 -0.020828
v -0.018998 0.200656 -0.023231
v -0.022103 0.200281 -0.022004
v -0.020726 0.199867 -0.023228
v -0.024336 0.193739 -0.023231
vn -0.0000 -0.0000 1.0000
vn -0.0016 0.0007 1.0000
vn 0.0019 -0.0007 1.0000
vn -0.0035 0.0012 1.0000
vn 0.0032 -0.0009 1.0000
vn 0.0035 -0.0010 1.0000
vn -0.0005 0.0001 1.0000
vn 0.0002 -0.0000 1.0000
vn -0.0015 0.0003 1.0000
vn -0.0011 -1.0000 -0.0006
vn -0.0001 -1.0000 -0.0001
vn -0.0000 -1.0000 -0.0000
vn -0.0003 -1.0000 0.0004
vn -0.9792 0.0422 -0.1986
vn 0.8237 -0.3261 0.4638
vn 0.6598 -0.2027 0.7236
vn -0.9761 0.0458 -0.2123
vn -0.0000 0.0001 -1.0000
vn -0.0002 -0.0000 -1.0000
vn -0.0001 -0.0000 -1.0000
vn 0.0012 -0.0002 -1.0000
vn -0.0018 0.0004 -1.0000
vn 0.0006 -0.0001 -1.0000
vn -0.0005 0.0002 -1.0000
vn 0.0003 -0.0001 -1.0000
vn -0.0000 -0.0000 -1.0000
vn 0.6793 0.0663 0.7309
vn 0.6739 -0.0048 0.7388
vn -0.9175 0.0419 -0.3954
vn -0.9225 0.0394 -0.3840
vn -0.9619 0.1397 -0.2351
vn -0.9249 0.1532 -0.3480
vn -0.9108 0.1198 -0.3951
vn -0.8287 0.0408 -0.5582
vn -0.8322 0.0439 -0.5527
vn 0.6310 0.3514 0.6916
vn -0.9131 0.2283 -0.3377
vn -0.8330 0.1462 -0.5336
vn 0.4829 0.7229 0.4942
vn -0.9548 0.2305 -0.1877
vn -0.9569 0.2296 -0.1780
vn -0.9423 0.2418 -0.2316
vn -0.9050 0.2307 -0.3574
vn 0.4342 0.7791 0.4522
vn -0.8075 0.2316 -0.5425
vn -0.8062 0.3595 -0.4700
vn -0.8088 0.2311 -0.5408
vn 0.1495 0.9790 0.1384
vn 0.1111 0.9876 0.1111
vn -0.9147 0.3482 -0.2052
vn -0.7783 0.3527 -0.5195
vn -0.0428 0.9985 -0.0334
vn -0.7772 0.3515 -0.5220
vn -0.7778 0.3525 -0.5204
vn -0.1724 0.9433 -0.2838
vn -0.2456 0.9059 -0.3450
vn -0.3519 0.9075 -0.2296
vn -0.3081 0.9273 -0.2128
vn -0.5576 0.7499 -0.3560
vn -0.7473 0.4334 -0.5037
vn -0.3289 0.7185 -0.6128
vn -0.5678 0.3349 -0.7520
vn -0.7507 0.3601 -0.5538
s 0
f 1//1 3//1 7//1
f 1//1 7//1 12//1
f 1//2 12//2 16//2
f 1//3 16//3 20//3
f 1//4 20//4 27//4
f 1//5 27//5 29//5
f 1//6 29//6 24//6
f 1//7 24//7 23//7
f 1//8 23//8 21//8
f 1//9 21//9 4//9
f 2//10 9//10 10//10
f 2//11 10//11 5//11
f 2//12 5//12 3//12
f 2//13 3//13 1//13
f 1//14 4//14 2//14
f 3//15 5//15 6//15
f 3//16 6//16 7//16
f 4//17 8//17 2//17
f 5//18 10//18 18//18
f 5//19 18//19 25//19
f 5//20 25//20 34//20
f 5//21 34//21 33//21
f 5//22 33//22 31//22
f 5//23 31//23 26//23
f 5//24 26//24 19//24
f 5//25 19//25 11//25
f 5//26 11//26 6//26
f 6//27 11//27 12//27
f 6//28 12//28 7//28
f 8//29 13//29 9//29
f 8//30 9//30 2//30
f 4//31 14//31 8//31
f 8//32 14//32 15//32
f 8//33 15//33 13//33
f 9//34 13//34 18//34
f 9//35 18//35 10//35
f 11//36 16//36 12//36
f 14//37 17//37 15//37
f 15//38 18//38 13//38
f 11//39 19//39 16//39
f 14//40 4//40 21//40
f 14//41 21//41 17//41
f 17//42 21//42 22//42
f 17//43 22//43 15//43
f 19//44 20//44 16//44
f 15//45 22//45 18//45
f 22//46 23//46 24//46
f 18//47 22//47 25//47
f 20//48 19//48 26//48
f 20//49 26//49 27//49
f 22//50 21//50 23//50
f 22//51 24//51 30//51
f 26//52 28//52 27//52
f 22//53 30//53 34//53
f 22//54 34//54 25//54
f 26//55 31//55 28//55
f 28//56 31//56 32//56
f 28//57 32//57 27//57
f 27//58 32//58 29//58
f 29//59 32//59 24//59
f 24//60 32//60 30//60
f 32//61 31//61 33//61
f 32//62 33//62 34//62
f 32//63 34//63 30//63
