# Blender 4.1.1
# www.blender.org
o wine_glass_collision.030
v -0.000006 0.104148 -0.022340
v 0.000005 0.107462 -0.027346
v -0.000008 0.112020 -0.022340
v -0.000008 0.110480 -0.031574
v 0.001164 0.110478 -0.031585
v 0.006980 0.105055 -0.022340
v 0.010471 0.110344 -0.029587
v 0.020171 0.117015 -0.022340
v 0.020171 0.125415 -0.030560
v -0.000008 0.125415 -0.037128
v 0.010762 0.109051 -0.027606
v 0.009958 0.105629 -0.022339
v 0.020171 0.109454 -0.022340
v 0.020167 0.125417 -0.038295
v -0.000008 0.125415 -0.043709
v 0.012773 0.110039 -0.028323
v 0.020171 0.119932 -0.034657
v 0.000819 0.125415 -0.043703
v 0.001092 0.119808 -0.040510
v -0.000008 0.118736 -0.039829
v 0.001126 0.118016 -0.039158
v 0.013559 0.111802 -0.030064
v 0.020171 0.110472 -0.024036
v 0.015961 0.120543 -0.037837
v 0.016986 0.125415 -0.040232
v 0.013937 0.117637 -0.036228
v 0.015431 0.117871 -0.035969
v 0.017420 0.119847 -0.036428
v 0.015757 0.125413 -0.040726
v 0.013802 0.119796 -0.037980
v 0.008817 0.118207 -0.037811
v 0.020171 0.118065 -0.033038
vn 0.0001 -0.0009 1.0000
vn -0.0001 0.0004 1.0000
vn -0.0000 -0.0001 1.0000
vn -0.0000 -0.0000 1.0000
vn -1.0000 -0.0002 -0.0001
vn -1.0000 -0.0001 -0.0000
vn -1.0000 0.0001 0.0001
vn -1.0000 0.0004 0.0004
vn -0.9928 -0.0990 -0.0678
vn -0.0067 -0.8139 -0.5809
vn 0.1092 -0.8289 -0.5486
vn 0.1075 -0.8276 -0.5509
vn 0.1085 -0.8252 -0.5543
vn -0.1706 0.6892 0.7042
vn -0.2135 0.7241 0.6559
vn 0.1076 -0.8238 -0.5566
vn 0.1619 -0.8386 -0.5201
vn 1.0000 -0.0000 0.0002
vn 1.0000 -0.0000 -0.0000
vn 1.0000 -0.0001 -0.0000
vn 1.0000 0.0009 0.0002
vn 1.0000 -0.0005 -0.0005
vn -0.0005 1.0000 0.0002
vn -0.0021 1.0000 0.0007
vn 0.0002 1.0000 -0.0003
vn -0.0000 1.0000 -0.0000
vn 0.2286 -0.8319 -0.5056
vn 0.0063 -0.4945 -0.8691
vn -0.0461 -0.5017 -0.8638
vn -0.0078 -0.7070 -0.7071
vn -0.0328 -0.7085 -0.7050
vn 0.1986 -0.8072 -0.5558
vn 0.2495 -0.7347 -0.6309
vn 0.3290 -0.8096 -0.4861
vn 0.4815 -0.4843 -0.7305
vn 0.4597 -0.4678 -0.7549
vn 0.1391 -0.7015 -0.6989
vn 0.1397 -0.7021 -0.6982
vn 0.2267 -0.7124 -0.6641
vn 0.2353 -0.7141 -0.6594
vn 0.3104 -0.8291 -0.4650
vn 0.4886 -0.4675 -0.7367
vn 0.3301 -0.4714 -0.8178
vn 0.1583 -0.5815 -0.7980
vn 0.1532 -0.5933 -0.7903
vn 0.0906 -0.5987 -0.7958
vn 0.1409 -0.6945 -0.7055
vn 0.3737 -0.7309 -0.5711
vn 0.4518 -0.5844 -0.6740
vn 0.4392 -0.5977 -0.6707
vn 0.4090 -0.5759 -0.7079
vn 0.2255 -0.4902 -0.8420
vn 0.1713 -0.4802 -0.8602
vn 0.1707 -0.4812 -0.8598
vn 0.2577 -0.5991 -0.7581
vn 0.1698 -0.6145 -0.7704
vn 0.2268 -0.5878 -0.7766
vn 0.3982 -0.7012 -0.5914
vn 0.3960 -0.7001 -0.5941
s 0
f 1//1 6//1 12//1
f 1//2 12//2 13//2
f 1//3 13//3 8//3
f 1//4 8//4 3//4
f 1//5 3//5 10//5
f 1//6 10//6 15//6
f 1//7 15//7 20//7
f 1//8 20//8 4//8
f 1//9 4//9 2//9
f 2//10 4//10 5//10
f 1//11 2//11 11//11
f 1//12 11//12 6//12
f 2//13 7//13 11//13
f 3//14 8//14 9//14
f 3//15 9//15 10//15
f 5//16 7//16 2//16
f 6//17 11//17 12//17
f 8//18 13//18 23//18
f 8//19 23//19 32//19
f 8//20 32//20 17//20
f 8//21 17//21 14//21
f 8//22 14//22 9//22
f 9//23 14//23 25//23
f 9//24 25//24 29//24
f 9//25 29//25 18//25
f 9//26 18//26 15//26
f 9//26 15//26 10//26
f 12//27 11//27 16//27
f 15//28 18//28 19//28
f 15//29 19//29 20//29
f 5//30 4//30 20//30
f 5//31 20//31 21//31
f 11//32 7//32 16//32
f 16//33 7//33 22//33
f 13//34 16//34 23//34
f 17//35 24//35 14//35
f 14//36 24//36 25//36
f 5//37 21//37 26//37
f 5//38 26//38 7//38
f 7//39 26//39 27//39
f 7//40 27//40 22//40
f 16//41 13//41 12//41
f 24//42 17//42 28//42
f 24//43 29//43 25//43
f 19//44 30//44 31//44
f 19//45 31//45 21//45
f 19//46 21//46 20//46
f 21//47 31//47 26//47
f 16//48 22//48 23//48
f 28//49 17//49 32//49
f 28//50 32//50 27//50
f 28//51 27//51 24//51
f 24//52 30//52 29//52
f 18//53 29//53 30//53
f 18//54 30//54 19//54
f 30//55 24//55 26//55
f 26//56 31//56 30//56
f 26//57 24//57 27//57
f 22//58 32//58 23//58
f 22//59 27//59 32//59
