# Blender 4.1.1
# www.blender.org
o wine_glass_collision.021
v -0.037169 0.123748 0.020180
v -0.034554 0.119811 0.020181
v -0.031249 0.123748 0.029036
v -0.029417 0.123748 0.020180
v -0.029846 0.120000 0.027445
v -0.000008 0.123748 0.036194
v -0.000008 0.110966 0.020180
v -0.033008 0.118059 0.020181
v -0.029508 0.118066 0.025470
v -0.027825 0.118130 0.027974
v -0.030233 0.123747 0.030393
v -0.000008 0.123748 0.042733
v -0.000010 0.102782 0.020185
v -0.027469 0.120012 0.029840
v -0.024271 0.111855 0.022336
v -0.022230 0.111758 0.024229
v -0.001040 0.123748 0.042730
v -0.001048 0.119824 0.040528
v -0.001000 0.102838 0.020180
v -0.015909 0.118057 0.035868
v -0.017383 0.119810 0.036424
v -0.016503 0.121630 0.038222
v -0.017225 0.123748 0.039115
v -0.025553 0.111720 0.020180
v -0.023485 0.110106 0.020180
v -0.022060 0.110055 0.022135
v -0.000012 0.107339 0.027163
v -0.019713 0.108073 0.020180
v -0.013602 0.111986 0.030262
v -0.000008 0.119845 0.040538
v -0.008080 0.103797 0.020183
v -0.000008 0.110614 0.031750
v -0.014412 0.115583 0.033941
v -0.013890 0.117683 0.036279
v -0.014877 0.120161 0.037978
v -0.015553 0.123748 0.039845
v -0.001002 0.118062 0.039215
v -0.001088 0.110190 0.031203
v -0.010733 0.110127 0.029227
v -0.010733 0.110728 0.029951
v -0.011657 0.118185 0.037227
v -0.010078 0.104452 0.020180
v -0.012804 0.110027 0.028286
v -0.000008 0.118180 0.039324
v -0.001023 0.111493 0.032661
vn 0.0119 0.9999 -0.0080
vn -0.0003 1.0000 0.0003
vn -0.0006 1.0000 0.0006
vn -0.0000 1.0000 -0.0000
vn -0.0000 -0.0000 -1.0000
vn -0.0002 -0.0005 -1.0000
vn 0.0051 0.0088 -0.9999
vn -0.0006 -0.0010 -1.0000
vn 0.0028 0.0039 -1.0000
vn -0.0002 -0.0002 -1.0000
vn 0.0008 0.0008 -1.0000
vn -0.0007 -0.0006 -1.0000
vn -0.0021 -0.0017 -1.0000
vn -0.7286 -0.4837 0.4849
vn -0.7294 -0.4799 0.4875
vn 0.3216 0.7400 -0.5907
vn -0.6714 -0.5924 0.4453
vn -0.6759 -0.5812 0.4532
vn -0.6311 -0.5189 0.5766
vn 1.0000 -0.0000 -0.0000
vn 1.0000 0.0005 -0.0014
vn 1.0000 -0.0007 0.0007
vn 1.0000 -0.0004 0.0003
vn -0.6647 -0.5877 0.4614
vn -0.7005 -0.4846 0.5239
vn -0.5845 -0.6999 0.4104
vn -0.5742 -0.5189 0.6333
vn -0.0029 -0.4892 0.8722
vn 0.0017 -0.4901 0.8717
vn -0.5951 -0.6999 0.3949
vn -0.4485 -0.5898 0.6716
vn -0.4522 -0.5832 0.6748
vn -0.4849 -0.4848 0.7279
vn -0.4891 -0.4751 0.7315
vn -0.5681 -0.7281 0.3836
vn -0.5600 -0.7314 0.3892
vn -0.5379 -0.7113 0.4525
vn -0.4473 -0.7114 0.5421
vn -0.0496 -0.8362 0.5461
vn -0.5933 -0.7004 0.3968
vn -0.3975 -0.6986 0.5949
vn -0.3977 -0.6995 0.5938
vn -0.4909 -0.4719 0.7323
vn -0.4515 -0.8377 0.3073
vn -0.3780 -0.7331 0.5654
vn -0.3791 -0.7291 0.5698
vn -0.1710 -0.4801 0.8604
vn -0.1703 -0.4818 0.8596
vn 0.0252 -0.8137 0.5808
vn -0.3848 -0.7009 0.6006
vn -0.2652 -0.6874 0.6762
vn -0.2653 -0.6146 0.7429
vn -0.3811 -0.5546 0.7397
vn -0.3839 -0.5484 0.7429
vn -0.3149 -0.4843 0.8163
vn -0.3547 -0.4633 0.8121
vn -0.1624 -0.5703 0.8052
vn -0.1543 -0.5929 0.7904
vn -0.0167 -0.5977 0.8016
vn 0.0043 -0.5891 0.8080
vn -0.1081 -0.8256 0.5537
vn -0.1096 -0.8283 0.5495
vn -0.1122 -0.8293 0.5475
vn -0.2454 -0.7196 0.6496
vn -0.1973 -0.7072 0.6789
vn -0.1917 -0.6055 0.7724
vn -0.3118 -0.8283 0.4655
vn -0.3114 -0.8286 0.4652
vn -0.2551 -0.7361 0.6269
vn -0.1974 -0.8294 0.5226
vn -0.1166 -0.7645 0.6340
vn -0.1384 -0.7024 0.6982
vn -0.2451 -0.7463 0.6188
vn -0.2738 -0.8330 0.4808
vn -0.1392 -0.6993 0.7012
vn -0.0459 -0.7436 0.6670
vn -0.1312 -0.7361 0.6641
vn 0.0229 -0.7062 0.7076
vn -0.1401 -0.7004 0.6999
vn 0.0067 -0.7075 0.7067
s 0
f 1//1 3//1 11//1
f 1//2 11//2 23//2
f 1//3 23//3 36//3
f 1//4 36//4 17//4
f 1//4 17//4 12//4
f 1//4 12//4 6//4
f 1//4 6//4 4//4
f 1//5 4//5 7//5
f 1//6 7//6 13//6
f 1//7 13//7 19//7
f 1//8 19//8 31//8
f 1//9 31//9 42//9
f 1//5 42//5 28//5
f 1//10 28//10 25//10
f 1//11 25//11 24//11
f 1//12 24//12 8//12
f 1//13 8//13 2//13
f 2//14 5//14 1//14
f 1//15 5//15 3//15
f 4//16 6//16 7//16
f 2//17 8//17 9//17
f 2//18 9//18 5//18
f 5//19 10//19 11//19
f 6//20 12//20 30//20
f 6//20 30//20 44//20
f 6//20 44//20 32//20
f 6//21 32//21 27//21
f 6//22 27//22 13//22
f 6//23 13//23 7//23
f 9//24 10//24 5//24
f 3//25 5//25 11//25
f 10//26 9//26 15//26
f 10//27 14//27 11//27
f 12//28 17//28 18//28
f 12//29 18//29 30//29
f 8//30 24//30 9//30
f 10//31 20//31 21//31
f 10//32 21//32 14//32
f 14//33 21//33 22//33
f 14//34 22//34 23//34
f 15//35 24//35 25//35
f 15//36 25//36 26//36
f 15//37 26//37 10//37
f 10//38 26//38 16//38
f 19//39 13//39 27//39
f 24//40 15//40 9//40
f 16//41 29//41 10//41
f 10//42 29//42 20//42
f 14//43 23//43 11//43
f 26//44 25//44 28//44
f 26//45 43//45 16//45
f 16//46 43//46 29//46
f 17//47 36//47 35//47
f 17//48 35//48 18//48
f 27//49 32//49 38//49
f 20//50 29//50 33//50
f 20//51 33//51 34//51
f 20//52 34//52 35//52
f 20//53 35//53 21//53
f 21//54 35//54 22//54
f 22//55 35//55 36//55
f 22//56 36//56 23//56
f 18//57 35//57 41//57
f 18//58 41//58 37//58
f 18//59 37//59 44//59
f 18//60 44//60 30//60
f 27//61 38//61 39//61
f 27//62 39//62 19//62
f 19//63 39//63 31//63
f 33//64 29//64 40//64
f 33//65 40//65 34//65
f 34//66 41//66 35//66
f 26//67 28//67 43//67
f 28//68 42//68 43//68
f 29//69 43//69 40//69
f 39//70 43//70 31//70
f 40//71 39//71 45//71
f 34//72 37//72 41//72
f 43//73 39//73 40//73
f 43//74 42//74 31//74
f 37//75 34//75 45//75
f 38//76 32//76 45//76
f 38//77 45//77 39//77
f 45//78 32//78 37//78
f 45//79 34//79 40//79
f 37//80 32//80 44//80
