# Blender 4.1.1
# www.blender.org
o wine_glass_collision.041
v -0.009518 0.009315 0.002272
v -0.007945 0.009315 -0.005784
v -0.004482 0.085885 0.001899
v -0.004364 0.085886 -0.002107
v -0.005575 0.009315 0.008119
v -0.001873 0.085886 -0.004497
v -0.002098 0.085886 0.004372
v -0.001532 0.009315 -0.009759
v 0.002098 0.085886 -0.004372
v 0.001873 0.085886 0.004497
v 0.001532 0.009315 0.009759
v 0.005575 0.009315 -0.008119
v 0.007945 0.009315 0.005784
v 0.004482 0.085886 -0.001899
v 0.004364 0.085886 0.002107
v 0.009518 0.009315 -0.002272
vn -0.0000 -1.0000 -0.0000
vn -0.0000 -1.0000 0.0001
vn -0.9974 0.0655 -0.0292
vn -0.9800 0.0550 -0.1913
vn -0.0000 1.0000 -0.0001
vn -0.0000 1.0000 -0.0000
vn -0.0000 1.0000 0.0001
vn 0.0001 1.0000 0.0001
vn -0.8278 0.0572 0.5581
vn -0.6908 0.0669 -0.7199
vn -0.7185 0.0665 0.6923
vn -0.5260 0.0560 -0.8486
vn 0.0313 0.0687 -0.9971
vn 0.2244 0.0578 -0.9728
vn -0.2244 0.0578 0.9728
vn -0.0313 0.0687 0.9971
vn 0.5260 0.0560 0.8486
vn 0.7185 0.0665 -0.6923
vn 0.6908 0.0669 0.7199
vn 0.8278 0.0572 -0.5581
vn 0.9974 0.0655 0.0292
vn 0.9800 0.0550 0.1913
s 0
f 1//1 2//1 8//1
f 1//1 8//1 12//1
f 1//1 12//1 16//1
f 1//1 16//1 13//1
f 1//1 13//1 11//1
f 1//2 11//2 5//2
f 1//3 3//3 4//3
f 1//4 4//4 2//4
f 3//5 7//5 10//5
f 3//5 10//5 15//5
f 3//6 15//6 14//6
f 3//6 14//6 9//6
f 3//7 9//7 6//7
f 3//8 6//8 4//8
f 3//9 1//9 5//9
f 4//10 6//10 2//10
f 3//11 5//11 7//11
f 2//12 6//12 8//12
f 6//13 9//13 8//13
f 9//14 12//14 8//14
f 7//15 5//15 11//15
f 7//16 11//16 10//16
f 10//17 11//17 13//17
f 9//18 14//18 12//18
f 10//19 13//19 15//19
f 12//20 14//20 16//20
f 14//21 15//21 16//21
f 13//22 16//22 15//22
