# Blender 4.1.1
# www.blender.org
o wine_glass_collision.026
v -0.000008 0.140664 -0.046985
v -0.000008 0.138412 -0.046948
v 0.001115 0.140663 -0.046981
v 0.001002 0.137918 -0.046922
v -0.000008 0.140664 -0.041360
v 0.000014 0.129113 -0.045321
v -0.000008 0.125415 -0.037129
v 0.020171 0.125415 -0.030559
v 0.020171 0.140664 -0.035553
v 0.016617 0.140664 -0.043897
v 0.016739 0.138247 -0.043833
v 0.000015 0.125420 -0.043829
v 0.020171 0.125415 -0.038273
v 0.020145 0.140664 -0.042322
v 0.006092 0.128006 -0.044036
v 0.000009 0.125966 -0.044151
v 0.017545 0.125430 -0.040038
v 0.020171 0.137994 -0.042124
v 0.019163 0.138379 -0.042801
v 0.017921 0.129793 -0.041785
v 0.016080 0.127989 -0.042039
v 0.020169 0.128047 -0.039914
v 0.014970 0.125416 -0.040896
vn -0.9999 0.0002 0.0143
vn -0.9999 -0.0039 -0.0143
vn -0.9997 0.0037 0.0249
vn -1.0000 -0.0022 -0.0034
vn -1.0000 -0.0000 -0.0000
vn 0.0036 -0.0216 -0.9998
vn 0.0173 -0.0165 -0.9997
vn -0.0000 1.0000 -0.0000
vn -0.0000 1.0000 0.0002
vn 0.0008 1.0000 -0.0047
vn -0.0592 -0.1721 -0.9833
vn -0.2994 0.2551 0.9194
vn -0.2638 0.3002 0.9167
vn 0.1951 -0.0160 -0.9806
vn 0.1931 -0.0290 -0.9807
vn -0.0001 -1.0000 -0.0007
vn 0.0024 -1.0000 0.0093
vn -0.0004 -1.0000 -0.0075
vn -0.0000 -1.0000 -0.0000
vn 1.0000 0.0008 -0.0000
vn 1.0000 -0.0002 -0.0003
vn 0.9999 0.0107 0.0116
vn 1.0000 -0.0013 -0.0040
vn 0.1931 -0.1811 -0.9643
vn 0.1689 -0.1946 -0.9662
vn 0.4077 -0.0035 -0.9131
vn 0.3904 0.0255 -0.9203
vn 0.3078 -0.1831 -0.9336
vn 0.3939 -0.1640 -0.9044
vn 0.1925 -0.1819 -0.9643
vn 0.1335 -0.3456 -0.9288
vn 0.4936 -0.4600 -0.7381
vn 0.5418 -0.0567 -0.8386
vn 0.4667 -0.3631 -0.8064
vn 0.2785 -0.4874 -0.8276
vn 0.5029 -0.1730 -0.8468
vn 0.1733 -0.4610 -0.8703
vn 0.1720 -0.4638 -0.8691
vn 0.4079 -0.3695 -0.8349
vn 0.5414 -0.1824 -0.8208
vn 0.1665 -0.4997 -0.8500
s 0
f 1//1 2//1 6//1
f 1//2 6//2 16//2
f 1//3 16//3 12//3
f 1//4 12//4 7//4
f 1//5 7//5 5//5
f 1//6 3//6 4//6
f 1//7 4//7 2//7
f 1//8 5//8 9//8
f 1//8 9//8 14//8
f 1//9 14//9 10//9
f 1//10 10//10 3//10
f 2//11 4//11 6//11
f 5//12 7//12 8//12
f 5//13 8//13 9//13
f 3//14 10//14 11//14
f 3//15 11//15 4//15
f 7//16 12//16 23//16
f 7//17 23//17 17//17
f 7//18 17//18 13//18
f 7//19 13//19 8//19
f 8//20 13//20 22//20
f 8//21 22//21 18//21
f 8//22 18//22 14//22
f 8//23 14//23 9//23
f 11//24 21//24 4//24
f 4//25 15//25 6//25
f 10//26 14//26 11//26
f 11//27 14//27 19//27
f 11//28 20//28 21//28
f 11//29 19//29 20//29
f 4//30 21//30 15//30
f 6//31 15//31 16//31
f 17//32 22//32 13//32
f 18//33 19//33 14//33
f 21//34 20//34 17//34
f 21//35 17//35 23//35
f 19//36 18//36 20//36
f 15//37 21//37 23//37
f 15//38 23//38 16//38
f 17//39 20//39 22//39
f 20//40 18//40 22//40
f 16//41 23//41 12//41
