# Blender 4.1.1
# www.blender.org
o wine_glass_collision.040
v 0.043737 0.140664 0.017060
v 0.042873 0.140664 0.019137
v 0.042865 0.139047 0.019154
v 0.043676 0.137965 0.017058
v 0.037609 0.140664 0.017060
v 0.042550 0.137541 0.019390
v 0.031740 0.124067 0.017060
v 0.024569 0.140664 0.032614
v 0.039966 0.127977 0.020064
v 0.042022 0.131096 0.018016
v 0.034149 0.138138 0.032152
v 0.024569 0.124067 0.026669
v 0.039389 0.124068 0.017060
v 0.024570 0.140664 0.039255
v 0.032212 0.138253 0.034121
v 0.031990 0.128123 0.032004
v 0.024569 0.124067 0.034444
v 0.040313 0.126562 0.018218
v 0.041781 0.128462 0.017059
v 0.034156 0.140664 0.032198
v 0.032396 0.140664 0.034018
v 0.024571 0.138084 0.039193
v 0.026106 0.127997 0.035927
v 0.029218 0.124069 0.031366
v 0.030696 0.124067 0.030142
v 0.032114 0.126091 0.030051
v 0.024570 0.128904 0.037156
v 0.024569 0.126769 0.036212
vn 0.9233 -0.0000 0.3842
vn 0.9287 -0.0211 0.3702
vn -0.0028 0.0005 -1.0000
vn -0.0007 0.0002 -1.0000
vn -0.0000 -0.0000 -1.0000
vn -0.0000 1.0000 -0.0000
vn 0.9022 -0.1241 0.4130
vn -0.7397 0.2615 -0.6201
vn 0.8302 -0.0875 0.5506
vn -0.7837 0.2094 -0.5848
vn 0.0001 -1.0000 -0.0000
vn -0.0016 -1.0000 -0.0001
vn 0.0007 -1.0000 0.0003
vn -0.0000 -1.0000 -0.0000
vn -1.0000 -0.0000 -0.0000
vn -1.0000 -0.0000 -0.0001
vn -1.0000 -0.0000 0.0001
vn -1.0000 0.0001 0.0002
vn -1.0000 -0.0005 -0.0000
vn 0.8318 0.0023 0.5551
vn 0.8173 -0.1823 0.5466
vn 0.8192 -0.1831 0.5435
vn 0.9000 -0.1602 0.4054
vn 0.9415 -0.1877 0.2800
vn 0.8163 -0.1841 0.5476
vn 0.8210 -0.3679 0.4366
vn 0.8463 -0.2485 0.4712
vn 0.8309 -0.0125 0.5563
vn 0.7187 -0.0147 0.6952
vn 0.7120 -0.0243 0.7018
vn 0.6989 -0.1610 0.6969
vn 0.5001 -0.4576 0.7352
vn 0.5565 -0.4865 0.6735
vn 0.7042 -0.4691 0.5330
vn 0.7451 -0.4379 0.5031
vn 0.8344 -0.4542 0.3122
vn 0.7268 -0.4871 0.4843
vn 0.7250 -0.4923 0.4817
vn 0.7376 -0.4617 0.4927
vn 0.5532 -0.0197 0.8328
vn 0.5561 -0.0068 0.8311
vn 0.5465 -0.1828 0.8173
vn 0.4420 -0.3629 0.8203
vn 0.5486 -0.1779 0.8170
vn 0.5011 -0.4566 0.7351
vn 0.4849 -0.4787 0.7319
vn 0.5480 -0.1813 0.8166
s 0
f 1//1 2//1 3//1
f 1//2 3//2 4//2
f 1//3 4//3 19//3
f 1//4 19//4 13//4
f 1//5 13//5 7//5
f 1//5 7//5 5//5
f 1//6 5//6 8//6
f 1//6 8//6 14//6
f 1//6 14//6 21//6
f 1//6 21//6 20//6
f 1//6 20//6 2//6
f 3//7 6//7 4//7
f 5//8 7//8 8//8
f 6//9 3//9 11//9
f 7//10 12//10 8//10
f 7//11 13//11 25//11
f 7//12 25//12 24//12
f 7//13 24//13 17//13
f 7//14 17//14 12//14
f 8//15 12//15 17//15
f 8//16 17//16 28//16
f 8//17 28//17 27//17
f 8//18 27//18 22//18
f 8//19 22//19 14//19
f 2//20 20//20 3//20
f 6//21 11//21 9//21
f 6//22 9//22 10//22
f 10//23 4//23 6//23
f 4//24 10//24 19//24
f 11//25 16//25 9//25
f 9//26 18//26 19//26
f 9//27 19//27 10//27
f 3//28 20//28 11//28
f 11//29 20//29 21//29
f 11//30 21//30 15//30
f 15//31 16//31 11//31
f 16//32 23//32 24//32
f 16//33 24//33 25//33
f 16//34 25//34 26//34
f 16//35 26//35 9//35
f 18//36 13//36 19//36
f 18//37 26//37 25//37
f 18//38 25//38 13//38
f 9//39 26//39 18//39
f 15//40 14//40 22//40
f 15//41 21//41 14//41
f 15//42 22//42 16//42
f 23//43 27//43 28//43
f 23//44 16//44 27//44
f 23//45 28//45 24//45
f 17//46 24//46 28//46
f 16//47 22//47 27//47
