# Blender 4.1.1
# www.blender.org
o wine_glass_collision.003
v 0.021418 0.198754 -0.013857
v 0.025662 0.198241 -0.000009
v 0.021466 0.197046 -0.013857
v 0.041360 0.140665 -0.000009
v 0.026225 0.199667 -0.000009
v 0.038788 0.140665 -0.013857
v 0.046989 0.140666 -0.000009
v 0.022336 0.200305 -0.013859
v 0.044451 0.140666 -0.013857
v 0.046993 0.140666 -0.001063
v 0.027225 0.200597 -0.000009
v 0.029119 0.201138 -0.000014
v 0.024936 0.201011 -0.013855
v 0.046559 0.150950 -0.001037
v 0.026995 0.201105 -0.010995
v 0.030576 0.200573 -0.000009
v 0.026875 0.200581 -0.013855
v 0.043944 0.152074 -0.013857
v 0.046560 0.150963 -0.000009
v 0.030574 0.200551 -0.001599
v 0.032122 0.198081 -0.000016
v 0.028345 0.200460 -0.012234
v 0.046298 0.152548 -0.001440
v 0.046024 0.154707 -0.000021
v 0.030057 0.200106 -0.006437
v 0.029710 0.198442 -0.011460
v 0.027922 0.199719 -0.013854
v 0.041614 0.172388 -0.000881
v 0.034001 0.186018 -0.013857
v 0.041231 0.173817 -0.000009
v 0.038677 0.173801 -0.013857
v 0.041179 0.173939 -0.001083
vn 0.0018 -0.0019 -1.0000
vn 0.0003 0.0005 -1.0000
vn 0.0006 -0.0005 -1.0000
vn 0.0005 0.0005 -1.0000
vn -0.0001 -0.0001 -1.0000
vn 0.0001 -0.0000 -1.0000
vn 0.0001 0.0001 -1.0000
vn -0.0000 -0.0000 -1.0000
vn -0.9560 -0.0269 0.2920
vn -0.9202 -0.2509 0.3004
vn -0.0000 -0.0000 1.0000
vn 0.0105 0.0046 0.9999
vn -0.0016 -0.0010 1.0000
vn 0.0012 0.0007 1.0000
vn 0.0011 -0.0023 1.0000
vn -0.0018 0.0038 1.0000
vn 0.0031 -0.0021 1.0000
vn -0.8912 0.3518 0.2861
vn -0.8319 0.4922 0.2563
vn -0.9412 -0.2892 0.1748
vn 0.0001 -1.0000 -0.0000
vn 0.0001 -1.0000 -0.0001
vn -0.6646 0.7142 0.2195
vn 0.9991 0.0416 0.0038
vn -0.2733 0.9589 0.0763
vn -0.2615 0.9627 0.0702
vn 0.9991 0.0421 -0.0010
vn -0.0564 0.9984 0.0079
vn 0.3614 0.9323 -0.0133
vn 0.2128 0.9595 -0.1845
vn 0.9796 0.0435 -0.1960
vn 0.9800 0.0418 -0.1947
vn 0.8497 0.5272 -0.0087
vn 0.3729 0.9248 -0.0749
vn 0.2809 0.9419 -0.1842
vn 0.5647 0.6846 -0.4609
vn 0.9756 0.1116 -0.1892
vn 0.9877 0.1514 -0.0392
vn 0.9899 0.1418 -0.0023
vn 0.3045 0.9498 -0.0719
vn 0.6240 0.7693 -0.1373
vn 0.8452 0.4871 -0.2198
vn 0.8231 0.4032 -0.3998
vn 0.9587 0.2310 -0.1659
vn 0.9696 0.2432 0.0279
vn 0.8762 0.4623 -0.1360
vn 0.8284 0.3677 -0.4227
vn 0.9543 0.2307 -0.1898
vn 0.9362 0.3514 -0.0047
vn 0.9160 0.3577 -0.1818
vn 0.9190 0.3518 -0.1780
vn 0.9540 0.2312 -0.1907
vn 0.9633 0.2680 -0.0155
vn 0.9179 0.3524 -0.1824
vn 0.9179 0.3519 -0.1836
vn 0.9517 0.2421 -0.1890
s 0
f 1//1 8//1 13//1
f 1//2 13//2 17//2
f 1//3 17//3 27//3
f 1//4 27//4 29//4
f 1//5 29//5 31//5
f 1//6 31//6 18//6
f 1//7 18//7 9//7
f 1//8 9//8 6//8
f 1//8 6//8 3//8
f 1//9 3//9 2//9
f 2//10 3//10 4//10
f 2//11 4//11 7//11
f 2//11 7//11 19//11
f 2//12 19//12 24//12
f 2//13 24//13 30//13
f 2//14 30//14 21//14
f 2//15 21//15 16//15
f 2//16 16//16 12//16
f 2//17 12//17 11//17
f 2//11 11//11 5//11
f 2//18 5//18 1//18
f 1//19 5//19 8//19
f 3//20 6//20 4//20
f 4//21 6//21 9//21
f 4//21 9//21 10//21
f 4//22 10//22 7//22
f 5//23 11//23 8//23
f 7//24 10//24 19//24
f 8//25 11//25 12//25
f 8//26 12//26 13//26
f 10//27 14//27 19//27
f 12//28 15//28 13//28
f 12//29 16//29 20//29
f 13//30 15//30 17//30
f 9//31 18//31 14//31
f 9//32 14//32 10//32
f 16//33 21//33 20//33
f 15//34 12//34 22//34
f 15//35 22//35 17//35
f 17//36 22//36 27//36
f 14//37 18//37 23//37
f 14//38 23//38 24//38
f 14//39 24//39 19//39
f 20//40 22//40 12//40
f 22//41 20//41 25//41
f 22//42 25//42 26//42
f 22//43 26//43 27//43
f 24//44 23//44 28//44
f 24//45 28//45 30//45
f 21//46 25//46 20//46
f 27//47 26//47 29//47
f 23//48 18//48 28//48
f 21//49 30//49 32//49
f 21//50 26//50 25//50
f 26//51 31//51 29//51
f 18//52 31//52 28//52
f 28//53 32//53 30//53
f 21//54 32//54 26//54
f 26//55 32//55 31//55
f 31//56 32//56 28//56
