# Blender 4.1.1
# www.blender.org
o wine_glass_collision.038
v 0.043093 0.140664 -0.018621
v 0.036589 0.140664 -0.018621
v 0.043011 0.138101 -0.018624
v 0.042900 0.139038 -0.019076
v 0.042861 0.140664 -0.019154
v 0.030472 0.123767 -0.018622
v 0.020174 0.140664 -0.035551
v 0.042479 0.137620 -0.019523
v 0.020174 0.123765 -0.029346
v 0.020174 0.140664 -0.042192
v 0.041246 0.129422 -0.018622
v 0.020174 0.123770 -0.037217
v 0.038222 0.123765 -0.018621
v 0.032192 0.140664 -0.034160
v 0.020174 0.138092 -0.042136
v 0.040009 0.128029 -0.020011
v 0.034084 0.137685 -0.032110
v 0.029038 0.123765 -0.031258
v 0.040254 0.126881 -0.018621
v 0.032193 0.139018 -0.034156
v 0.031992 0.128073 -0.031995
v 0.032107 0.137684 -0.034087
v 0.034059 0.138985 -0.032335
v 0.030079 0.126130 -0.032119
v 0.032096 0.126087 -0.030071
v 0.030511 0.123765 -0.030138
v 0.034013 0.140664 -0.032399
v 0.020174 0.128019 -0.039895
vn -0.0000 -0.0001 1.0000
vn -0.0002 -0.0000 1.0000
vn -0.0003 0.0001 1.0000
vn 0.0020 -0.0004 1.0000
vn 0.0083 -0.0014 1.0000
vn 0.9540 -0.0302 -0.2983
vn 0.9165 0.0028 -0.4001
vn -0.0000 1.0000 -0.0000
vn -0.6949 0.2515 0.6737
vn 0.8808 -0.1165 -0.4589
vn -0.6991 0.2465 0.6712
vn -1.0000 -0.0000 -0.0000
vn 0.8858 -0.1803 -0.4277
vn 0.8300 -0.0717 -0.5531
vn 0.8320 -0.0067 -0.5547
vn -0.0001 -1.0000 -0.0006
vn -0.0000 -1.0000 -0.0000
vn -0.0002 -1.0000 0.0004
vn 0.5556 -0.0183 -0.8313
vn 0.8182 -0.1830 -0.5451
vn 0.8175 -0.1828 -0.5462
vn 0.8291 -0.0797 -0.5534
vn 0.4891 -0.4804 -0.7280
vn 0.5531 -0.0014 -0.8331
vn 0.8166 -0.1843 -0.5470
vn 0.7030 -0.1079 -0.7030
vn 0.8315 0.0014 -0.5555
vn 0.7306 -0.4763 -0.4892
vn 0.7285 -0.4833 -0.4855
vn 0.5556 -0.0790 -0.8277
vn 0.8447 -0.3300 -0.4214
vn 0.7107 -0.4701 -0.5233
vn 0.5353 -0.4829 -0.6930
vn 0.6980 -0.1603 -0.6979
vn 0.6955 -0.0820 -0.7138
vn 0.6985 -0.0083 -0.7156
vn 0.4902 -0.4648 -0.7373
vn 0.4993 -0.4441 -0.7439
vn 0.5290 -0.4862 -0.6955
vn 0.7437 -0.4448 -0.4990
vn 0.7434 -0.4456 -0.4989
vn 0.6951 -0.0010 -0.7189
vn 0.5455 -0.1820 -0.8181
vn 0.5468 -0.1843 -0.8167
s 0
f 1//1 2//1 6//1
f 1//2 6//2 13//2
f 1//3 13//3 19//3
f 1//4 19//4 11//4
f 1//5 11//5 3//5
f 1//6 3//6 4//6
f 1//7 4//7 5//7
f 1//8 5//8 27//8
f 1//8 27//8 14//8
f 1//8 14//8 10//8
f 1//8 10//8 7//8
f 1//8 7//8 2//8
f 2//9 7//9 6//9
f 4//10 3//10 8//10
f 6//11 7//11 9//11
f 7//12 10//12 15//12
f 7//12 15//12 28//12
f 7//12 28//12 12//12
f 7//12 12//12 9//12
f 8//13 3//13 11//13
f 8//14 23//14 4//14
f 4//15 23//15 5//15
f 9//16 12//16 18//16
f 9//17 18//17 26//17
f 9//17 26//17 13//17
f 9//18 13//18 6//18
f 10//19 14//19 15//19
f 8//20 11//20 16//20
f 8//21 16//21 17//21
f 8//22 17//22 23//22
f 12//23 24//23 18//23
f 14//24 20//24 15//24
f 16//25 21//25 17//25
f 17//26 22//26 23//26
f 23//27 27//27 5//27
f 13//28 26//28 19//28
f 19//29 26//29 25//29
f 20//30 22//30 15//30
f 11//31 19//31 16//31
f 21//32 25//32 26//32
f 21//33 26//33 24//33
f 21//34 22//34 17//34
f 22//35 20//35 23//35
f 23//36 20//36 27//36
f 12//37 28//37 24//37
f 24//38 28//38 21//38
f 24//39 26//39 18//39
f 19//40 25//40 21//40
f 19//41 21//41 16//41
f 20//42 14//42 27//42
f 15//43 22//43 28//43
f 22//44 21//44 28//44
