# Blender 4.1.1
# www.blender.org
o wine_glass_collision.022
v -0.000490 0.126221 -0.044212
v -0.000008 0.126214 -0.044203
v -0.000008 0.126221 -0.037554
v -0.001142 0.119823 -0.040514
v -0.014892 0.126221 -0.041357
v -0.000008 0.119555 -0.040348
v -0.000008 0.110962 -0.020171
v -0.031056 0.126221 -0.020171
v -0.015816 0.124081 -0.039980
v -0.000008 0.102831 -0.020171
v -0.038796 0.126221 -0.020172
v -0.001019 0.118013 -0.039168
v -0.013849 0.119806 -0.037977
v -0.000008 0.118125 -0.039277
v -0.000011 0.104257 -0.022500
v -0.008642 0.118169 -0.037816
v -0.013927 0.117686 -0.036272
v -0.015404 0.120250 -0.037832
v -0.016574 0.121706 -0.038232
v -0.016926 0.126221 -0.040721
v -0.000013 0.107344 -0.027172
v -0.001000 0.102835 -0.020171
v -0.031964 0.126221 -0.030390
v -0.014457 0.115576 -0.033917
v -0.015953 0.118040 -0.035828
v -0.017396 0.119836 -0.036436
v -0.018182 0.126221 -0.040128
v -0.030109 0.123243 -0.030115
v -0.029843 0.119983 -0.027435
v -0.034607 0.119868 -0.020172
v -0.001027 0.111500 -0.032667
v -0.010818 0.110794 -0.029998
v -0.013548 0.111868 -0.030149
v -0.030139 0.126221 -0.032136
v -0.001069 0.110194 -0.031213
v -0.008043 0.103786 -0.020172
v -0.010714 0.109421 -0.028165
v -0.027531 0.120065 -0.029834
v -0.027918 0.118176 -0.027921
v -0.000008 0.110622 -0.031758
v -0.008025 0.110132 -0.029790
v -0.012791 0.110024 -0.028288
v -0.027086 0.118094 -0.028444
v -0.028915 0.118034 -0.026289
v -0.024255 0.111843 -0.022336
v -0.022260 0.111810 -0.024271
v -0.010020 0.104425 -0.020172
v -0.032983 0.118020 -0.020172
v -0.022073 0.110067 -0.022150
v -0.025576 0.111737 -0.020172
v -0.023531 0.110135 -0.020172
v -0.020040 0.108191 -0.020172
vn 0.0002 1.0000 0.0011
vn 0.0001 1.0000 0.0006
vn -0.0000 1.0000 -0.0000
vn 0.0001 1.0000 0.0002
vn -0.0000 1.0000 -0.0001
vn 0.0132 0.9999 -0.0010
vn 1.0000 -0.0000 -0.0000
vn 1.0000 -0.0038 -0.0037
vn 1.0000 -0.0015 -0.0014
vn 1.0000 0.0020 0.0026
vn 0.0106 -0.5010 -0.8654
vn 0.0087 -0.5011 -0.8654
vn 0.3465 0.7050 0.6189
vn -0.1706 -0.4800 -0.8605
vn -0.0000 -0.0000 1.0000
vn -0.0000 0.0001 1.0000
vn 0.0003 -0.0004 1.0000
vn -0.0001 -0.0000 1.0000
vn -0.0239 -0.5990 -0.8004
vn -0.0202 -0.5975 -0.8016
vn -0.1521 -0.5964 -0.7882
vn -0.1584 -0.5824 -0.7973
vn -0.1710 -0.4815 -0.8596
vn -0.2424 -0.6026 -0.7603
vn -0.2191 -0.4948 -0.8409
vn -0.3317 -0.4881 -0.8073
vn -0.3721 -0.4701 -0.8003
vn -0.2685 -0.4366 -0.8587
vn -0.0026 -0.8528 -0.5223
vn -0.1396 -0.6995 -0.7009
vn -0.1373 -0.7091 -0.6916
vn -0.1691 -0.6139 -0.7710
vn -0.2680 -0.6867 -0.6757
vn -0.2697 -0.6094 -0.7456
vn -0.3931 -0.5623 -0.7275
vn -0.4091 -0.5321 -0.7413
vn -0.3768 -0.4695 -0.7985
vn 0.0297 -0.8132 -0.5812
vn -0.7020 -0.4855 -0.5210
vn 0.0022 -0.7079 -0.7063
vn 0.0227 -0.7063 -0.7075
vn -0.1403 -0.7004 -0.6999
vn -0.1987 -0.7072 -0.6785
vn -0.2474 -0.7198 -0.6486
vn -0.0969 -0.8304 -0.5487
vn -0.1120 -0.8294 -0.5473
vn -0.1097 -0.8285 -0.5492
vn -0.7290 -0.4807 -0.4873
vn -0.5191 -0.4834 -0.7048
vn -0.6187 -0.4453 -0.6472
vn -0.7306 -0.4790 -0.4867
vn -0.6338 -0.5214 -0.5714
vn -0.0435 -0.7426 -0.6683
vn -0.1294 -0.7358 -0.6647
vn -0.1265 -0.7405 -0.6600
vn -0.2552 -0.7366 -0.6263
vn -0.4489 -0.5884 -0.6725
vn -0.4848 -0.4855 -0.7275
vn -0.4539 -0.5797 -0.6767
vn -0.4873 -0.4799 -0.7296
vn -0.4877 -0.4794 -0.7296
vn -0.1060 -0.8255 -0.5544
vn -0.1104 -0.8304 -0.5461
vn -0.4749 -0.5763 -0.6651
vn -0.5742 -0.5215 -0.6311
vn -0.6734 -0.5859 -0.4509
vn -0.5797 -0.7013 -0.4149
vn -0.6671 -0.5873 -0.4584
vn -0.4262 -0.7043 -0.5677
vn -0.1450 -0.7957 -0.5881
vn -0.1951 -0.7901 -0.5811
vn -0.3959 -0.7005 -0.5938
vn -0.2107 -0.8308 -0.5152
vn -0.2696 -0.8333 -0.4827
vn -0.3957 -0.7007 -0.5937
vn -0.3973 -0.6996 -0.5939
vn -0.6717 -0.5900 -0.4480
vn -0.4475 -0.7097 -0.5440
vn -0.5401 -0.7104 -0.4512
vn -0.5617 -0.7304 -0.3887
vn -0.5695 -0.7270 -0.3834
vn -0.3795 -0.7296 -0.5688
vn -0.3782 -0.7312 -0.5678
vn -0.5936 -0.7002 -0.3968
vn -0.5938 -0.7001 -0.3965
vn -0.3114 -0.8286 -0.4652
vn -0.3116 -0.8285 -0.4654
vn -0.4623 -0.8300 -0.3120
s 0
f 1//1 5//1 20//1
f 1//2 20//2 27//2
f 1//3 27//3 34//3
f 1//4 34//4 23//4
f 1//3 23//3 11//3
f 1//5 11//5 8//5
f 1//5 8//5 3//5
f 1//6 3//6 2//6
f 2//7 3//7 7//7
f 2//7 7//7 10//7
f 2//8 10//8 15//8
f 2//9 15//9 21//9
f 2//10 21//10 40//10
f 2//7 40//7 14//7
f 2//7 14//7 6//7
f 1//11 2//11 6//11
f 1//12 6//12 4//12
f 3//13 8//13 7//13
f 1//14 4//14 5//14
f 5//14 4//14 9//14
f 7//15 8//15 11//15
f 7//15 11//15 30//15
f 7//16 30//16 48//16
f 7//15 48//15 50//15
f 7//15 50//15 51//15
f 7//15 51//15 52//15
f 7//15 52//15 47//15
f 7//17 47//17 36//17
f 7//18 36//18 22//18
f 7//15 22//15 10//15
f 4//19 6//19 14//19
f 4//20 14//20 12//20
f 4//21 12//21 16//21
f 4//22 16//22 13//22
f 9//23 4//23 13//23
f 13//24 17//24 18//24
f 13//25 18//25 9//25
f 9//26 18//26 19//26
f 9//27 19//27 20//27
f 9//28 20//28 5//28
f 10//29 22//29 15//29
f 12//30 31//30 17//30
f 12//31 17//31 16//31
f 16//32 17//32 13//32
f 17//33 24//33 25//33
f 17//34 25//34 18//34
f 18//35 25//35 26//35
f 18//36 26//36 19//36
f 19//37 27//37 20//37
f 21//38 35//38 40//38
f 23//39 28//39 29//39
f 12//40 14//40 40//40
f 12//41 40//41 31//41
f 31//42 32//42 17//42
f 17//43 32//43 24//43
f 24//44 32//44 33//44
f 15//45 22//45 21//45
f 22//46 36//46 37//46
f 22//47 37//47 21//47
f 23//48 30//48 11//48
f 28//49 34//49 38//49
f 28//50 23//50 34//50
f 29//51 30//51 23//51
f 29//52 28//52 39//52
f 31//53 40//53 35//53
f 31//54 35//54 41//54
f 31//55 41//55 32//55
f 33//56 32//56 42//56
f 25//57 43//57 26//57
f 26//58 38//58 19//58
f 26//59 43//59 38//59
f 19//60 38//60 27//60
f 27//61 38//61 34//61
f 35//62 21//62 41//62
f 21//63 37//63 41//63
f 38//64 43//64 39//64
f 38//65 39//65 28//65
f 29//66 44//66 30//66
f 39//67 45//67 44//67
f 39//68 44//68 29//68
f 39//69 43//69 46//69
f 41//70 37//70 32//70
f 32//71 37//71 42//71
f 33//72 46//72 24//72
f 42//73 37//73 36//73
f 42//74 36//74 47//74
f 24//75 46//75 25//75
f 25//76 46//76 43//76
f 44//77 48//77 30//77
f 39//78 46//78 49//78
f 39//79 49//79 45//79
f 45//80 49//80 51//80
f 45//81 51//81 50//81
f 33//82 42//82 49//82
f 33//83 49//83 46//83
f 50//84 44//84 45//84
f 44//85 50//85 48//85
f 47//86 52//86 42//86
f 42//87 52//87 49//87
f 52//88 51//88 49//88
