# Blender 4.1.1
# www.blender.org
o wine_glass_collision.033
v -0.000009 0.140664 -0.041360
v -0.000009 0.126223 -0.037555
v -0.000109 0.140663 -0.047154
v -0.016042 0.140664 -0.038195
v -0.016042 0.126223 -0.033813
v -0.000035 0.126217 -0.044271
v -0.000009 0.137716 -0.046876
v -0.016041 0.140664 -0.044022
v -0.016034 0.126223 -0.041108
v -0.000936 0.137930 -0.046931
v -0.016041 0.127983 -0.042040
v -0.000009 0.129023 -0.045221
v -0.001716 0.128220 -0.044938
v -0.016039 0.138204 -0.043968
vn 1.0000 -0.0010 -0.0039
vn 0.9999 -0.0047 0.0140
vn 1.0000 -0.0000 -0.0000
vn 0.9993 0.0323 -0.0172
vn -0.0000 1.0000 -0.0001
vn 0.1856 0.2853 0.9403
vn 0.2202 0.2485 0.9433
vn -0.0000 -1.0000 -0.0001
vn -0.0002 -1.0000 0.0009
vn 0.0369 -0.0926 -0.9950
vn -1.0000 -0.0008 -0.0000
vn -1.0000 0.0001 -0.0004
vn -1.0000 -0.0016 0.0052
vn -1.0000 -0.0003 -0.0011
vn -0.0063 -0.3205 -0.9472
vn -0.1928 -0.0219 -0.9810
vn -0.1929 -0.0218 -0.9810
vn -0.0705 -0.1951 -0.9782
vn 0.0144 -0.1871 -0.9822
vn -0.1713 -0.4375 -0.8828
vn -0.1723 -0.4617 -0.8702
vn -0.1925 -0.1825 -0.9642
vn -0.1921 -0.1819 -0.9644
s 0
f 1//1 2//1 6//1
f 1//2 6//2 12//2
f 1//3 12//3 7//3
f 1//4 7//4 3//4
f 1//5 3//5 8//5
f 1//5 8//5 4//5
f 1//6 4//6 5//6
f 1//7 5//7 2//7
f 2//8 5//8 9//8
f 2//9 9//9 6//9
f 3//10 7//10 10//10
f 4//11 8//11 14//11
f 4//12 14//12 11//12
f 4//13 11//13 9//13
f 4//14 9//14 5//14
f 6//15 13//15 12//15
f 3//16 10//16 14//16
f 3//17 14//17 8//17
f 12//18 13//18 10//18
f 12//19 10//19 7//19
f 11//20 13//20 6//20
f 11//21 6//21 9//21
f 10//22 13//22 14//22
f 11//23 14//23 13//23
