# Blender 4.1.1
# www.blender.org
o wine_glass_collision.028
v 0.036379 0.124067 -0.000008
v 0.041360 0.140664 -0.000008
v 0.043070 0.124069 0.000059
v 0.031742 0.124067 0.017060
v 0.046985 0.140664 -0.000008
v 0.037610 0.140664 0.017060
v 0.044158 0.125969 0.000016
v 0.039367 0.124067 0.017060
v 0.046980 0.140662 0.001161
v 0.043795 0.140663 0.017043
v 0.046914 0.138050 0.001135
v 0.046958 0.138584 -0.000008
v 0.045433 0.129728 -0.000008
v 0.039993 0.124067 0.015767
v 0.041095 0.126984 0.017060
v 0.043724 0.138088 0.017040
v 0.045299 0.129216 0.000826
v 0.042054 0.128002 0.016028
v 0.044038 0.128014 0.006087
v 0.041916 0.129050 0.017060
vn -0.0000 -0.0000 -1.0000
vn 0.0051 -0.0081 -1.0000
vn 0.0100 -0.0283 -0.9995
vn 0.0004 -1.0000 -0.0000
vn 0.0009 -1.0000 -0.0002
vn -0.0000 -1.0000 -0.0000
vn -0.9269 0.2782 -0.2518
vn -0.9232 0.3264 -0.2029
vn 0.0001 1.0000 -0.0000
vn 0.0002 1.0000 -0.0000
vn -0.0000 1.0000 0.0011
vn -0.0000 -0.0002 1.0000
vn -0.0001 0.0003 1.0000
vn -0.0012 0.0024 1.0000
vn 0.0031 -0.0012 1.0000
vn 0.0027 -0.0010 1.0000
vn 0.9997 -0.0251 0.0045
vn 0.9994 -0.0130 0.0321
vn 0.9460 -0.3211 -0.0448
vn 0.7942 -0.4706 0.3844
vn 0.8571 -0.4870 0.1679
vn 0.9230 -0.3588 0.1391
vn 0.8694 -0.4628 0.1730
vn 0.8677 -0.4659 0.1732
vn 0.8301 -0.4560 0.3210
vn 0.9801 -0.0273 0.1965
vn 0.9801 -0.0265 0.1966
vn 0.9823 -0.1813 0.0468
vn 0.9846 -0.1696 -0.0416
vn 0.8316 -0.3300 0.4467
vn 0.9647 -0.1831 0.1892
vn 0.9644 -0.1815 0.1923
vn 0.9645 -0.1792 0.1939
vn 0.9313 -0.1857 0.3134
s 0
f 1//1 2//1 5//1
f 1//1 5//1 12//1
f 1//1 12//1 13//1
f 1//2 13//2 7//2
f 1//3 7//3 3//3
f 1//4 3//4 14//4
f 1//5 14//5 8//5
f 1//6 8//6 4//6
f 1//7 4//7 2//7
f 2//8 4//8 6//8
f 2//9 6//9 10//9
f 2//10 10//10 9//10
f 2//11 9//11 5//11
f 4//12 8//12 15//12
f 4//13 15//13 20//13
f 4//14 20//14 16//14
f 4//15 16//15 10//15
f 4//16 10//16 6//16
f 9//17 11//17 5//17
f 5//18 11//18 12//18
f 7//19 13//19 17//19
f 8//20 14//20 15//20
f 7//21 14//21 3//21
f 7//22 17//22 19//22
f 7//23 19//23 18//23
f 7//24 18//24 14//24
f 14//25 18//25 15//25
f 9//26 10//26 16//26
f 9//27 16//27 11//27
f 11//28 17//28 13//28
f 11//29 13//29 12//29
f 18//30 20//30 15//30
f 11//31 19//31 17//31
f 11//32 18//32 19//32
f 16//33 18//33 11//33
f 16//34 20//34 18//34
