# Blender 4.1.1
# www.blender.org
o wine_glass_collision.016
v -0.046992 0.140665 0.000009
v -0.046988 0.140666 0.001074
v -0.046555 0.151003 0.000009
v -0.041359 0.140665 0.000009
v -0.046559 0.150949 0.001025
v -0.037479 0.140665 0.017265
v -0.025746 0.197324 0.000009
v -0.023164 0.188257 0.017264
v -0.043855 0.140666 0.016800
v -0.046059 0.154481 0.000018
v -0.043662 0.140666 0.017265
v -0.025746 0.198661 0.000009
v -0.023164 0.197040 0.011291
v -0.023150 0.201020 0.017251
v -0.044052 0.151955 0.013448
v -0.046292 0.152568 0.001457
v -0.026222 0.199661 0.000009
v -0.023164 0.200507 0.013389
v -0.023165 0.199293 0.011514
v -0.025122 0.200373 0.017246
v -0.043238 0.151004 0.017258
v -0.041654 0.172271 0.000826
v -0.041420 0.173076 0.000009
v -0.027218 0.200595 0.000009
v -0.029110 0.201140 0.000011
v -0.027001 0.201103 0.011002
v -0.028389 0.200441 0.012138
v -0.025934 0.199044 0.017265
v -0.042822 0.153561 0.017267
v -0.038880 0.171664 0.015498
v -0.030576 0.200573 0.000009
v -0.030038 0.200122 0.006466
v -0.029715 0.198427 0.011483
v -0.028293 0.199584 0.013350
v -0.030573 0.200551 0.001604
v -0.038019 0.174387 0.015932
v -0.041115 0.174028 0.001235
v -0.032103 0.198124 0.000018
v -0.037263 0.174021 0.017264
v -0.036948 0.185371 0.000015
vn -0.9991 0.0417 0.0031
vn -0.9991 0.0422 -0.0024
vn 0.0252 -0.0011 -0.9997
vn -0.0061 0.0010 -1.0000
vn 0.0025 -0.0004 -1.0000
vn 0.0006 -0.0000 -1.0000
vn -0.0103 0.0028 -0.9999
vn 0.0017 -0.0005 -1.0000
vn -0.0011 0.0004 -1.0000
vn -0.0000 -0.0000 -1.0000
vn -0.0000 -1.0000 -0.0000
vn -0.0001 -1.0000 -0.0000
vn -0.0013 -1.0000 0.0003
vn -0.0042 -1.0000 0.0008
vn 0.9274 -0.2556 -0.2730
vn 0.9362 -0.2816 -0.2105
vn -0.9799 0.0409 0.1952
vn -0.9900 0.1411 0.0030
vn -0.0036 0.0011 1.0000
vn -0.0027 0.0009 1.0000
vn 0.0338 -0.0067 0.9994
vn -0.0001 -0.0000 1.0000
vn 0.0005 -0.0000 1.0000
vn -0.0056 -0.0025 1.0000
vn -0.0000 0.0006 1.0000
vn 0.9748 -0.0000 -0.2231
vn 0.9626 -0.1524 -0.2241
vn 1.0000 0.0001 0.0002
vn 1.0000 -0.0002 -0.0004
vn 1.0000 -0.0011 -0.0034
vn -0.9800 0.0418 0.1944
vn -0.9759 0.1110 0.1880
vn -0.9875 0.1518 0.0420
vn 0.8794 0.4183 -0.2274
vn 0.9117 0.3448 -0.2235
vn 0.9753 0.0218 -0.2200
vn -0.9229 0.0381 0.3832
vn -0.9742 0.0484 0.2204
vn -0.9610 0.2311 0.1517
vn -0.9695 0.2419 -0.0389
vn 0.6701 0.7153 -0.1983
vn 0.4194 0.8997 -0.1212
vn 0.2757 0.9571 -0.0887
vn 0.0232 0.9997 -0.0011
vn -0.2905 0.9375 0.1915
vn -0.3053 0.9294 0.2075
vn -0.9575 0.1548 0.2434
vn -0.9507 0.2276 0.2106
vn -0.3608 0.9326 0.0134
vn -0.3782 0.9226 0.0757
vn -0.8460 0.4862 0.2188
vn -0.8273 0.4259 0.3663
vn -0.6941 0.5610 0.4512
vn -0.7336 0.4549 0.5049
vn -0.9543 0.2307 0.1899
vn -0.9543 0.2307 0.1900
vn -0.8484 0.5293 0.0087
vn -0.3032 0.9501 0.0728
vn -0.6177 0.7745 0.1362
vn -0.9082 0.2318 0.3484
vn -0.9569 0.2903 0.0125
vn -0.8759 0.4627 0.1371
vn -0.9147 0.3613 0.1810
vn -0.8357 0.3646 0.4107
vn -0.7696 0.3517 0.5330
vn -0.7791 0.3527 0.5182
vn -0.9502 0.2470 0.1898
vn -0.9440 0.2680 0.1924
vn -0.9393 0.3417 -0.0317
vn -0.9180 0.3525 0.1819
vn -0.9179 0.3512 0.1848
vn -0.8204 0.2230 0.5265
vn -0.9294 0.3530 0.1080
s 0
f 1//1 2//1 5//1
f 1//2 5//2 3//2
f 1//3 3//3 10//3
f 1//4 10//4 23//4
f 1//5 23//5 40//5
f 1//6 40//6 38//6
f 1//7 38//7 31//7
f 1//8 31//8 25//8
f 1//9 25//9 24//9
f 1//10 24//10 17//10
f 1//10 17//10 12//10
f 1//10 12//10 7//10
f 1//10 7//10 4//10
f 1//11 4//11 6//11
f 1//12 6//12 11//12
f 1//13 11//13 9//13
f 1//14 9//14 2//14
f 4//15 7//15 8//15
f 4//16 8//16 6//16
f 2//17 9//17 15//17
f 3//18 5//18 10//18
f 6//19 8//19 14//19
f 6//20 14//20 20//20
f 6//21 20//21 28//21
f 6//22 28//22 39//22
f 6//23 39//23 29//23
f 6//24 29//24 21//24
f 6//25 21//25 11//25
f 7//26 12//26 13//26
f 7//27 13//27 8//27
f 8//28 13//28 19//28
f 8//29 19//29 18//29
f 8//30 18//30 14//30
f 2//31 15//31 5//31
f 5//32 15//32 16//32
f 5//33 16//33 10//33
f 12//34 17//34 18//34
f 12//35 18//35 19//35
f 12//36 19//36 13//36
f 9//37 11//37 21//37
f 9//38 21//38 15//38
f 10//39 16//39 22//39
f 10//40 22//40 23//40
f 17//41 24//41 18//41
f 14//42 18//42 24//42
f 14//43 24//43 25//43
f 14//44 25//44 26//44
f 14//45 26//45 27//45
f 14//46 27//46 20//46
f 15//47 21//47 29//47
f 15//48 29//48 30//48
f 25//49 31//49 35//49
f 26//50 25//50 27//50
f 27//51 32//51 33//51
f 27//52 33//52 34//52
f 27//53 34//53 20//53
f 20//54 34//54 28//54
f 15//55 30//55 22//55
f 15//56 22//56 16//56
f 31//57 38//57 35//57
f 25//58 35//58 27//58
f 27//59 35//59 32//59
f 30//60 29//60 36//60
f 22//61 37//61 23//61
f 35//62 38//62 32//62
f 32//63 38//63 33//63
f 33//64 36//64 34//64
f 34//65 36//65 39//65
f 34//66 39//66 28//66
f 30//67 37//67 22//67
f 37//68 30//68 36//68
f 37//69 40//69 23//69
f 33//70 38//70 37//70
f 33//71 37//71 36//71
f 36//72 29//72 39//72
f 37//73 38//73 40//73
