# Blender 4.1.1
# www.blender.org
o wine_glass_collision.012
v -0.040161 0.140665 -0.023231
v -0.033507 0.140665 -0.023231
v -0.034188 0.140666 -0.032170
v -0.017245 0.140665 -0.037492
v -0.017245 0.188130 -0.023231
v -0.039645 0.150985 -0.023231
v -0.017245 0.140666 -0.043670
v -0.017245 0.200969 -0.023231
v -0.033889 0.150959 -0.031849
v -0.019112 0.140666 -0.042893
v -0.017245 0.200492 -0.024844
v -0.019031 0.200644 -0.023231
v -0.033927 0.152559 -0.031471
v -0.033254 0.140666 -0.033171
v -0.032890 0.151037 -0.032892
v -0.018933 0.151017 -0.042502
v -0.018494 0.200349 -0.024335
v -0.039269 0.153134 -0.023231
v -0.032720 0.153038 -0.032720
v -0.032213 0.140666 -0.034153
v -0.031838 0.150973 -0.033895
v -0.017245 0.150991 -0.043230
v -0.018594 0.153198 -0.042346
v -0.017245 0.199043 -0.025950
v -0.019828 0.199777 -0.023873
v -0.020370 0.200066 -0.023231
v -0.032036 0.157762 -0.032038
v -0.030575 0.171963 -0.028207
v -0.031504 0.152674 -0.033871
v -0.017245 0.153663 -0.042793
v -0.022202 0.152484 -0.040140
v -0.018003 0.155739 -0.042012
v -0.021274 0.199083 -0.023230
v -0.033679 0.172731 -0.023231
v -0.029947 0.169943 -0.029950
v -0.028108 0.171279 -0.030840
v -0.017243 0.172797 -0.037656
v -0.030038 0.174037 -0.028069
v -0.028032 0.174042 -0.030068
v -0.017245 0.174884 -0.036890
v -0.028025 0.178534 -0.028010
v -0.023841 0.193791 -0.023841
v -0.032898 0.174866 -0.023231
v -0.024361 0.193704 -0.023231
vn -0.0008 -1.0000 -0.0007
vn 0.0003 -1.0000 0.0002
vn -0.0001 -1.0000 -0.0001
vn 0.0001 -1.0000 0.0001
vn -0.0000 -1.0000 -0.0000
vn -0.0000 -0.0000 1.0000
vn 0.0016 -0.0005 1.0000
vn -0.0004 0.0001 1.0000
vn -0.0001 -0.0000 1.0000
vn 0.0001 -0.0000 1.0000
vn 0.6431 -0.2203 0.7334
vn 1.0000 -0.0000 -0.0000
vn 1.0000 -0.0001 -0.0001
vn 1.0000 -0.0000 0.0030
vn 1.0000 -0.0000 -0.0002
vn 1.0000 -0.0000 0.0001
vn -0.8307 0.0415 -0.5551
vn -0.1719 0.9448 -0.2791
vn -0.8263 0.1108 -0.5522
vn -0.8308 0.0414 -0.5550
vn -0.7230 0.0439 -0.6894
vn -0.3837 0.0393 -0.9226
vn -0.3950 0.0415 -0.9178
vn -0.2506 0.8979 -0.3618
vn -0.8257 0.1442 -0.5454
vn -0.7380 0.1385 -0.6605
vn -0.7213 0.1200 -0.6821
vn -0.6856 0.0431 -0.7267
vn -0.7307 0.0424 -0.6814
vn -0.6881 0.0436 -0.7243
vn -0.6813 0.1201 -0.7221
vn -0.3911 0.1258 -0.9117
vn -0.3665 0.5643 -0.7397
vn -0.4636 0.4787 -0.7456
vn -0.4771 0.5767 -0.6632
vn -0.3630 0.8409 -0.4014
vn -0.7416 0.1997 -0.6405
vn -0.8016 0.2313 -0.5513
vn -0.6411 0.1997 -0.7410
vn -0.6579 0.1402 -0.7399
vn -0.5511 0.1205 -0.8257
vn -0.5545 0.0410 -0.8312
vn -0.3573 0.1505 -0.9218
vn -0.5368 0.1427 -0.8316
vn -0.3709 0.2054 -0.9057
vn -0.5186 0.3643 -0.7735
vn -0.5401 0.4960 -0.6799
vn -0.8091 0.2308 -0.5404
vn -0.8090 0.2307 -0.5406
vn -0.7978 0.2322 -0.5564
vn -0.5553 0.2322 -0.7986
vn -0.5507 0.2311 -0.8021
vn -0.5405 0.2314 -0.8089
vn -0.5551 0.0936 -0.8265
vn -0.7894 0.2416 -0.5643
vn -0.5577 0.2377 -0.7952
vn -0.8054 0.2442 -0.5401
vn -0.5406 0.2304 -0.8091
vn -0.5388 0.2318 -0.8099
vn -0.5400 0.2308 -0.8094
vn -0.2741 0.2494 -0.9288
vn -0.5197 0.3524 -0.7783
vn -0.5211 0.3528 -0.7771
vn -0.5596 0.3577 -0.7476
vn -0.5309 0.3536 -0.7702
vn -0.7213 0.4140 -0.5553
vn -0.8004 0.2926 -0.5233
vn -0.7728 0.3529 -0.5276
vn -0.6745 0.2957 -0.6765
vn -0.6714 0.3094 -0.6734
vn -0.5397 0.2405 -0.8068
vn -0.5273 0.2923 -0.7978
vn -0.7352 0.3588 -0.5751
vn -0.7779 0.3525 -0.5202
s 0
f 1//1 3//1 14//1
f 1//2 14//2 20//2
f 1//3 20//3 10//3
f 1//4 10//4 7//4
f 1//3 7//3 4//3
f 1//5 4//5 2//5
f 1//6 2//6 5//6
f 1//6 5//6 8//6
f 1//6 8//6 12//6
f 1//6 12//6 26//6
f 1//7 26//7 33//7
f 1//8 33//8 44//8
f 1//9 44//9 43//9
f 1//6 43//6 34//6
f 1//6 34//6 18//6
f 1//10 18//10 6//10
f 2//11 4//11 5//11
f 4//12 7//12 22//12
f 4//12 22//12 30//12
f 4//13 30//13 37//13
f 4//14 37//14 40//14
f 4//12 40//12 24//12
f 4//15 24//15 11//15
f 4//16 11//16 8//16
f 4//12 8//12 5//12
f 6//17 3//17 1//17
f 8//18 11//18 12//18
f 6//19 13//19 9//19
f 6//20 9//20 3//20
f 9//21 15//21 14//21
f 10//22 22//22 7//22
f 10//23 16//23 22//23
f 11//24 17//24 12//24
f 13//25 6//25 18//25
f 9//26 13//26 19//26
f 9//27 19//27 15//27
f 14//28 21//28 20//28
f 14//29 3//29 9//29
f 14//30 15//30 21//30
f 15//31 19//31 21//31
f 16//32 23//32 22//32
f 11//33 24//33 17//33
f 17//34 24//34 25//34
f 17//35 25//35 26//35
f 17//36 26//36 12//36
f 13//37 27//37 19//37
f 13//38 28//38 27//38
f 19//39 27//39 29//39
f 19//40 29//40 21//40
f 21//41 29//41 16//41
f 10//42 20//42 21//42
f 10//42 21//42 16//42
f 22//43 23//43 30//43
f 16//44 31//44 23//44
f 23//45 32//45 30//45
f 24//46 33//46 25//46
f 25//47 33//47 26//47
f 18//48 34//48 28//48
f 18//49 28//49 13//49
f 27//50 28//50 35//50
f 27//51 35//51 36//51
f 27//52 36//52 29//52
f 29//53 23//53 31//53
f 29//54 31//54 16//54
f 35//55 28//55 38//55
f 35//56 39//56 36//56
f 28//57 34//57 38//57
f 29//58 36//58 23//58
f 23//59 36//59 32//59
f 32//60 36//60 37//60
f 32//61 37//61 30//61
f 24//62 40//62 39//62
f 24//63 39//63 33//63
f 33//64 41//64 42//64
f 33//65 39//65 41//65
f 33//66 42//66 44//66
f 38//67 34//67 43//67
f 38//68 44//68 41//68
f 35//69 38//69 39//69
f 39//70 38//70 41//70
f 37//71 36//71 39//71
f 37//72 39//72 40//72
f 41//73 44//73 42//73
f 43//74 44//74 38//74
