# Blender 4.1.1
# www.blender.org
o wine_glass_collision.039
v -0.030556 0.125415 0.020180
v -0.022340 0.117021 0.020180
v -0.022340 0.112020 0.000010
v -0.037128 0.125415 0.000010
v -0.038265 0.125415 0.020180
v -0.022340 0.109457 0.020180
v -0.022340 0.104150 0.000025
v -0.043707 0.125415 0.000010
v -0.040024 0.125415 0.017512
v -0.027353 0.107468 0.000015
v -0.040426 0.119665 0.000010
v -0.043709 0.125415 0.000775
v -0.037844 0.120545 0.015947
v -0.024147 0.110567 0.020180
v -0.028327 0.110041 0.012769
v -0.031576 0.110481 0.000010
v -0.040532 0.119846 0.001122
v -0.036422 0.119820 0.017394
v -0.040750 0.125413 0.015643
v -0.034578 0.119838 0.020180
v -0.022339 0.105609 0.009894
v -0.031585 0.110478 0.001162
v -0.037984 0.119804 0.013807
v -0.035969 0.117869 0.015427
v -0.033029 0.118063 0.020179
v -0.030047 0.111778 0.013538
v -0.022341 0.105204 0.008081
v -0.039232 0.118089 0.001072
v -0.039208 0.118066 0.000010
v -0.036233 0.117652 0.013964
v -0.029347 0.110191 0.010553
v -0.037808 0.118191 0.008757
v -0.030626 0.111440 0.011004
vn 0.7041 0.6892 -0.1709
vn 0.6558 0.7240 -0.2137
vn -0.0000 1.0000 -0.0000
vn -0.0003 1.0000 0.0002
vn 0.0004 1.0000 -0.0015
vn -0.0000 1.0000 0.0001
vn -0.0000 -0.0000 1.0000
vn 0.0002 -0.0001 1.0000
vn -0.0001 -0.0000 1.0000
vn 0.0002 0.0001 1.0000
vn 1.0000 -0.0001 0.0001
vn 1.0000 0.0008 -0.0009
vn 1.0000 -0.0003 0.0002
vn 1.0000 -0.0000 -0.0000
vn 0.0006 -0.0019 -1.0000
vn 0.0003 -0.0016 -1.0000
vn -0.0000 -0.0000 -1.0000
vn -0.8686 -0.4955 -0.0023
vn -0.7313 -0.4824 0.4822
vn -0.4932 -0.8028 0.3351
vn -0.5809 -0.8140 -0.0069
vn -0.8686 -0.4956 -0.0019
vn -0.8221 -0.4709 0.3200
vn -0.7365 -0.4660 0.4902
vn -0.7306 -0.4829 0.4828
vn -0.7086 -0.5757 0.4079
vn -0.8427 -0.4892 0.2248
vn -0.6704 -0.5982 0.4390
vn -0.6731 -0.5876 0.4490
vn -0.4649 -0.8293 0.3102
vn -0.5711 -0.7307 0.3740
vn -0.5487 -0.8290 0.1084
vn -0.5503 -0.8277 0.1097
vn -0.5568 -0.8237 0.1075
vn -0.8034 -0.5951 0.0205
vn -0.7921 -0.5906 0.1545
vn -0.7975 -0.5822 0.1582
vn -0.7956 -0.6058 -0.0042
vn -0.7588 -0.5985 0.2571
vn -0.7761 -0.5880 0.2277
vn -0.8602 -0.4803 0.1712
vn -0.6339 -0.7345 0.2422
vn -0.5254 -0.8303 0.1857
vn -0.5255 -0.8303 0.1856
vn -0.8604 -0.4801 0.1711
vn -0.7705 -0.6145 0.1695
vn -0.6670 -0.7099 0.2261
vn -0.6560 -0.7138 0.2451
vn -0.5940 -0.7003 0.3959
vn -0.6330 -0.7351 0.2427
vn -0.5918 -0.7012 0.3977
vn -0.6674 -0.7321 0.1366
vn -0.7055 -0.7087 -0.0000
vn -0.7049 -0.7093 -0.0076
vn -0.6986 -0.7020 0.1386
vn -0.6997 -0.7013 0.1368
vn -0.7011 -0.6993 0.1393
s 0
f 1//1 2//1 3//1
f 1//2 3//2 4//2
f 1//3 4//3 8//3
f 1//3 8//3 12//3
f 1//4 12//4 19//4
f 1//5 19//5 9//5
f 1//6 9//6 5//6
f 1//7 5//7 20//7
f 1//8 20//8 25//8
f 1//9 25//9 14//9
f 1//10 14//10 6//10
f 1//7 6//7 2//7
f 2//11 6//11 21//11
f 2//12 21//12 27//12
f 2//13 27//13 7//13
f 2//14 7//14 3//14
f 3//15 7//15 10//15
f 3//16 10//16 16//16
f 3//17 16//17 29//17
f 3//17 29//17 11//17
f 3//17 11//17 8//17
f 3//17 8//17 4//17
f 8//18 11//18 12//18
f 9//19 13//19 5//19
f 6//20 14//20 15//20
f 10//21 22//21 16//21
f 11//22 17//22 12//22
f 13//23 9//23 19//23
f 13//24 18//24 20//24
f 13//25 20//25 5//25
f 13//26 24//26 18//26
f 13//27 19//27 23//27
f 18//28 24//28 25//28
f 18//29 25//29 20//29
f 6//30 15//30 21//30
f 15//31 14//31 26//31
f 7//32 27//32 10//32
f 10//33 27//33 31//33
f 22//34 10//34 31//34
f 17//35 11//35 28//35
f 17//36 28//36 32//36
f 17//37 32//37 23//37
f 11//38 29//38 28//38
f 23//39 30//39 13//39
f 13//40 30//40 24//40
f 19//41 17//41 23//41
f 15//42 26//42 31//42
f 15//43 31//43 27//43
f 15//44 27//44 21//44
f 17//45 19//45 12//45
f 23//46 32//46 30//46
f 24//47 30//47 33//47
f 24//48 33//48 26//48
f 24//49 26//49 25//49
f 26//50 33//50 31//50
f 14//51 25//51 26//51
f 31//52 33//52 22//52
f 22//53 28//53 29//53
f 22//54 29//54 16//54
f 28//55 30//55 32//55
f 22//56 33//56 28//56
f 28//57 33//57 30//57
