# Blender 4.1.1
# www.blender.org
o wine_glass_collision.034
v -0.012100 0.108767 0.000008
v -0.000008 0.107689 0.000008
v -0.012100 0.112755 -0.020171
v -0.012100 0.097308 0.000003
v -0.000008 0.110958 -0.020171
v -0.000008 0.085885 0.000007
v -0.012098 0.105196 -0.020173
v -0.004786 0.085883 -0.000046
v -0.000014 0.102753 -0.020171
v -0.002343 0.085885 -0.004193
v -0.004162 0.085885 -0.002434
v -0.012100 0.097935 -0.004883
v -0.000043 0.085881 -0.004767
v -0.008004 0.103767 -0.020171
v -0.012100 0.100537 -0.011710
vn 0.0872 0.9773 0.1931
vn -1.0000 -0.0003 -0.0001
vn -1.0000 0.0002 -0.0001
vn -1.0000 -0.0000 -0.0000
vn 0.0062 -0.0004 1.0000
vn -0.0111 -0.0059 0.9999
vn -0.0000 -0.0000 1.0000
vn 0.1451 0.9767 0.1582
vn 1.0000 -0.0000 -0.0074
vn 1.0000 -0.0017 0.0001
vn 1.0000 -0.0008 -0.0001
vn -0.0000 -0.0000 -1.0000
vn 0.0004 0.0002 -1.0000
vn -0.5050 -0.6872 -0.5222
vn -0.8404 -0.5376 -0.0690
vn -0.0013 -1.0000 -0.0014
vn -0.0025 -1.0000 -0.0021
vn 0.0006 -1.0000 0.0009
vn -0.2398 -0.6880 -0.6850
vn -0.1772 -0.6864 -0.7053
vn -0.7251 -0.6032 -0.3323
vn -0.7936 -0.5685 -0.2166
vn -0.7982 -0.5649 -0.2093
vn -0.0853 -0.6717 -0.7359
s 0
f 1//1 2//1 3//1
f 1//2 3//2 7//2
f 1//3 7//3 15//3
f 1//4 15//4 12//4
f 1//4 12//4 4//4
f 1//5 4//5 8//5
f 1//6 8//6 6//6
f 1//7 6//7 2//7
f 2//8 5//8 3//8
f 2//9 6//9 13//9
f 2//10 13//10 9//10
f 2//11 9//11 5//11
f 3//12 5//12 9//12
f 3//12 9//12 14//12
f 3//13 14//13 7//13
f 7//14 10//14 11//14
f 4//15 12//15 8//15
f 8//16 11//16 10//16
f 8//17 10//17 13//17
f 8//18 13//18 6//18
f 10//19 7//19 14//19
f 10//20 14//20 13//20
f 11//21 15//21 7//21
f 8//22 12//22 15//22
f 8//23 15//23 11//23
f 13//24 14//24 9//24
