# Blender 4.1.1
# www.blender.org
o wine_glass_collision.007
v -0.023164 0.140665 0.040203
v -0.031837 0.150941 0.033902
v -0.032197 0.140666 0.034165
v -0.023164 0.151040 0.039684
v -0.023164 0.140665 0.033554
v -0.033826 0.150956 0.031941
v -0.033174 0.140666 0.033252
v -0.037479 0.140665 0.017265
v -0.023164 0.188254 0.017265
v -0.031477 0.152597 0.033910
v -0.032721 0.153033 0.032719
v -0.034163 0.140666 0.032194
v -0.043669 0.140667 0.017265
v -0.023164 0.200976 0.017265
v -0.023164 0.153102 0.039321
v -0.032045 0.157712 0.032043
v -0.028043 0.173851 0.030138
v -0.033871 0.152674 0.031499
v -0.042480 0.150970 0.018979
v -0.042870 0.140666 0.019165
v -0.024851 0.200480 0.017265
v -0.023164 0.200657 0.019083
v -0.029944 0.169973 0.029942
v -0.042336 0.152871 0.018745
v -0.024335 0.200344 0.018492
v -0.025937 0.199039 0.017265
v -0.023164 0.200096 0.020430
v -0.030059 0.174034 0.028053
v -0.030472 0.172041 0.028330
v -0.043220 0.150999 0.017265
v -0.023874 0.199778 0.019828
v -0.023163 0.199156 0.021324
v -0.023164 0.174901 0.032928
v -0.023164 0.193917 0.024307
v -0.027987 0.178618 0.028004
v -0.023164 0.172863 0.033687
v -0.036873 0.174892 0.017265
v -0.037607 0.172908 0.017265
v -0.042018 0.155759 0.017977
v -0.042703 0.154052 0.017265
v -0.023840 0.193791 0.023839
vn -0.5553 0.0407 0.8307
vn 1.0000 -0.0000 -0.0000
vn 1.0000 -0.0003 -0.0009
vn 1.0000 0.0001 0.0002
vn 1.0000 -0.0000 -0.0001
vn -0.5545 0.0416 0.8311
vn -0.0011 -1.0000 0.0016
vn -0.0003 -1.0000 0.0004
vn -0.0000 -1.0000 -0.0000
vn -0.0000 -1.0000 -0.0001
vn -0.0002 -1.0000 0.0001
vn -0.7013 0.0462 0.7114
vn -0.6820 0.0425 0.7301
vn 0.7327 -0.2204 -0.6439
vn -0.5518 0.1163 0.8258
vn -0.6585 0.1399 0.7395
vn -0.6979 0.1057 0.7084
vn -0.7299 0.0407 0.6824
vn -0.0000 -0.0000 -1.0000
vn 0.0002 0.0001 -1.0000
vn -0.0001 -0.0000 -1.0000
vn -0.0004 -0.0000 -1.0000
vn -0.5459 0.1451 0.8252
vn -0.6400 0.1998 0.7420
vn -0.5515 0.2313 0.8015
vn -0.7417 0.1998 0.6403
vn -0.7411 0.1488 0.6547
vn -0.8256 0.1200 0.5513
vn -0.8307 0.0409 0.5552
vn -0.2781 0.9461 0.1659
vn -0.5406 0.2309 0.8090
vn -0.5560 0.2321 0.7981
vn -0.7959 0.2322 0.5591
vn -0.8014 0.2309 0.5518
vn -0.8252 0.1302 0.5496
vn -0.8309 0.0415 0.5548
vn -0.3666 0.8953 0.2529
vn -0.7411 0.5583 0.3729
vn -0.4030 0.8449 0.3518
vn -0.5414 0.2305 0.8085
vn -0.7862 0.2421 0.5686
vn -0.8091 0.2305 0.5405
vn -0.9210 0.0400 0.3875
vn -0.9170 0.0419 0.3967
vn -0.7457 0.4806 0.4615
vn -0.6624 0.5795 0.4747
vn -0.7743 0.3626 0.5186
vn -0.6785 0.5060 0.5326
vn -0.5255 0.3528 0.7742
vn -0.6698 0.3099 0.6748
vn -0.6737 0.2958 0.6772
vn -0.5213 0.2979 0.7997
vn -0.7699 0.3536 0.5312
vn -0.8067 0.2423 0.5391
vn -0.8094 0.2309 0.5400
vn -0.9012 0.2012 0.3839
vn -0.9223 0.1564 0.3534
vn -0.9109 0.1178 0.3954
vn -0.7783 0.3525 0.5196
vn -0.7773 0.3529 0.5209
vn -0.5205 0.3526 0.7777
vn -0.5748 0.3589 0.7354
vn -0.7444 0.3582 0.5636
vn -0.7971 0.2948 0.5269
vn -0.8134 0.2314 0.5336
vn -0.5692 0.4068 0.7145
vn -0.9240 0.2497 0.2895
s 0
f 1//1 2//1 3//1
f 1//2 5//2 9//2
f 1//2 9//2 14//2
f 1//2 14//2 22//2
f 1//2 22//2 27//2
f 1//3 27//3 32//3
f 1//4 32//4 34//4
f 1//2 34//2 33//2
f 1//5 33//5 36//5
f 1//2 36//2 15//2
f 1//5 15//5 4//5
f 1//6 4//6 2//6
f 1//7 3//7 7//7
f 1//8 7//8 12//8
f 1//9 12//9 20//9
f 1//10 20//10 13//10
f 1//11 13//11 8//11
f 1//9 8//9 5//9
f 2//12 6//12 7//12
f 2//13 7//13 3//13
f 5//14 8//14 9//14
f 4//15 10//15 2//15
f 2//16 10//16 11//16
f 2//17 11//17 6//17
f 7//18 6//18 12//18
f 8//19 13//19 30//19
f 8//20 30//20 40//20
f 8//21 40//21 38//21
f 8//22 38//22 37//22
f 8//19 37//19 26//19
f 8//19 26//19 21//19
f 8//19 21//19 14//19
f 8//19 14//19 9//19
f 4//23 15//23 10//23
f 10//24 16//24 11//24
f 10//25 17//25 16//25
f 11//26 16//26 18//26
f 11//27 18//27 6//27
f 6//28 18//28 19//28
f 6//29 20//29 12//29
f 14//30 21//30 22//30
f 10//31 15//31 17//31
f 16//32 17//32 23//32
f 16//33 23//33 29//33
f 16//34 29//34 18//34
f 18//35 24//35 19//35
f 19//36 20//36 6//36
f 21//37 25//37 22//37
f 21//38 26//38 25//38
f 22//39 25//39 27//39
f 15//40 36//40 17//40
f 23//41 28//41 29//41
f 18//42 29//42 24//42
f 20//43 30//43 13//43
f 20//44 19//44 30//44
f 25//45 26//45 31//45
f 25//46 31//46 27//46
f 26//47 32//47 31//47
f 27//48 31//48 32//48
f 17//49 34//49 35//49
f 17//50 35//50 28//50
f 17//51 28//51 23//51
f 17//52 36//52 33//52
f 28//53 35//53 32//53
f 28//54 38//54 29//54
f 29//55 38//55 24//55
f 24//56 39//56 40//56
f 24//57 40//57 30//57
f 24//58 30//58 19//58
f 26//59 37//59 28//59
f 26//60 28//60 32//60
f 17//61 33//61 34//61
f 35//62 34//62 41//62
f 35//63 41//63 32//63
f 28//64 37//64 38//64
f 24//65 38//65 39//65
f 41//66 34//66 32//66
f 39//67 38//67 40//67
