# Blender 4.1.1
# www.blender.org
o wine_glass_collision.035
v 0.024569 0.126421 0.028243
v 0.024569 0.140665 0.032615
v 0.024566 0.126428 0.036023
v -0.000008 0.126421 0.037659
v -0.000008 0.140665 0.041359
v 0.024569 0.140665 0.039255
v 0.000036 0.126415 0.044360
v 0.000032 0.140667 0.047123
v 0.019111 0.140665 0.042887
v -0.000008 0.137777 0.046896
v 0.024569 0.138181 0.039212
v 0.019301 0.138284 0.042732
v 0.024569 0.128899 0.037156
v 0.019921 0.128046 0.040073
v 0.017704 0.126420 0.040524
v -0.000008 0.129024 0.045221
v 0.000969 0.138354 0.046992
v 0.016768 0.138169 0.043812
v 0.017918 0.129810 0.041791
v 0.001764 0.128185 0.044923
v 0.016470 0.140664 0.043942
v 0.016037 0.127996 0.042046
v 0.014930 0.126421 0.041452
vn 1.0000 -0.0000 -0.0000
vn 1.0000 -0.0001 0.0001
vn 1.0000 -0.0016 0.0004
vn 0.0018 -1.0000 0.0009
vn -0.0005 -1.0000 -0.0003
vn 0.0004 -1.0000 0.0003
vn -0.0003 -1.0000 -0.0008
vn -0.3477 0.2358 -0.9075
vn -0.3220 0.2778 -0.9051
vn -0.0001 1.0000 -0.0003
vn 0.0003 1.0000 0.0003
vn -0.0007 1.0000 -0.0004
vn -0.0000 1.0000 -0.0000
vn -0.9998 -0.0186 0.0064
vn -1.0000 -0.0000 -0.0000
vn -0.9997 0.0153 -0.0188
vn -1.0000 -0.0018 0.0069
vn -0.0517 -0.0773 0.9957
vn 0.5539 -0.0145 0.8324
vn 0.5554 -0.0099 0.8315
vn 0.5432 -0.3504 0.7630
vn 0.4877 -0.4589 0.7427
vn 0.0113 -0.3134 0.9496
vn 0.3933 -0.0286 0.9190
vn 0.4209 -0.3408 0.8407
vn 0.0730 -0.1933 0.9784
vn 0.0149 -0.1879 0.9821
vn 0.1969 -0.0273 0.9800
vn 0.1900 0.0213 0.9816
vn 0.3708 -0.0038 0.9287
vn 0.3043 -0.1841 0.9346
vn 0.3933 -0.1646 0.9046
vn 0.5444 -0.1798 0.8193
vn 0.4395 -0.3387 0.8320
vn 0.5464 -0.1811 0.8177
vn 0.1920 -0.1812 0.9645
vn 0.5441 -0.1799 0.8195
vn 0.2742 -0.5021 0.8202
vn 0.1715 -0.4471 0.8779
vn 0.1707 -0.4505 0.8763
vn 0.1920 -0.1813 0.9645
s 0
f 1//1 2//1 6//1
f 1//2 6//2 11//2
f 1//1 11//1 13//1
f 1//3 13//3 3//3
f 1//4 3//4 15//4
f 1//5 15//5 23//5
f 1//6 23//6 7//6
f 1//7 7//7 4//7
f 1//8 4//8 5//8
f 1//9 5//9 2//9
f 2//10 5//10 8//10
f 2//11 8//11 21//11
f 2//12 21//12 9//12
f 2//13 9//13 6//13
f 4//14 7//14 16//14
f 4//15 16//15 10//15
f 4//16 10//16 8//16
f 4//17 8//17 5//17
f 8//18 10//18 17//18
f 6//19 9//19 11//19
f 9//20 12//20 11//20
f 3//21 13//21 14//21
f 3//22 14//22 15//22
f 7//23 20//23 16//23
f 12//24 9//24 18//24
f 14//25 19//25 15//25
f 16//26 20//26 17//26
f 16//27 17//27 10//27
f 17//28 18//28 21//28
f 17//29 21//29 8//29
f 9//30 21//30 18//30
f 18//31 22//31 19//31
f 18//32 19//32 12//32
f 19//33 14//33 12//33
f 19//34 22//34 15//34
f 13//35 11//35 14//35
f 17//36 20//36 18//36
f 11//37 12//37 14//37
f 22//38 23//38 15//38
f 7//39 23//39 20//39
f 20//40 23//40 22//40
f 18//41 20//41 22//41
