# Blender 4.1.1
# www.blender.org
o wine_glass_collision.004
v -0.046995 0.140666 -0.001025
v -0.046995 0.140666 0.000008
v -0.044452 0.140666 -0.013852
v -0.046461 0.151958 -0.001256
v -0.041359 0.140665 0.000008
v -0.046554 0.150997 0.000008
v -0.043961 0.151959 -0.013851
v -0.038790 0.140665 -0.013852
v -0.021469 0.197046 -0.013852
v -0.025659 0.198252 0.000008
v -0.046043 0.154590 -0.000001
v -0.021456 0.198846 -0.013852
v -0.041208 0.173793 -0.001189
v -0.026223 0.199664 0.000008
v -0.041506 0.172830 0.000008
v -0.022056 0.199939 -0.013852
v -0.023503 0.200754 -0.013853
v -0.027223 0.200597 0.000008
v -0.032130 0.198080 0.000005
v -0.038700 0.173736 -0.013851
v -0.033979 0.186074 -0.013852
v -0.029711 0.198451 -0.011447
v -0.024895 0.201008 -0.013851
v -0.029125 0.201137 0.000003
v -0.026995 0.201105 -0.010994
v -0.026717 0.200655 -0.013854
v -0.030578 0.200573 0.000008
v -0.030565 0.200553 -0.001636
v -0.030039 0.200122 -0.006469
v -0.028318 0.200427 -0.012456
v -0.027888 0.199755 -0.013851
vn -0.9800 0.0424 -0.1945
vn -0.9800 0.0426 -0.1943
vn -0.0001 -1.0000 -0.0000
vn -0.0001 -1.0000 0.0002
vn -0.0000 -0.0000 1.0000
vn -0.0003 0.0001 1.0000
vn -0.0024 0.0008 1.0000
vn 0.0038 -0.0010 1.0000
vn -0.0033 0.0009 1.0000
vn 0.0006 -0.0001 1.0000
vn -0.0063 0.0011 1.0000
vn 0.0249 -0.0011 0.9997
vn -0.9991 0.0426 0.0006
vn -0.9982 0.0465 -0.0383
vn -0.0002 -0.0000 -1.0000
vn -0.0002 0.0001 -1.0000
vn 0.0003 -0.0001 -1.0000
vn -0.0035 0.0010 -1.0000
vn 0.0021 -0.0007 -1.0000
vn -0.0014 0.0005 -1.0000
vn 0.0005 -0.0002 -1.0000
vn -0.0000 -0.0000 -1.0000
vn 0.9412 -0.2892 0.1745
vn 0.9203 -0.2509 0.3001
vn -0.9895 0.1408 0.0340
vn 0.9570 -0.0066 0.2899
vn -0.9693 0.2411 -0.0472
vn -0.9587 0.2311 -0.1658
vn 0.8901 0.3555 0.2852
vn -0.9545 0.2302 -0.1894
vn -0.9543 0.2305 -0.1901
vn 0.8458 0.4638 0.2635
vn 0.4859 0.8627 0.1402
vn 0.6665 0.7139 0.2146
vn -0.9364 0.3477 0.0468
vn -0.9178 0.3521 -0.1834
vn -0.9181 0.3517 -0.1826
vn 0.1791 0.9828 0.0456
vn 0.2716 0.9588 0.0838
vn -0.9189 0.3516 -0.1787
vn -0.1869 0.9675 -0.1701
vn 0.0571 0.9983 0.0082
vn -0.3618 0.9322 -0.0142
vn -0.8487 0.5287 -0.0132
vn -0.8754 0.4637 -0.1365
vn -0.9146 0.3612 -0.1816
vn -0.8282 0.3678 -0.4229
vn -0.8245 0.3671 -0.4306
vn -0.2881 0.9413 -0.1759
vn -0.3857 0.9194 -0.0774
vn -0.3016 0.9506 -0.0737
vn -0.6111 0.7798 -0.1360
vn -0.8467 0.4851 -0.2187
vn -0.5305 0.6884 -0.4947
s 0
f 1//1 4//1 7//1
f 1//2 7//2 3//2
f 1//3 3//3 8//3
f 1//3 8//3 5//3
f 1//4 5//4 2//4
f 2//5 5//5 10//5
f 2//6 10//6 14//6
f 2//5 14//5 18//5
f 2//7 18//7 24//7
f 2//8 24//8 27//8
f 2//9 27//9 19//9
f 2//10 19//10 15//10
f 2//11 15//11 11//11
f 2//12 11//12 6//12
f 1//13 2//13 6//13
f 1//14 6//14 4//14
f 3//15 7//15 20//15
f 3//16 20//16 21//16
f 3//17 21//17 31//17
f 3//18 31//18 26//18
f 3//19 26//19 23//19
f 3//20 23//20 17//20
f 3//21 17//21 16//21
f 3//22 16//22 12//22
f 3//22 12//22 9//22
f 3//22 9//22 8//22
f 5//23 8//23 9//23
f 5//24 9//24 10//24
f 4//25 6//25 11//25
f 9//26 12//26 10//26
f 11//27 15//27 13//27
f 11//28 13//28 4//28
f 12//29 14//29 10//29
f 4//30 13//30 7//30
f 7//31 13//31 20//31
f 12//32 16//32 14//32
f 16//33 17//33 18//33
f 16//34 18//34 14//34
f 13//35 15//35 19//35
f 13//36 19//36 20//36
f 20//37 19//37 22//37
f 17//38 23//38 24//38
f 17//39 24//39 18//39
f 20//40 22//40 21//40
f 23//41 26//41 25//41
f 23//42 25//42 24//42
f 24//43 28//43 27//43
f 19//44 27//44 28//44
f 19//45 28//45 29//45
f 19//46 29//46 22//46
f 21//47 22//47 30//47
f 21//48 30//48 31//48
f 25//49 26//49 30//49
f 25//50 30//50 24//50
f 28//51 24//51 30//51
f 28//52 30//52 29//52
f 22//53 29//53 30//53
f 30//54 26//54 31//54
