# Blender 4.1.1
# www.blender.org
o wine_glass_collision.015
v 0.021467 0.198835 0.013829
v 0.025658 0.198252 -0.000008
v 0.021485 0.197046 0.013829
v 0.026223 0.199666 -0.000008
v 0.041359 0.140665 -0.000008
v 0.038793 0.140665 0.013829
v 0.022062 0.199922 0.013829
v 0.046996 0.140667 -0.000008
v 0.044454 0.140666 0.013829
v 0.023469 0.200739 0.013830
v 0.027224 0.200597 -0.000008
v 0.046994 0.140666 0.001060
v 0.024896 0.201008 0.013828
v 0.029125 0.201137 -0.000003
v 0.046552 0.151011 -0.000008
v 0.043967 0.151986 0.013829
v 0.026996 0.201105 0.010994
v 0.026705 0.200665 0.013830
v 0.030577 0.200573 -0.000008
v 0.046557 0.150958 0.001040
v 0.028354 0.200462 0.012192
v 0.032140 0.198056 0.000004
v 0.030564 0.200553 0.001637
v 0.030039 0.200122 0.006469
v 0.027952 0.199721 0.013823
v 0.046050 0.154524 -0.000001
v 0.046298 0.152546 0.001440
v 0.029715 0.198395 0.011529
v 0.041697 0.172146 0.000774
v 0.033981 0.186085 0.013829
v 0.041228 0.173828 -0.000008
v 0.038667 0.173853 0.013829
v 0.041124 0.174072 0.001126
vn -0.9571 -0.0093 -0.2895
vn -0.0000 -0.0000 1.0000
vn 0.0001 -0.0000 1.0000
vn -0.0001 -0.0001 1.0000
vn 0.0009 0.0009 1.0000
vn 0.0018 -0.0058 1.0000
vn -0.0008 0.0019 1.0000
vn 0.0021 -0.0027 1.0000
vn -0.0011 0.0006 1.0000
vn -0.8901 0.3561 -0.2846
vn -0.0001 0.0001 -1.0000
vn 0.0032 -0.0021 -1.0000
vn -0.0019 0.0040 -1.0000
vn 0.0016 -0.0035 -1.0000
vn 0.0018 0.0011 -1.0000
vn -0.0009 -0.0006 -1.0000
vn 0.0065 0.0029 -1.0000
vn -0.0000 -0.0000 -1.0000
vn -0.9205 -0.2510 -0.2995
vn -0.9413 -0.2890 -0.1745
vn -0.8464 0.4630 -0.2631
vn 0.0003 -1.0000 -0.0008
vn 0.0002 -1.0000 -0.0000
vn 0.0001 -1.0000 -0.0000
vn -0.4968 0.8559 -0.1435
vn -0.6657 0.7151 -0.2134
vn -0.1853 0.9815 -0.0475
vn -0.2718 0.9587 -0.0836
vn 0.9991 0.0428 -0.0023
vn 0.9991 0.0424 0.0016
vn 0.9799 0.0422 0.1950
vn 0.1837 0.9683 0.1692
vn -0.0570 0.9983 -0.0082
vn 0.3619 0.9321 0.0142
vn 0.2898 0.9408 0.1758
vn 0.3717 0.9254 0.0746
vn 0.8495 0.5274 0.0131
vn 0.9799 0.0420 0.1951
vn 0.3037 0.9501 0.0717
vn 0.6196 0.7730 0.1363
vn 0.5388 0.7089 0.4552
vn 0.9899 0.1414 0.0028
vn 0.9877 0.1515 0.0383
vn 0.9757 0.1117 0.1886
vn 0.8214 0.4149 0.3914
vn 0.8458 0.4860 0.2200
vn 0.9146 0.3612 0.1818
vn 0.8757 0.4632 0.1365
vn 0.9611 0.2308 0.1517
vn 0.9362 0.3512 0.0105
vn 0.9684 0.2419 -0.0605
vn 0.9543 0.2305 0.1900
vn 0.8280 0.3663 0.4246
vn 0.9186 0.3519 0.1799
vn 0.9180 0.3520 0.1828
vn 0.9177 0.3523 0.1836
vn 0.9595 0.2805 0.0279
vn 0.9539 0.2312 0.1912
vn 0.9502 0.2485 0.1881
s 0
f 1//1 2//1 3//1
f 1//2 3//2 6//2
f 1//2 6//2 9//2
f 1//3 9//3 16//3
f 1//3 16//3 32//3
f 1//4 32//4 30//4
f 1//5 30//5 25//5
f 1//6 25//6 18//6
f 1//7 18//7 13//7
f 1//8 13//8 10//8
f 1//9 10//9 7//9
f 1//10 4//10 2//10
f 2//11 4//11 11//11
f 2//12 11//12 14//12
f 2//13 14//13 19//13
f 2//14 19//14 22//14
f 2//15 22//15 31//15
f 2//16 31//16 26//16
f 2//17 26//17 15//17
f 2//18 15//18 8//18
f 2//18 8//18 5//18
f 2//19 5//19 3//19
f 3//20 5//20 6//20
f 1//21 7//21 4//21
f 5//22 8//22 12//22
f 5//23 12//23 9//23
f 5//24 9//24 6//24
f 7//25 10//25 11//25
f 7//26 11//26 4//26
f 10//27 13//27 14//27
f 10//28 14//28 11//28
f 8//29 15//29 20//29
f 8//30 20//30 12//30
f 9//31 12//31 16//31
f 13//32 18//32 17//32
f 13//33 17//33 14//33
f 14//34 23//34 19//34
f 17//35 18//35 21//35
f 17//36 21//36 14//36
f 19//37 23//37 22//37
f 12//38 20//38 16//38
f 14//39 21//39 23//39
f 21//40 24//40 23//40
f 18//41 25//41 21//41
f 20//42 15//42 26//42
f 20//43 26//43 27//43
f 20//44 27//44 16//44
f 21//45 25//45 28//45
f 21//46 28//46 24//46
f 24//47 28//47 22//47
f 24//48 22//48 23//48
f 26//49 29//49 27//49
f 22//50 33//50 31//50
f 29//51 26//51 31//51
f 27//52 29//52 16//52
f 25//53 30//53 28//53
f 30//54 32//54 28//54
f 22//55 28//55 32//55
f 22//56 32//56 33//56
f 33//57 29//57 31//57
f 16//58 29//58 32//58
f 32//59 29//59 33//59
