# Blender 4.1.1
# www.blender.org
o mug_collision.016
v 0.061214 0.016717 0.006993
v 0.061214 0.015415 0.006855
v 0.061214 0.017617 0.006621
v 0.046947 0.023598 0.008125
v 0.046947 0.023191 0.008136
v 0.046947 0.021896 0.008127
v 0.046947 0.019305 0.008002
v 0.046947 0.017997 0.007776
v 0.059929 0.015421 0.006865
v 0.058634 0.014715 0.006511
v 0.059929 0.014730 0.006503
v 0.061214 0.014752 0.006481
v 0.061214 0.018258 0.006254
v 0.061214 0.019084 0.005609
v 0.061214 0.019091 0.005603
v 0.047578 0.023598 0.007737
v 0.046947 0.023598 -0.008061
v 0.046947 0.017797 0.007710
v 0.058634 0.015421 0.006863
v 0.057338 0.014723 0.006505
v 0.054736 0.014249 0.006194
v 0.056043 0.014097 0.006107
v 0.057338 0.014075 0.006078
v 0.058634 0.014066 0.006048
v 0.059929 0.014083 0.006017
v 0.061214 0.014110 0.005985
v 0.061214 0.019707 0.004533
v 0.049085 0.023598 0.006605
v 0.047319 0.023598 -0.007831
v 0.061214 0.019092 -0.005613
v 0.061214 0.018289 -0.006260
v 0.061214 0.017643 -0.006634
v 0.061214 0.016717 -0.006999
v 0.046947 0.023191 -0.008052
v 0.046947 0.017726 0.007681
v 0.057338 0.015421 0.006846
v 0.056043 0.014746 0.006491
v 0.053454 0.014126 0.006012
v 0.054749 0.013227 0.005479
v 0.055161 0.014763 0.006481
v 0.054296 0.014782 0.006472
v 0.046947 0.016675 0.007222
v 0.046947 0.015773 0.006662
v 0.056043 0.013254 0.005460
v 0.057338 0.013281 0.005431
v 0.058634 0.013309 0.005401
v 0.059929 0.013336 0.005370
v 0.061214 0.013364 0.005336
v 0.061214 0.019921 0.003768
v 0.050358 0.023598 0.005327
v 0.049712 0.023598 0.005991
v 0.047521 0.023598 -0.007703
v 0.061214 0.019098 -0.005602
v 0.048041 0.023598 -0.007356
v 0.061214 0.015477 -0.006842
v 0.046947 0.017883 -0.007771
v 0.046947 0.019305 -0.007938
v 0.056043 0.015421 0.006819
v 0.053454 0.013278 0.005416
v 0.054749 0.012821 0.004533
v 0.046947 0.015104 0.006159
v 0.061214 0.013362 0.005330
v 0.061214 0.020086 0.003115
v 0.061214 0.020374 0.001956
v 0.061214 0.020377 0.001942
v 0.061214 0.020660 0.000658
v 0.061214 0.020662 0.000646
v 0.050714 0.023598 0.004469
v 0.061214 0.019710 -0.004532
v 0.048897 0.023598 -0.006729
v 0.061214 0.015466 -0.006840
v 0.046947 0.016717 -0.007240
v 0.054749 0.015453 -0.006787
v 0.046947 0.014512 0.005533
v 0.046947 0.013962 0.004490
v 0.053454 0.012919 0.004533
v 0.053454 0.012600 0.003237
v 0.053388 0.012350 0.002184
v 0.053726 0.012350 0.002278
v 0.054749 0.012513 0.003237
v 0.060600 0.012350 0.001550
v 0.061214 0.012469 0.001942
v 0.061214 0.013094 0.004533
v 0.051464 0.023598 0.000648
v 0.050983 0.023598 0.003259
v 0.050820 0.023598 0.004043
v 0.061214 0.020661 -0.000647
v 0.051464 0.023598 -0.000649
v 0.061214 0.019923 -0.003766
v 0.049078 0.023598 -0.006596
v 0.049455 0.023598 -0.006268
v 0.050180 0.023598 -0.005542
v 0.050358 0.023598 -0.005326
v 0.061214 0.014824 -0.006449
v 0.054749 0.014126 -0.006102
v 0.054749 0.014805 -0.006458
v 0.046947 0.015773 -0.006663
v 0.046947 0.013948 0.004455
v 0.046947 0.013505 0.003237
v 0.046947 0.013021 0.001828
v 0.046947 0.012706 0.000648
v 0.053158 0.012350 0.001947
v 0.054749 0.012350 0.002552
v 0.061214 0.012350 0.001444
v 0.061214 0.020376 -0.001943
v 0.050578 0.023598 -0.004900
v 0.050714 0.023598 -0.004468
v 0.050983 0.023598 -0.003259
v 0.061214 0.020088 -0.003107
v 0.061214 0.014126 -0.005949
v 0.054749 0.013226 -0.005469
v 0.053454 0.013278 -0.005413
v 0.053454 0.014126 -0.006008
v 0.046947 0.015145 -0.006189
v 0.052059 0.012350 0.000738
v 0.052137 0.012350 0.000848
v 0.046947 0.012725 -0.000679
v 0.052062 0.012350 -0.000738
v 0.061214 0.012350 -0.001404
v 0.061214 0.013364 -0.005333
v 0.059929 0.013336 -0.005363
v 0.058634 0.013309 -0.005391
v 0.057338 0.013281 -0.005420
v 0.056043 0.013254 -0.005445
v 0.054749 0.012820 -0.004532
v 0.053454 0.012919 -0.004532
v 0.052550 0.013388 -0.005291
v 0.046947 0.014536 -0.005524
v 0.046947 0.013160 -0.001943
v 0.053454 0.012600 -0.003237
v 0.053388 0.012350 -0.002184
v 0.052619 0.012350 -0.001500
v 0.052137 0.012350 -0.000846
v 0.052092 0.012350 -0.000784
v 0.060406 0.012350 -0.001602
v 0.061214 0.012351 -0.001462
v 0.061214 0.013092 -0.004532
v 0.056043 0.012873 -0.004532
v 0.056043 0.012562 -0.003237
v 0.054749 0.012350 -0.002564
v 0.046947 0.014162 -0.004576
v 0.059929 0.012350 -0.001686
v 0.061214 0.012464 -0.001943
v 0.057338 0.012615 -0.003237
v 0.058424 0.012350 -0.001944
v 0.057338 0.012350 -0.002128
vn 1.0000 -0.0000 -0.0000
vn 1.0000 0.0006 -0.0000
vn 1.0000 -0.0001 -0.0000
vn 1.0000 0.0003 -0.0000
vn 1.0000 -0.0012 -0.0000
vn 1.0000 -0.0009 -0.0000
vn 1.0000 0.0001 -0.0000
vn 1.0000 -0.0005 -0.0000
vn 0.2495 0.3702 0.8948
vn 0.0921 0.0272 0.9954
vn 0.0766 -0.0073 0.9970
vn 0.0617 -0.0482 0.9969
vn 0.0511 -0.1053 0.9931
vn 0.0329 -0.1695 0.9850
vn 0.0057 -0.3078 0.9514
vn 0.0046 -0.4547 0.8906
vn 0.0110 -0.4733 0.8808
vn 0.0235 -0.4914 0.8706
vn 0.2870 0.4753 0.8317
vn 0.3166 0.5840 0.7474
vn 0.3273 0.6550 0.6810
vn 0.3385 0.7635 0.5500
vn -0.0000 1.0000 -0.0000
vn -1.0000 -0.0000 -0.0000
vn 0.0041 -0.3153 0.9490
vn -0.0012 -0.3407 0.9402
vn -0.0011 -0.4463 0.8949
vn -0.0073 -0.5205 0.8539
vn -0.0053 -0.5319 0.8468
vn 0.0084 -0.5719 0.8203
vn 0.0119 -0.5767 0.8169
vn -0.0070 -0.4463 0.8949
vn 0.0149 -0.5848 0.8110
vn 0.0241 -0.5967 0.8021
vn 0.0272 -0.6046 0.7961
vn 0.0326 -0.6113 0.7907
vn 0.3425 0.8141 0.4690
vn 0.3415 0.8226 0.4546
vn 0.3362 0.7693 -0.5433
vn 0.3149 0.5956 -0.7390
vn 0.2836 0.4805 -0.8299
vn 0.2389 0.3558 -0.9035
vn 0.0630 -0.0234 -0.9977
vn -0.0092 -0.3754 0.9268
vn -0.0124 -0.3896 0.9209
vn -0.0121 -0.4387 0.8985
vn -0.0182 -0.4768 0.8788
vn -0.0177 -0.4387 0.8985
vn -0.0612 -0.5728 0.8174
vn -0.0120 -0.5734 0.8192
vn -0.0190 -0.4753 0.8796
vn -0.0200 -0.4746 0.8800
vn -0.0356 -0.4845 0.8741
vn -0.0521 -0.5266 0.8485
vn -0.0620 -0.5685 0.8203
vn 0.0077 -0.5927 0.8054
vn 0.0144 -0.6060 0.7953
vn 0.0243 -0.6359 0.7714
vn 0.0270 -0.6411 0.7670
vn 0.0306 -0.6518 0.7578
vn 0.0315 -0.6536 0.7562
vn 0.0324 -0.6545 0.7554
vn 0.0327 -0.6545 0.7554
vn 0.0336 -0.6554 0.7545
vn 0.3427 0.9048 0.2529
vn 0.3398 0.8807 0.3300
vn 0.3397 0.8741 0.3472
vn 0.3369 0.7774 -0.5312
vn 0.3383 0.7933 -0.5062
vn 0.3401 0.8080 -0.4812
vn 0.0434 -0.1255 -0.9911
vn 0.0442 -0.1161 -0.9923
vn 0.0603 -0.0293 -0.9977
vn -0.0152 -0.4006 0.9161
vn -0.0188 -0.4269 0.9041
vn -0.0187 -0.4369 0.8993
vn -0.0184 -0.4377 0.8989
vn -0.0625 -0.5741 0.8164
vn -0.0638 -0.5740 0.8164
vn -0.0552 -0.9175 0.3939
vn 0.0245 -0.9186 0.3943
vn -0.0193 -0.4362 0.8996
vn -0.0201 -0.4346 0.9004
vn -0.0768 -0.5986 0.7973
vn 0.0282 -0.9204 0.3901
vn 0.0286 -0.9208 0.3890
vn 0.0291 -0.9215 0.3873
vn 0.0297 -0.9228 0.3841
vn 0.0385 -0.9441 0.3275
vn 0.3417 0.9111 0.2304
vn 0.3412 0.9124 0.2262
vn 0.3383 0.9167 0.2126
vn 0.3361 0.9198 0.2027
vn 0.3296 0.9261 0.1838
vn 0.3102 0.9419 0.1288
vn 0.3409 0.8164 -0.4662
vn 0.3409 0.8165 -0.4660
vn 0.0403 -0.1429 -0.9889
vn -0.0069 -0.3943 -0.9189
vn -0.0143 -0.4145 -0.9099
vn -0.1246 -0.7214 0.6812
vn -0.1574 -0.8734 0.4609
vn -0.1492 -0.9160 0.3723
vn -0.0700 -0.9241 0.3756
vn -0.0733 -0.9683 0.2387
vn -0.0689 -0.9697 0.2345
vn -0.0642 -0.9706 0.2320
vn -0.0621 -0.9710 0.2311
vn 0.0396 -0.9721 0.2314
vn 0.0401 -0.9718 0.2323
vn 0.0410 -0.9713 0.2345
vn 0.0400 -0.9473 0.3178
vn 0.2879 0.9562 0.0530
vn 0.2895 0.9553 0.0604
vn 0.2931 0.9533 0.0729
vn 0.2884 0.9575 -0.0008
vn 0.2883 0.9575 -0.0000
vn 0.3409 0.8172 -0.4647
vn 0.3405 0.8550 -0.3912
vn 0.3401 0.8770 -0.3395
vn 0.3417 0.8968 -0.2811
vn 0.3426 0.9049 -0.2524
vn 0.0104 -0.5208 -0.8536
vn -0.0048 -0.4649 -0.8854
vn -0.0065 -0.4521 -0.8919
vn -0.0214 -0.4520 -0.8917
vn -0.0252 -0.4647 -0.8851
vn -0.0487 -0.5211 -0.8521
vn -0.1505 -0.9245 0.3502
vn -0.1510 -0.9288 0.3385
vn -0.1481 -0.9355 0.3208
vn -0.1215 -0.9590 0.2560
vn -0.1105 -0.9650 0.2379
vn -0.1098 -0.9655 0.2361
vn -0.0717 -0.9950 0.0695
vn -0.0000 -1.0000 -0.0000
vn -0.0000 -1.0000 -0.0006
vn -0.0620 -0.9710 0.2310
vn 0.0396 -0.9721 0.2313
vn 0.0402 -0.9718 0.2322
vn 0.3361 0.9198 -0.2025
vn 0.3241 0.9310 -0.1677
vn 0.2998 0.9493 -0.0942
vn 0.2906 0.9547 -0.0647
vn 0.2880 0.9562 -0.0530
vn 0.3414 0.9118 -0.2283
vn 0.3411 0.9126 -0.2254
vn 0.0205 -0.5817 -0.8131
vn 0.0182 -0.5751 -0.8179
vn -0.0580 -0.5743 -0.8166
vn -0.0591 -0.5731 -0.8173
vn -0.0596 -0.5629 -0.8243
vn -0.0628 -0.5730 -0.8171
vn -0.0777 -0.6009 -0.7956
vn -0.0704 -0.9962 0.0504
vn -0.0710 -0.9953 0.0659
vn -0.0734 -0.9972 -0.0141
vn -0.0696 -0.9976 -0.0001
vn 0.0317 -0.6288 -0.7769
vn 0.0305 -0.6276 -0.7779
vn 0.0305 -0.6276 -0.7780
vn 0.0286 -0.6218 -0.7827
vn 0.0276 -0.6178 -0.7859
vn 0.0268 -0.9171 -0.3977
vn -0.0536 -0.9161 -0.3973
vn -0.0707 -0.9238 -0.3762
vn -0.1617 -0.9140 -0.3722
vn -0.1655 -0.8925 -0.4197
vn -0.1300 -0.7309 -0.6700
vn -0.1624 -0.9330 -0.3211
vn -0.1121 -0.9648 -0.2378
vn -0.1114 -0.9653 -0.2361
vn -0.0785 -0.9930 -0.0885
vn -0.0738 -0.9958 -0.0543
vn -0.0738 -0.9959 -0.0533
vn -0.0737 -0.9961 -0.0493
vn 0.0046 -0.9998 -0.0187
vn 0.0401 -0.9461 -0.3214
vn 0.0385 -0.9433 -0.3298
vn 0.0289 -0.9197 -0.3916
vn 0.0282 -0.9183 -0.3949
vn 0.0273 -0.9174 -0.3971
vn 0.0397 -0.9717 -0.2329
vn 0.0389 -0.9719 -0.2322
vn -0.0649 -0.9706 -0.2319
vn -0.0698 -0.9696 -0.2346
vn -0.0741 -0.9683 -0.2387
vn -0.1735 -0.9205 -0.3502
vn -0.1727 -0.9166 -0.3607
vn -0.1727 -0.9161 -0.3617
vn 0.0406 -0.9722 -0.2306
vn 0.0410 -0.9724 -0.2296
vn 0.0412 -0.9710 -0.2354
vn 0.0401 -0.9716 -0.2333
vn 0.0393 -0.9719 -0.2323
vn 0.0391 -0.9719 -0.2320
vn 0.0400 -0.9717 -0.2330
vn 0.0400 -0.9716 -0.2332
s 0
f 1//1 2//1 12//1
f 1//1 12//1 26//1
f 1//1 26//1 48//1
f 1//1 48//1 62//1
f 1//1 62//1 83//1
f 1//1 83//1 82//1
f 1//1 82//1 104//1
f 1//1 104//1 119//1
f 1//2 119//2 136//2
f 1//3 136//3 143//3
f 1//1 143//1 137//1
f 1//1 137//1 120//1
f 1//1 120//1 110//1
f 1//1 110//1 94//1
f 1//1 94//1 71//1
f 1//4 71//4 55//4
f 1//1 55//1 33//1
f 1//1 33//1 32//1
f 1//1 32//1 31//1
f 1//1 31//1 30//1
f 1//5 30//5 53//5
f 1//1 53//1 69//1
f 1//1 69//1 89//1
f 1//1 89//1 109//1
f 1//1 109//1 105//1
f 1//1 105//1 87//1
f 1//1 87//1 67//1
f 1//6 67//6 66//6
f 1//1 66//1 65//1
f 1//7 65//7 64//7
f 1//1 64//1 63//1
f 1//1 63//1 49//1
f 1//1 49//1 27//1
f 1//1 27//1 15//1
f 1//8 15//8 14//8
f 1//1 14//1 13//1
f 1//1 13//1 3//1
f 1//9 3//9 4//9
f 1//10 4//10 5//10
f 1//11 5//11 6//11
f 1//12 6//12 7//12
f 1//13 7//13 2//13
f 2//14 7//14 8//14
f 2//15 8//15 9//15
f 2//16 9//16 10//16
f 2//17 10//17 11//17
f 2//18 11//18 12//18
f 3//19 13//19 4//19
f 4//20 13//20 14//20
f 4//21 14//21 15//21
f 4//22 15//22 16//22
f 4//23 16//23 28//23
f 4//23 28//23 51//23
f 4//23 51//23 50//23
f 4//23 50//23 68//23
f 4//23 68//23 86//23
f 4//23 86//23 85//23
f 4//23 85//23 84//23
f 4//23 84//23 88//23
f 4//23 88//23 108//23
f 4//23 108//23 107//23
f 4//23 107//23 106//23
f 4//23 106//23 93//23
f 4//23 93//23 92//23
f 4//23 92//23 91//23
f 4//23 91//23 90//23
f 4//23 90//23 70//23
f 4//23 70//23 54//23
f 4//23 54//23 52//23
f 4//23 52//23 29//23
f 4//23 29//23 17//23
f 4//24 17//24 34//24
f 4//24 34//24 57//24
f 4//24 57//24 56//24
f 4//24 56//24 72//24
f 4//24 72//24 97//24
f 4//24 97//24 114//24
f 4//24 114//24 128//24
f 4//24 128//24 141//24
f 4//24 141//24 129//24
f 4//24 129//24 117//24
f 4//24 117//24 101//24
f 4//24 101//24 100//24
f 4//24 100//24 99//24
f 4//24 99//24 98//24
f 4//24 98//24 75//24
f 4//24 75//24 74//24
f 4//24 74//24 61//24
f 4//24 61//24 43//24
f 4//24 43//24 42//24
f 4//24 42//24 35//24
f 4//24 35//24 18//24
f 4//24 18//24 8//24
f 4//24 8//24 7//24
f 4//24 7//24 6//24
f 4//24 6//24 5//24
f 8//25 18//25 9//25
f 9//26 18//26 19//26
f 9//27 19//27 10//27
f 10//28 20//28 21//28
f 10//29 21//29 22//29
f 10//30 22//30 23//30
f 10//31 23//31 11//31
f 10//32 19//32 20//32
f 11//33 23//33 24//33
f 11//34 24//34 12//34
f 12//35 24//35 25//35
f 12//36 25//36 26//36
f 15//37 27//37 16//37
f 16//38 27//38 28//38
f 17//39 29//39 30//39
f 17//40 30//40 31//40
f 17//41 31//41 32//41
f 17//42 32//42 33//42
f 17//43 33//43 34//43
f 18//44 35//44 19//44
f 19//45 35//45 36//45
f 19//46 36//46 20//46
f 20//47 37//47 21//47
f 20//48 36//48 37//48
f 21//49 38//49 39//49
f 21//50 39//50 22//50
f 21//51 37//51 40//51
f 21//52 40//52 41//52
f 21//53 41//53 42//53
f 21//54 42//54 43//54
f 21//55 43//55 38//55
f 22//56 39//56 23//56
f 23//57 39//57 24//57
f 24//58 39//58 44//58
f 24//59 44//59 25//59
f 25//60 44//60 45//60
f 25//61 45//61 46//61
f 25//62 46//62 47//62
f 25//63 47//63 26//63
f 26//64 47//64 48//64
f 27//65 49//65 50//65
f 27//66 50//66 51//66
f 27//67 51//67 28//67
f 29//68 52//68 30//68
f 30//69 52//69 54//69
f 30//70 54//70 53//70
f 33//71 55//71 56//71
f 33//72 56//72 57//72
f 33//73 57//73 34//73
f 35//74 42//74 36//74
f 36//75 42//75 58//75
f 36//76 58//76 40//76
f 36//77 40//77 37//77
f 38//78 59//78 39//78
f 38//79 43//79 59//79
f 39//80 59//80 60//80
f 39//81 60//81 44//81
f 40//82 58//82 41//82
f 41//83 58//83 42//83
f 43//84 61//84 59//84
f 44//85 60//85 45//85
f 45//86 60//86 46//86
f 46//87 60//87 47//87
f 47//88 60//88 48//88
f 48//89 60//89 62//89
f 49//90 63//90 50//90
f 50//91 63//91 64//91
f 50//92 64//92 65//92
f 50//93 65//93 66//93
f 50//94 66//94 67//94
f 50//95 67//95 68//95
f 53//96 54//96 69//96
f 54//97 70//97 69//97
f 55//98 71//98 56//98
f 56//99 71//99 73//99
f 56//100 73//100 72//100
f 59//101 61//101 74//101
f 59//102 74//102 75//102
f 59//103 75//103 76//103
f 59//104 76//104 60//104
f 60//105 76//105 77//105
f 60//106 77//106 78//106
f 60//107 78//107 79//107
f 60//108 79//108 80//108
f 60//109 80//109 81//109
f 60//110 81//110 82//110
f 60//111 82//111 83//111
f 60//112 83//112 62//112
f 67//113 84//113 85//113
f 67//114 85//114 86//114
f 67//115 86//115 68//115
f 67//116 87//116 88//116
f 67//117 88//117 84//117
f 69//118 70//118 90//118
f 69//119 90//119 91//119
f 69//120 91//120 92//120
f 69//121 92//121 93//121
f 69//122 93//122 89//122
f 71//123 94//123 95//123
f 71//124 95//124 96//124
f 71//125 96//125 73//125
f 72//126 73//126 96//126
f 72//127 96//127 95//127
f 72//128 95//128 97//128
f 75//129 98//129 76//129
f 76//130 98//130 99//130
f 76//131 99//131 100//131
f 76//132 100//132 101//132
f 76//133 101//133 77//133
f 77//134 101//134 78//134
f 78//135 101//135 102//135
f 78//136 102//136 116//136
f 78//136 116//136 115//136
f 78//136 115//136 118//136
f 78//136 118//136 134//136
f 78//136 134//136 133//136
f 78//136 133//136 132//136
f 78//136 132//136 131//136
f 78//136 131//136 140//136
f 78//136 140//136 146//136
f 78//136 146//136 145//136
f 78//136 145//136 142//136
f 78//136 142//136 135//136
f 78//136 135//136 119//136
f 78//136 119//136 104//136
f 78//136 104//136 81//136
f 78//136 81//136 103//136
f 78//137 103//137 79//137
f 79//138 103//138 80//138
f 80//139 103//139 81//139
f 81//140 104//140 82//140
f 87//141 105//141 93//141
f 87//142 93//142 106//142
f 87//143 106//143 107//143
f 87//144 107//144 108//144
f 87//145 108//145 88//145
f 89//146 93//146 109//146
f 93//147 105//147 109//147
f 94//148 110//148 111//148
f 94//149 111//149 95//149
f 95//150 111//150 112//150
f 95//151 112//151 113//151
f 95//152 113//152 97//152
f 97//153 113//153 112//153
f 97//154 112//154 114//154
f 101//155 115//155 116//155
f 101//156 116//156 102//156
f 101//157 117//157 118//157
f 101//158 118//158 115//158
f 110//159 120//159 121//159
f 110//160 121//160 122//160
f 110//161 122//161 123//161
f 110//162 123//162 124//162
f 110//163 124//163 111//163
f 111//164 124//164 125//164
f 111//165 125//165 112//165
f 112//166 125//166 126//166
f 112//167 126//167 127//167
f 112//168 127//168 128//168
f 112//169 128//169 114//169
f 117//170 129//170 126//170
f 117//171 126//171 130//171
f 117//172 130//172 131//172
f 117//173 131//173 132//173
f 117//174 132//174 133//174
f 117//175 133//175 134//175
f 117//176 134//176 118//176
f 119//177 135//177 136//177
f 120//178 137//178 138//178
f 120//179 138//179 125//179
f 120//180 125//180 121//180
f 121//181 125//181 122//181
f 122//181 125//181 123//181
f 123//182 125//182 124//182
f 125//183 138//183 144//183
f 125//183 144//183 139//183
f 125//184 139//184 140//184
f 125//185 140//185 131//185
f 125//186 131//186 130//186
f 125//187 130//187 126//187
f 126//188 129//188 141//188
f 126//189 141//189 127//189
f 127//190 141//190 128//190
f 135//191 142//191 143//191
f 135//192 143//192 136//192
f 137//193 143//193 138//193
f 138//194 143//194 144//194
f 139//183 144//183 145//183
f 139//195 145//195 146//195
f 139//196 146//196 140//196
f 142//197 145//197 143//197
f 143//198 145//198 144//198
