# Blender 4.1.1
# www.blender.org
o mug_collision.003
v -0.006865 0.012401 -0.045688
v -0.006126 0.012401 -0.045862
v -0.006865 0.012401 -0.036634
v -0.006865 0.101640 -0.045688
v -0.005697 0.012401 -0.045911
v -0.006126 0.100903 -0.045863
v 0.007027 0.012401 -0.036574
v -0.006865 0.102195 -0.037361
v -0.006865 0.102195 -0.045687
v -0.006126 0.102195 -0.045862
v -0.004830 0.012401 -0.046009
v -0.004830 0.100903 -0.046009
v 0.007027 0.012401 -0.045654
v 0.007027 0.102195 -0.037321
v -0.006865 0.102705 -0.037401
v -0.006865 0.102732 -0.045623
v -0.006865 0.103323 -0.045504
v -0.006155 0.103560 -0.045580
v -0.004830 0.103487 -0.045761
v -0.004830 0.102195 -0.046007
v 0.004236 0.012401 -0.046009
v 0.004236 0.100903 -0.046009
v 0.006825 0.012401 -0.045704
v 0.007027 0.101949 -0.045654
v 0.007027 0.103151 -0.037447
v -0.006865 0.103096 -0.037464
v -0.006865 0.103961 -0.045250
v -0.006606 0.104042 -0.045282
v -0.005742 0.104224 -0.045394
v -0.004830 0.104261 -0.045425
v -0.003535 0.103487 -0.045762
v 0.004236 0.102195 -0.046007
v 0.005530 0.012401 -0.045936
v 0.005530 0.102195 -0.045935
v 0.005530 0.100903 -0.045936
v 0.006825 0.100903 -0.045704
v 0.006825 0.102195 -0.045703
v 0.007027 0.102195 -0.045653
v 0.007027 0.103296 -0.037505
v -0.006865 0.103724 -0.037719
v -0.006865 0.104206 -0.045045
v -0.006865 0.104570 -0.044643
v -0.006155 0.104579 -0.044785
v -0.004830 0.104789 -0.044684
v -0.003535 0.104261 -0.045426
v 0.004236 0.103487 -0.045762
v 0.005530 0.103487 -0.045686
v 0.007027 0.103342 -0.045461
v 0.007027 0.103797 -0.037710
v -0.006865 0.104170 -0.038007
v -0.006865 0.104916 -0.044002
v 0.004236 0.104789 -0.044684
v -0.006865 0.105207 -0.043389
v -0.006126 0.105244 -0.043389
v -0.004830 0.105280 -0.043389
v 0.004236 0.104261 -0.045426
v 0.005530 0.104206 -0.045385
v 0.006213 0.104152 -0.045341
v 0.006717 0.103478 -0.045486
v 0.007027 0.103906 -0.045230
v 0.007027 0.104552 -0.038342
v -0.006865 0.104552 -0.038376
v 0.004236 0.105280 -0.043389
v 0.005530 0.105262 -0.043389
v 0.006825 0.105207 -0.043389
v 0.007027 0.105198 -0.043389
v 0.005530 0.104716 -0.044684
v -0.006865 0.105317 -0.042650
v -0.006865 0.105371 -0.042094
v -0.006126 0.105380 -0.042094
v 0.006717 0.104507 -0.044749
v 0.007027 0.104507 -0.044682
v 0.007027 0.105180 -0.039504
v -0.006865 0.104807 -0.038821
v 0.006825 0.105380 -0.042094
v 0.007027 0.105371 -0.042094
v -0.006865 0.105380 -0.041355
v -0.006865 0.105271 -0.040060
v -0.006865 0.105162 -0.039504
v 0.007027 0.105371 -0.040800
v -0.006865 0.105371 -0.040800
vn -0.0000 -1.0000 -0.0000
vn -1.0000 -0.0000 -0.0000
vn -0.2297 -0.0000 -0.9733
vn -0.1135 -0.0000 -0.9935
vn -0.0043 0.0081 1.0000
vn -0.2297 0.0016 -0.9733
vn -0.2290 0.0007 -0.9734
vn -0.1126 -0.0000 -0.9936
vn -0.1121 -0.0000 -0.9937
vn -0.1126 0.0007 -0.9936
vn 1.0000 -0.0000 -0.0000
vn -0.0029 0.0083 1.0000
vn -0.0029 0.0777 0.9970
vn -0.2282 0.1148 -0.9668
vn -0.1700 0.1946 -0.9661
vn -0.1683 0.1957 -0.9661
vn -0.1219 0.1980 -0.9726
vn -0.1093 0.1856 -0.9765
vn -0.1112 0.0021 -0.9938
vn -0.0000 -0.0000 -1.0000
vn -0.0000 0.0021 -1.0000
vn 0.2390 -0.0000 -0.9710
vn 0.2391 -0.0000 -0.9710
vn -0.0009 0.1303 0.9915
vn -0.0018 0.1585 0.9874
vn -0.2264 0.3607 -0.9048
vn -0.2163 0.3582 -0.9083
vn -0.1963 0.3753 -0.9059
vn -0.1099 0.3303 -0.9375
vn -0.0465 0.3982 -0.9161
vn -0.0007 0.3986 -0.9171
vn -0.0006 0.3986 -0.9171
vn -0.0007 0.1868 -0.9824
vn -0.0000 0.1861 -0.9825
vn 0.0563 -0.0000 -0.9984
vn 0.0556 0.0021 -0.9985
vn 0.0563 0.0014 -0.9984
vn 0.1769 -0.0000 -0.9842
vn 0.1770 -0.0000 -0.9842
vn 0.2357 0.0007 -0.9718
vn 0.2390 0.0036 -0.9710
vn -0.0026 0.3711 0.9286
vn -0.0026 0.3761 0.9266
vn -0.2853 0.6140 -0.7359
vn -0.2319 0.6633 -0.7115
vn -0.2155 0.7236 -0.6557
vn -0.1220 0.8195 -0.5599
vn -0.0900 0.8329 -0.5460
vn -0.0518 0.8133 -0.5795
vn -0.0004 0.8144 -0.5803
vn -0.0000 0.3986 -0.9171
vn 0.0546 0.1858 -0.9811
vn 0.0574 0.1885 -0.9804
vn 0.1639 0.1862 -0.9687
vn 0.1736 0.1739 -0.9693
vn 0.1763 0.0014 -0.9843
vn 0.1769 0.0007 -0.9842
vn 0.2359 0.1606 -0.9584
vn -0.0025 0.3791 0.9254
vn -0.0033 0.5427 0.8399
vn -0.1052 0.8752 -0.4722
vn -0.1027 0.8765 -0.4704
vn -0.0000 0.8147 -0.5798
vn -0.0868 0.8999 -0.4273
vn -0.0456 0.9273 -0.3715
vn -0.0263 0.9346 -0.3547
vn -0.0000 0.9349 -0.3548
vn 0.0455 0.3982 -0.9162
vn 0.0539 0.3857 -0.9210
vn 0.0905 0.3847 -0.9186
vn 0.1601 0.3209 -0.9335
vn 0.1647 0.1975 -0.9664
vn 0.2345 0.3682 -0.8997
vn 0.0009 0.6416 0.7671
vn -0.0018 0.6950 0.7190
vn 0.0131 0.9349 -0.3548
vn 0.0390 0.9253 -0.3772
vn 0.0414 0.9235 -0.3815
vn 0.0515 0.9149 -0.4003
vn 0.0458 0.8139 -0.5792
vn -0.0486 0.9881 -0.1461
vn -0.0279 0.9917 -0.1256
vn -0.0177 0.9951 -0.0977
vn -0.0122 0.9959 -0.0892
vn -0.0000 0.9970 -0.0771
vn 0.0525 0.8077 -0.5872
vn 0.1023 0.8046 -0.5849
vn 0.1109 0.8079 -0.5788
vn 0.1258 0.7999 -0.5868
vn 0.2907 0.6447 -0.7070
vn 0.2337 0.3687 -0.8997
vn -0.0003 0.8797 0.4755
vn -0.0012 0.8679 0.4968
vn 0.0140 0.9944 -0.1048
vn 0.0418 0.9903 -0.1323
vn 0.0445 0.9902 -0.1322
vn 0.0444 0.9902 -0.1322
vn 0.1229 0.8751 -0.4681
vn 0.1168 0.8306 -0.5446
vn -0.0123 0.9998 -0.0123
vn -0.0000 1.0000 -0.0000
vn -0.0013 0.9812 0.1928
vn -0.0012 0.8872 0.4614
vn 0.0006 0.9893 0.1459
vn 0.0449 0.9990 -0.0000
vn 0.0004 1.0000 0.0070
vn -0.0000 0.9999 0.0164
vn -0.0000 0.9910 0.1341
s 0
f 1//1 2//1 5//1
f 1//1 5//1 11//1
f 1//1 11//1 21//1
f 1//1 21//1 33//1
f 1//1 33//1 23//1
f 1//1 23//1 13//1
f 1//1 13//1 7//1
f 1//1 7//1 3//1
f 1//2 3//2 8//2
f 1//2 8//2 15//2
f 1//2 15//2 26//2
f 1//2 26//2 40//2
f 1//2 40//2 50//2
f 1//2 50//2 62//2
f 1//2 62//2 74//2
f 1//2 74//2 79//2
f 1//2 79//2 78//2
f 1//2 78//2 81//2
f 1//2 81//2 77//2
f 1//2 77//2 69//2
f 1//2 69//2 68//2
f 1//2 68//2 53//2
f 1//2 53//2 51//2
f 1//2 51//2 42//2
f 1//2 42//2 41//2
f 1//2 41//2 27//2
f 1//2 27//2 17//2
f 1//2 17//2 16//2
f 1//2 16//2 9//2
f 1//2 9//2 4//2
f 1//3 4//3 6//3
f 1//3 6//3 2//3
f 2//4 6//4 5//4
f 3//5 7//5 8//5
f 4//6 9//6 10//6
f 4//7 10//7 6//7
f 5//8 6//8 12//8
f 5//9 12//9 11//9
f 6//10 10//10 12//10
f 7//11 13//11 24//11
f 7//11 24//11 38//11
f 7//11 38//11 48//11
f 7//11 48//11 60//11
f 7//11 60//11 72//11
f 7//11 72//11 66//11
f 7//11 66//11 76//11
f 7//11 76//11 80//11
f 7//11 80//11 73//11
f 7//11 73//11 61//11
f 7//11 61//11 49//11
f 7//11 49//11 39//11
f 7//11 39//11 25//11
f 7//11 25//11 14//11
f 7//12 14//12 8//12
f 8//13 14//13 15//13
f 9//14 16//14 10//14
f 10//15 16//15 17//15
f 10//16 17//16 18//16
f 10//17 18//17 19//17
f 10//18 19//18 20//18
f 10//19 20//19 12//19
f 11//20 12//20 22//20
f 11//20 22//20 21//20
f 12//21 20//21 32//21
f 12//21 32//21 22//21
f 13//22 23//22 36//22
f 13//23 36//23 24//23
f 14//24 25//24 15//24
f 15//25 25//25 26//25
f 17//26 27//26 28//26
f 17//27 28//27 18//27
f 18//28 28//28 29//28
f 18//29 29//29 19//29
f 19//30 29//30 30//30
f 19//31 30//31 45//31
f 19//32 45//32 31//32
f 19//33 31//33 20//33
f 20//34 31//34 46//34
f 20//34 46//34 32//34
f 21//35 22//35 35//35
f 21//35 35//35 33//35
f 22//36 32//36 34//36
f 22//37 34//37 35//37
f 23//38 33//38 35//38
f 23//39 35//39 36//39
f 24//40 36//40 37//40
f 24//41 37//41 38//41
f 25//42 39//42 26//42
f 26//43 39//43 40//43
f 27//44 41//44 28//44
f 28//45 41//45 29//45
f 29//46 41//46 42//46
f 29//47 42//47 43//47
f 29//48 43//48 44//48
f 29//49 44//49 30//49
f 30//50 44//50 45//50
f 31//51 45//51 56//51
f 31//51 56//51 46//51
f 32//52 46//52 34//52
f 34//53 46//53 47//53
f 34//54 47//54 48//54
f 34//55 48//55 37//55
f 34//56 37//56 35//56
f 35//57 37//57 36//57
f 37//58 48//58 38//58
f 39//59 49//59 40//59
f 40//60 49//60 50//60
f 42//61 51//61 43//61
f 43//62 51//62 44//62
f 44//63 52//63 56//63
f 44//63 56//63 45//63
f 44//64 51//64 53//64
f 44//65 53//65 54//65
f 44//66 54//66 55//66
f 44//67 55//67 63//67
f 44//67 63//67 52//67
f 46//68 56//68 57//68
f 46//69 57//69 47//69
f 47//70 57//70 58//70
f 47//71 58//71 59//71
f 47//72 59//72 48//72
f 48//73 59//73 60//73
f 49//74 61//74 50//74
f 50//75 61//75 62//75
f 52//76 63//76 64//76
f 52//77 64//77 65//77
f 52//78 65//78 66//78
f 52//79 66//79 67//79
f 52//80 67//80 56//80
f 53//81 68//81 54//81
f 54//82 68//82 55//82
f 55//83 68//83 69//83
f 55//84 69//84 70//84
f 55//85 70//85 75//85
f 55//85 75//85 63//85
f 56//86 67//86 57//86
f 57//87 67//87 58//87
f 58//88 67//88 71//88
f 58//89 71//89 72//89
f 58//90 72//90 60//90
f 58//91 60//91 59//91
f 61//92 73//92 74//92
f 61//93 74//93 62//93
f 63//94 75//94 64//94
f 64//95 75//95 65//95
f 65//96 75//96 76//96
f 65//97 76//97 66//97
f 66//98 72//98 67//98
f 67//99 72//99 71//99
f 69//100 77//100 70//100
f 70//101 77//101 75//101
f 73//102 78//102 79//102
f 73//103 79//103 74//103
f 73//104 80//104 78//104
f 75//105 80//105 76//105
f 75//106 77//106 80//106
f 77//107 81//107 80//107
f 78//108 80//108 81//108
