# Blender 4.1.1
# www.blender.org
o mug_collision.013
v 0.031963 0.023599 -0.019491
v 0.041814 0.023599 -0.019491
v 0.036424 0.023599 -0.009143
v 0.036429 0.024487 -0.009143
v 0.036434 0.025064 -0.009143
v 0.036525 0.038016 -0.009143
v 0.036581 0.045789 -0.009143
v 0.036710 0.063921 -0.009143
v 0.036794 0.075569 -0.009143
v 0.036902 0.090539 -0.009143
v 0.036915 0.092404 -0.009143
v 0.036944 0.096294 -0.009143
v 0.036972 0.100177 -0.009143
v 0.036978 0.100897 -0.009143
v 0.032272 0.060759 -0.019491
v 0.045753 0.024487 -0.009143
v 0.042292 0.023599 -0.018233
v 0.041814 0.101610 -0.019491
v 0.045738 0.023599 -0.009143
v 0.036983 0.101474 -0.009143
v 0.032608 0.100897 -0.019491
v 0.032509 0.089242 -0.019491
v 0.032456 0.082798 -0.019491
v 0.032283 0.062056 -0.019491
v 0.044049 0.023599 -0.013601
v 0.045749 0.080180 -0.009143
v 0.041813 0.102194 -0.019491
v 0.042632 0.102194 -0.017334
v 0.044049 0.100897 -0.013601
v 0.036992 0.102194 -0.009143
v 0.032622 0.102194 -0.019491
v 0.044539 0.100897 -0.012305
v 0.044538 0.102194 -0.012305
v 0.044908 0.102194 -0.011132
v 0.045742 0.080692 -0.009143
v 0.041672 0.102915 -0.019491
v 0.042569 0.103163 -0.017168
v 0.043761 0.102899 -0.014304
v 0.043771 0.102194 -0.014331
v 0.044048 0.102194 -0.013601
v 0.037015 0.102531 -0.009143
v 0.037148 0.103219 -0.009143
v 0.032931 0.103491 -0.019491
v 0.045052 0.102891 -0.010443
v 0.045061 0.102194 -0.010484
v 0.045726 0.081469 -0.009143
v 0.041558 0.103475 -0.019491
v 0.043869 0.103395 -0.013487
v 0.042760 0.103555 -0.016241
v 0.044276 0.103491 -0.012305
v 0.037414 0.103787 -0.009143
v 0.033214 0.104076 -0.019491
v 0.045200 0.102659 -0.009143
v 0.045236 0.102194 -0.009143
v 0.045167 0.102194 -0.009715
v 0.044737 0.103395 -0.010928
v 0.044839 0.103675 -0.009715
v 0.045100 0.103027 -0.009715
v 0.041269 0.104132 -0.019491
v 0.042385 0.104027 -0.016708
v 0.043750 0.104156 -0.012981
v 0.037584 0.104035 -0.009143
v 0.033305 0.104212 -0.019491
v 0.045135 0.103115 -0.009143
v 0.043877 0.104284 -0.012305
v 0.044078 0.104476 -0.011009
v 0.045019 0.103403 -0.009143
v 0.044873 0.103763 -0.009143
v 0.041219 0.104228 -0.019491
v 0.042558 0.104268 -0.015844
v 0.037986 0.104532 -0.009143
v 0.034039 0.104676 -0.019491
v 0.041354 0.104356 -0.018780
v 0.042736 0.104428 -0.014894
v 0.044511 0.104252 -0.009143
v 0.043091 0.104812 -0.012305
v 0.043091 0.105068 -0.011009
v 0.044191 0.104548 -0.009715
v 0.040534 0.104700 -0.019491
v 0.039206 0.105188 -0.009143
v 0.035321 0.105196 -0.019491
v 0.040501 0.104900 -0.018780
v 0.041593 0.104524 -0.017485
v 0.044225 0.104564 -0.009143
v 0.041797 0.105004 -0.014894
v 0.040501 0.105132 -0.017485
v 0.041797 0.105180 -0.013601
v 0.043091 0.105172 -0.009715
v 0.039206 0.105252 -0.019491
v 0.040501 0.105372 -0.009143
v 0.039206 0.105292 -0.011009
v 0.037912 0.105324 -0.014894
v 0.036617 0.105348 -0.018780
v 0.036617 0.105364 -0.019491
v 0.043091 0.105180 -0.009143
v 0.041797 0.105284 -0.012305
v 0.041797 0.105348 -0.011009
v 0.041797 0.105372 -0.009715
v 0.037912 0.105372 -0.019491
v 0.039206 0.105308 -0.018780
v 0.041797 0.105372 -0.009143
v 0.040501 0.105380 -0.009715
v 0.037912 0.105372 -0.016190
v 0.037912 0.105380 -0.017485
v 0.037912 0.105380 -0.018780
v 0.040501 0.105332 -0.014894
v 0.039206 0.105364 -0.017485
v 0.040501 0.105372 -0.013601
v 0.039206 0.105380 -0.016190
v 0.040501 0.105380 -0.012305
vn -0.0000 -1.0000 -0.0000
vn -0.9183 0.0056 0.3959
vn -0.9183 0.0065 0.3958
vn -0.9183 0.0066 0.3957
vn -0.9184 0.0066 0.3956
vn -0.9184 0.0066 0.3955
vn -0.9185 0.0066 0.3954
vn -0.9186 0.0067 0.3951
vn -0.9191 0.0069 0.3940
vn -0.9211 0.0077 0.3892
vn 0.0083 -0.0000 -1.0000
vn -0.0000 -0.0000 -1.0000
vn -0.0003 -0.0000 -1.0000
vn 0.0006 -0.0000 -1.0000
vn 0.9348 -0.0088 -0.3551
vn 0.9346 -0.0000 -0.3557
vn -0.0000 -0.0000 1.0000
vn -0.0002 -0.0000 1.0000
vn 0.0003 -0.0000 1.0000
vn -0.0039 -0.0000 1.0000
vn 0.0007 -0.0000 1.0000
vn -0.0026 -0.0000 1.0000
vn -0.0003 -0.0000 1.0000
vn 0.0008 -0.0000 1.0000
vn 0.0013 -0.0000 1.0000
vn -0.0012 -0.0000 1.0000
vn -0.9212 0.0086 0.3890
vn -0.9212 0.0078 0.3890
vn -0.9212 0.0077 0.3890
vn -0.9212 0.0077 0.3891
vn 0.9350 -0.0156 -0.3542
vn 0.9349 -0.0128 -0.3547
vn 0.9348 0.0001 -0.3553
vn 0.9348 0.0022 -0.3552
vn 0.9350 0.0004 -0.3548
vn -0.9211 0.0121 0.3891
vn -0.9212 0.0096 0.3889
vn 0.9353 0.0006 -0.3538
vn 0.9361 0.0010 -0.3517
vn 0.9537 0.0093 -0.3007
vn 0.9637 0.0127 -0.2669
vn 0.9116 0.1776 -0.3708
vn 0.9162 0.1630 -0.3662
vn 0.9344 0.0305 -0.3550
vn 0.9350 0.0007 -0.3547
vn 0.9346 0.0281 -0.3545
vn 0.9351 0.0010 -0.3543
vn 0.9353 0.0010 -0.3538
vn -0.9194 0.0628 0.3883
vn -0.9084 0.1745 0.3800
vn -0.9024 0.2151 0.3734
vn 0.9349 0.0287 -0.3536
vn 0.9383 0.1457 -0.3137
vn 0.9490 0.0991 -0.2992
vn 0.9731 0.0246 -0.2290
vn 0.9733 0.0166 -0.2290
vn 0.9850 0.0205 -0.1712
vn 0.9098 0.1863 -0.3710
vn 0.8745 0.3545 -0.3312
vn 0.8729 0.3576 -0.3319
vn 0.8742 0.3552 -0.3311
vn 0.8752 0.3533 -0.3305
vn 0.9215 0.2366 -0.3079
vn 0.9348 0.0281 -0.3542
vn -0.8466 0.3961 0.3554
vn -0.8418 0.4083 0.3530
vn 0.9921 0.0779 -0.0983
vn 0.9921 0.0387 -0.1193
vn 0.9907 0.0230 -0.1341
vn 0.9862 0.0210 -0.1643
vn 0.9115 0.2976 -0.2840
vn 0.9002 0.4014 -0.1688
vn 0.9202 0.3697 -0.1288
vn 0.9875 0.1305 -0.0884
vn 0.9926 0.0235 -0.1194
vn 0.8633 0.3799 -0.3322
vn 0.8703 0.3644 -0.3312
vn 0.8706 0.3639 -0.3312
vn 0.8737 0.3568 -0.3308
vn 0.8739 0.3565 -0.3304
vn 0.8680 0.4226 -0.2607
vn -0.7784 0.5335 0.3309
vn -0.7853 0.5219 0.3332
vn 0.9867 0.1401 -0.0821
vn 0.8588 0.4492 -0.2465
vn 0.8425 0.4982 -0.2047
vn 0.8450 0.5010 -0.1871
vn 0.9217 0.3713 -0.1125
vn 0.9219 0.3704 -0.1135
vn 0.8175 0.5601 -0.1344
vn 0.9212 0.3728 -0.1117
vn 0.8401 0.4368 -0.3218
vn 0.8495 0.4154 -0.3253
vn 0.6901 0.6751 -0.2608
vn 0.6836 0.6828 -0.2578
vn -0.7373 0.5976 0.3151
vn -0.5224 0.8262 0.2108
vn 0.6558 0.7132 -0.2476
vn 0.6390 0.7306 -0.2408
vn 0.5690 0.7960 -0.2064
vn 0.7983 0.5914 -0.1143
vn 0.5363 0.8211 -0.1954
vn 0.5075 0.8453 -0.1671
vn 0.5125 0.8537 -0.0924
vn 0.7683 0.6319 -0.1025
vn 0.6677 0.7002 -0.2529
vn 0.5502 0.7973 -0.2481
vn -0.4652 0.8647 0.1895
vn -0.3723 0.9174 0.1405
vn 0.5262 0.8247 -0.2071
vn 0.5265 0.8252 -0.2044
vn 0.5336 0.8205 -0.2050
vn 0.5224 0.8289 -0.1998
vn 0.5145 0.8351 -0.1945
vn 0.7357 0.6744 -0.0623
vn 0.5089 0.8391 -0.1922
vn 0.4707 0.8655 -0.1711
vn 0.3639 0.9214 -0.1365
vn 0.3155 0.9417 -0.1169
vn 0.2395 0.9678 -0.0778
vn 0.4924 0.8676 -0.0697
vn 0.4929 0.8684 -0.0534
vn 0.3732 0.8975 -0.2349
vn -0.1406 0.9885 0.0551
vn -0.1409 0.9885 0.0551
vn -0.1503 0.9870 0.0572
vn -0.1460 0.9878 0.0547
vn -0.1286 0.9914 0.0223
vn 0.4105 0.8975 -0.1610
vn 0.3427 0.9247 -0.1658
vn 0.4776 0.8785 -0.0123
vn 0.2248 0.9705 -0.0870
vn 0.2053 0.9756 -0.0784
vn 0.2393 0.9678 -0.0777
vn 0.1822 0.9821 -0.0486
vn 0.1528 0.9881 -0.0183
vn 0.1528 0.9882 -0.0139
vn 0.0921 0.9927 -0.0782
vn 0.2014 0.9765 -0.0770
vn -0.0000 0.9999 0.0140
vn -0.0381 0.9992 0.0140
vn -0.0698 0.9972 0.0256
vn -0.1231 0.9913 0.0472
vn -0.1403 0.9886 0.0549
vn -0.0635 0.9977 0.0225
vn -0.0219 0.9997 0.0062
vn -0.0124 0.9999 -0.0000
vn -0.0062 0.9999 -0.0113
vn 0.1468 0.9892 -0.0000
vn 0.1460 0.9878 -0.0547
vn 0.1344 0.9897 -0.0489
vn 0.0987 0.9944 -0.0370
vn 0.0677 0.9974 -0.0247
vn 0.0555 0.9983 -0.0185
vn 0.0186 0.9998 -0.0062
vn 0.0185 0.9998 -0.0062
vn 0.0062 1.0000 -0.0000
vn 0.0225 0.9997 -0.0113
vn 0.0253 0.9996 -0.0123
vn 0.0730 0.9964 -0.0431
vn 0.1106 0.9929 -0.0430
vn -0.0000 1.0000 -0.0000
vn -0.0186 0.9998 0.0062
vn 0.0309 0.9994 -0.0123
s 0
f 1//1 2//1 17//1
f 1//1 17//1 25//1
f 1//1 25//1 19//1
f 1//1 19//1 3//1
f 1//2 3//2 4//2
f 1//3 4//3 5//3
f 1//3 5//3 6//3
f 1//3 6//3 7//3
f 1//4 7//4 8//4
f 1//5 8//5 9//5
f 1//6 9//6 10//6
f 1//7 10//7 11//7
f 1//8 11//8 12//8
f 1//8 12//8 13//8
f 1//9 13//9 14//9
f 1//10 14//10 15//10
f 1//11 15//11 24//11
f 1//12 24//12 23//12
f 1//12 23//12 22//12
f 1//13 22//13 21//13
f 1//14 21//14 31//14
f 1//12 31//12 43//12
f 1//12 43//12 52//12
f 1//12 52//12 63//12
f 1//12 63//12 72//12
f 1//12 72//12 81//12
f 1//12 81//12 94//12
f 1//12 94//12 99//12
f 1//12 99//12 89//12
f 1//12 89//12 79//12
f 1//12 79//12 69//12
f 1//12 69//12 59//12
f 1//12 59//12 47//12
f 1//12 47//12 36//12
f 1//12 36//12 27//12
f 1//12 27//12 18//12
f 1//12 18//12 2//12
f 2//15 16//15 17//15
f 2//16 18//16 16//16
f 3//17 19//17 16//17
f 3//17 16//17 26//17
f 3//17 26//17 35//17
f 3//17 35//17 46//17
f 3//17 46//17 54//17
f 3//17 54//17 53//17
f 3//17 53//17 64//17
f 3//17 64//17 67//17
f 3//17 67//17 68//17
f 3//17 68//17 75//17
f 3//17 75//17 84//17
f 3//17 84//17 95//17
f 3//17 95//17 101//17
f 3//17 101//17 90//17
f 3//17 90//17 80//17
f 3//17 80//17 71//17
f 3//17 71//17 62//17
f 3//17 62//17 51//17
f 3//17 51//17 42//17
f 3//17 42//17 41//17
f 3//17 41//17 30//17
f 3//18 30//18 20//18
f 3//19 20//19 14//19
f 3//20 14//20 13//20
f 3//21 13//21 12//21
f 3//21 12//21 11//21
f 3//22 11//22 10//22
f 3//17 10//17 9//17
f 3//23 9//23 8//23
f 3//24 8//24 7//24
f 3//25 7//25 6//25
f 3//26 6//26 5//26
f 3//17 5//17 4//17
f 14//27 20//27 21//27
f 14//28 21//28 22//28
f 14//29 22//29 23//29
f 14//30 23//30 24//30
f 14//30 24//30 15//30
f 16//31 19//31 25//31
f 16//32 25//32 17//32
f 16//33 18//33 26//33
f 18//34 27//34 28//34
f 18//35 28//35 29//35
f 18//35 29//35 26//35
f 20//36 30//36 31//36
f 20//37 31//37 21//37
f 26//38 29//38 32//38
f 26//39 32//39 33//39
f 26//40 33//40 34//40
f 26//41 34//41 35//41
f 27//42 36//42 37//42
f 27//43 37//43 38//43
f 27//44 38//44 28//44
f 28//45 39//45 29//45
f 28//46 38//46 39//46
f 29//47 39//47 40//47
f 29//48 40//48 33//48
f 29//48 33//48 32//48
f 30//49 41//49 31//49
f 31//50 41//50 42//50
f 31//51 42//51 43//51
f 33//52 40//52 38//52
f 33//53 38//53 44//53
f 33//54 44//54 34//54
f 34//55 44//55 45//55
f 34//56 45//56 35//56
f 35//57 45//57 46//57
f 36//58 47//58 37//58
f 37//59 48//59 38//59
f 37//60 47//60 49//60
f 37//61 49//61 48//61
f 38//62 48//62 50//62
f 38//63 50//63 44//63
f 38//64 40//64 39//64
f 42//65 51//65 43//65
f 43//66 51//66 52//66
f 44//67 53//67 54//67
f 44//68 54//68 55//68
f 44//69 55//69 46//69
f 44//70 46//70 45//70
f 44//71 50//71 56//71
f 44//72 56//72 57//72
f 44//73 57//73 58//73
f 44//74 58//74 53//74
f 46//75 55//75 54//75
f 47//76 59//76 60//76
f 47//77 60//77 61//77
f 47//78 61//78 49//78
f 48//79 49//79 61//79
f 48//80 61//80 50//80
f 50//81 61//81 56//81
f 51//82 62//82 63//82
f 51//83 63//83 52//83
f 53//84 58//84 64//84
f 56//85 61//85 65//85
f 56//86 65//86 66//86
f 56//87 66//87 57//87
f 57//88 67//88 64//88
f 57//89 64//89 58//89
f 57//90 66//90 68//90
f 57//91 68//91 67//91
f 59//92 69//92 61//92
f 59//93 61//93 60//93
f 61//94 69//94 70//94
f 61//95 70//95 65//95
f 62//96 71//96 63//96
f 63//97 71//97 72//97
f 65//98 70//98 73//98
f 65//99 73//99 74//99
f 65//100 74//100 66//100
f 66//101 75//101 68//101
f 66//102 74//102 76//102
f 66//103 76//103 77//103
f 66//104 77//104 78//104
f 66//105 78//105 75//105
f 69//106 73//106 70//106
f 69//107 79//107 73//107
f 71//108 80//108 72//108
f 72//109 80//109 81//109
f 73//110 79//110 82//110
f 73//111 82//111 83//111
f 73//112 83//112 74//112
f 74//113 83//113 82//113
f 74//114 82//114 76//114
f 75//115 78//115 84//115
f 76//116 82//116 85//116
f 76//117 85//117 77//117
f 77//118 85//118 86//118
f 77//119 86//119 87//119
f 77//120 87//120 88//120
f 77//121 88//121 78//121
f 78//122 88//122 84//122
f 79//123 89//123 82//123
f 80//124 90//124 91//124
f 80//125 91//125 92//125
f 80//126 92//126 81//126
f 81//127 92//127 93//127
f 81//128 93//128 94//128
f 82//129 86//129 85//129
f 82//130 89//130 86//130
f 84//131 88//131 95//131
f 86//132 89//132 87//132
f 87//133 89//133 96//133
f 87//134 96//134 88//134
f 88//135 96//135 97//135
f 88//136 97//136 98//136
f 88//137 98//137 95//137
f 89//138 99//138 100//138
f 89//139 100//139 96//139
f 90//140 101//140 102//140
f 90//141 102//141 103//141
f 90//142 103//142 93//142
f 90//143 93//143 92//143
f 90//144 92//144 91//144
f 93//145 103//145 94//145
f 94//146 103//146 104//146
f 94//147 104//147 105//147
f 94//148 105//148 99//148
f 95//149 98//149 101//149
f 96//150 100//150 106//150
f 96//151 106//151 97//151
f 97//152 106//152 107//152
f 97//153 107//153 108//153
f 97//154 108//154 98//154
f 98//155 108//155 109//155
f 98//156 109//156 110//156
f 98//157 110//157 102//157
f 98//157 102//157 101//157
f 99//158 105//158 109//158
f 99//159 109//159 107//159
f 99//160 107//160 100//160
f 100//161 107//161 106//161
f 102//162 110//162 109//162
f 102//162 109//162 105//162
f 102//162 105//162 104//162
f 102//163 104//163 103//163
f 107//164 109//164 108//164
