# Blender 4.1.1
# www.blender.org
o mug_collision.009
v -0.023382 0.100898 0.039690
v -0.023382 0.102197 0.039688
v -0.024261 0.102197 0.039228
v -0.024940 0.100898 0.038872
v -0.023897 0.011926 0.039420
v -0.023382 0.011926 0.039690
v -0.023382 0.103395 0.039451
v -0.024929 0.102874 0.038865
v -0.024938 0.102197 0.038872
v -0.025588 0.102197 0.038516
v -0.025391 0.011926 0.038624
v -0.024940 0.011926 0.038872
v -0.023382 0.011926 0.028798
v -0.023382 0.104273 0.038996
v -0.023713 0.104200 0.038909
v -0.024577 0.103734 0.038682
v -0.025438 0.103377 0.038363
v -0.026409 0.103487 0.037722
v -0.026595 0.102197 0.037868
v -0.026290 0.011926 0.038064
v -0.025588 0.011926 0.038516
v -0.033051 0.011926 0.017098
v -0.023382 0.101794 0.029935
v -0.023382 0.104777 0.038217
v -0.024191 0.104511 0.038233
v -0.025556 0.104328 0.037761
v -0.026218 0.104155 0.037571
v -0.027057 0.103487 0.037169
v -0.027242 0.102197 0.037332
v -0.027242 0.100898 0.037335
v -0.027047 0.011926 0.037496
v -0.026595 0.011926 0.037868
v -0.034032 0.100770 0.017098
v -0.042723 0.011926 0.017098
v -0.034049 0.102197 0.017098
v -0.023382 0.102197 0.029941
v -0.023382 0.105261 0.036912
v -0.024261 0.105161 0.036912
v -0.025556 0.104841 0.036912
v -0.028920 0.104246 0.035081
v -0.033833 0.103898 0.030954
v -0.032485 0.103798 0.032206
v -0.032044 0.103423 0.032790
v -0.026729 0.104356 0.036819
v -0.032731 0.102938 0.032425
v -0.031377 0.102197 0.033670
v -0.030510 0.011926 0.034440
v -0.028426 0.011926 0.036286
v -0.027242 0.011926 0.037335
v -0.041546 0.011926 0.020201
v -0.042723 0.100898 0.017098
v -0.034336 0.103523 0.017098
v -0.023382 0.103057 0.030058
v -0.023382 0.102654 0.029954
v -0.023382 0.105371 0.035616
v -0.024261 0.105362 0.035616
v -0.025556 0.105261 0.035616
v -0.026851 0.104932 0.035616
v -0.028058 0.104420 0.035554
v -0.030270 0.104283 0.033836
v -0.035094 0.103761 0.029536
v -0.034584 0.103404 0.030388
v -0.034075 0.103039 0.031178
v -0.033280 0.103423 0.031693
v -0.031621 0.104319 0.032589
v -0.032971 0.104347 0.031343
v -0.034230 0.104365 0.030089
v -0.034128 0.102197 0.031226
v -0.033401 0.102197 0.031874
v -0.032030 0.102197 0.033091
v -0.033403 0.100898 0.031874
v -0.032538 0.011926 0.032642
v -0.041389 0.011926 0.020555
v -0.041546 0.100898 0.020201
v -0.042083 0.102197 0.018781
v -0.042721 0.101657 0.017098
v -0.034454 0.103752 0.017098
v -0.023382 0.103514 0.030293
v -0.023382 0.105362 0.034322
v -0.024261 0.105380 0.034322
v -0.025556 0.105371 0.034322
v -0.029440 0.105316 0.031733
v -0.026851 0.105289 0.034322
v -0.032030 0.105133 0.030437
v -0.030735 0.105088 0.031733
v -0.029440 0.105042 0.033026
v -0.028145 0.104987 0.034322
v -0.033371 0.104612 0.030487
v -0.032044 0.104575 0.031757
v -0.030715 0.104530 0.033024
v -0.029387 0.104475 0.034289
v -0.035393 0.104264 0.028674
v -0.036551 0.104118 0.027188
v -0.037714 0.103834 0.025697
v -0.035292 0.102901 0.029824
v -0.034645 0.104548 0.029121
v -0.034776 0.102197 0.030490
v -0.034128 0.011926 0.031226
v -0.033908 0.011926 0.031423
v -0.033403 0.011926 0.031874
v -0.041025 0.011926 0.021371
v -0.041025 0.100898 0.021371
v -0.041544 0.102197 0.020201
v -0.041775 0.102929 0.019511
v -0.042720 0.102197 0.017098
v -0.034931 0.104438 0.017098
v -0.023382 0.104328 0.030848
v -0.037210 0.105353 0.017485
v -0.038505 0.105380 0.017098
v -0.023382 0.105216 0.033026
v -0.037210 0.105335 0.017098
v -0.028145 0.105380 0.031733
v -0.032030 0.105335 0.029141
v -0.033325 0.105133 0.029141
v -0.038013 0.104292 0.024835
v -0.039174 0.104164 0.023346
v -0.036851 0.104383 0.026323
v -0.040005 0.103478 0.022612
v -0.040533 0.103039 0.022143
v -0.038195 0.103441 0.025264
v -0.037913 0.102965 0.025985
v -0.040576 0.102197 0.022207
v -0.037494 0.102197 0.026672
v -0.036847 0.102197 0.027610
v -0.035304 0.102197 0.029842
v -0.037254 0.104585 0.025264
v -0.034620 0.105014 0.027849
v -0.038505 0.104877 0.022667
v -0.035145 0.011926 0.030039
v -0.034776 0.011926 0.030490
v -0.040891 0.011926 0.021623
v -0.041023 0.102197 0.021371
v -0.040752 0.103478 0.021387
v -0.041391 0.103414 0.019998
v -0.041892 0.103414 0.018684
v -0.042456 0.103496 0.017098
v -0.042568 0.102947 0.017098
v -0.035915 0.105014 0.017098
v -0.023382 0.104758 0.031708
v -0.023382 0.104347 0.030883
v -0.038505 0.105380 0.017485
v -0.039800 0.105307 0.017098
v -0.035915 0.105097 0.017485
v -0.032030 0.105380 0.027849
v -0.033325 0.105316 0.027849
v -0.034620 0.105362 0.025257
v -0.034620 0.105271 0.026553
v -0.035915 0.105179 0.025257
v -0.038469 0.104429 0.023850
v -0.039406 0.104347 0.022667
v -0.040573 0.104283 0.020964
v -0.040334 0.103898 0.021829
v -0.039035 0.100898 0.024441
v -0.036847 0.100898 0.027612
v -0.040576 0.011926 0.022207
v -0.039935 0.011926 0.023138
v -0.036400 0.100898 0.028258
v -0.035643 0.011926 0.029353
v -0.035304 0.011926 0.029842
v -0.039861 0.104594 0.021387
v -0.037210 0.105051 0.023963
v -0.038505 0.105207 0.021371
v -0.039800 0.105014 0.020077
v -0.041595 0.103789 0.019051
v -0.041763 0.104164 0.018189
v -0.042169 0.104063 0.017098
v -0.037210 0.105380 0.020077
v -0.038505 0.105371 0.018781
v -0.039800 0.105289 0.017485
v -0.038505 0.105335 0.020077
v -0.041095 0.104914 0.017098
v -0.035915 0.105380 0.022667
v -0.037210 0.105362 0.021371
v -0.037210 0.105280 0.022667
v -0.041898 0.104301 0.017485
v -0.040754 0.104438 0.020077
v -0.036847 0.011926 0.027612
v -0.039800 0.105188 0.018781
v -0.041095 0.104832 0.017485
v -0.041968 0.104356 0.017098
vn -0.4639 0.0015 0.8859
vn -0.4650 0.0006 0.8853
vn -0.4650 -0.0000 0.8853
vn -0.4641 -0.0000 0.8858
vn 1.0000 -0.0000 -0.0000
vn -0.4005 0.1775 0.8990
vn -0.4638 0.0167 0.8858
vn -0.4651 0.0007 0.8853
vn -0.4650 0.0152 0.8852
vn -0.4808 0.0007 0.8768
vn -0.4819 -0.0000 0.8762
vn -0.4817 -0.0000 0.8763
vn -0.4654 -0.0000 0.8851
vn -0.0000 -1.0000 0.0002
vn -0.0000 -1.0000 -0.0001
vn -0.0000 -1.0000 -0.0000
vn -0.3158 0.4369 0.8422
vn -0.4225 0.3800 0.8229
vn -0.4334 0.3544 0.8286
vn -0.5014 0.3016 0.8109
vn -0.5565 0.1720 0.8128
vn -0.5388 0.0921 0.8374
vn -0.4807 0.0153 0.8767
vn -0.4508 0.3591 0.8172
vn -0.5411 -0.0000 0.8410
vn -0.5404 -0.0000 0.8414
vn -0.4822 -0.0000 0.8761
vn 0.7708 0.0081 -0.6370
vn -0.2564 0.8118 0.5247
vn -0.2959 0.7770 0.5557
vn -0.3177 0.7402 0.5926
vn -0.3620 0.6633 0.6550
vn -0.4348 0.4140 0.7997
vn -0.4533 0.3708 0.8106
vn -0.4957 0.3235 0.8060
vn -0.6115 0.3364 0.7161
vn -0.6380 0.1866 0.7471
vn -0.6272 0.1761 0.7587
vn -0.6371 0.0013 0.7708
vn -0.6356 -0.0000 0.7721
vn -0.6346 -0.0000 0.7728
vn -0.5425 -0.0000 0.8401
vn 0.7693 0.0085 -0.6389
vn -0.0000 -0.0000 -1.0000
vn -0.0002 -0.0000 -1.0000
vn 0.7692 0.0092 -0.6389
vn 0.7692 0.0105 -0.6389
vn -0.1068 0.9320 0.3463
vn -0.2191 0.8861 0.4084
vn -0.2648 0.8351 0.4821
vn -0.2812 0.8217 0.4957
vn -0.3494 0.8023 0.4840
vn -0.5764 0.5032 0.6438
vn -0.6138 0.3807 0.6916
vn -0.6185 0.3599 0.6985
vn -0.6192 0.3558 0.7000
vn -0.3690 0.8041 0.4661
vn -0.4304 0.7550 0.4947
vn -0.6203 0.3514 0.7012
vn -0.6407 0.1867 0.7447
vn -0.6623 0.0466 0.7478
vn -0.6631 0.0013 0.7486
vn -0.6633 -0.0000 0.7484
vn -0.6631 -0.0000 0.7485
vn -0.6377 -0.0000 0.7703
vn -0.9349 -0.0000 0.3548
vn 0.7563 0.1641 -0.6333
vn 0.7564 0.1636 -0.6334
vn 0.7691 0.0185 -0.6388
vn -0.0104 0.9964 0.0844
vn -0.0768 0.9887 0.1288
vn -0.1118 0.9759 0.1875
vn -0.2289 0.9259 0.3006
vn -0.3712 0.8235 0.4290
vn -0.3731 0.8203 0.4335
vn -0.2351 0.9245 0.3002
vn -0.5669 0.5306 0.6302
vn -0.4189 0.7713 0.4791
vn -0.4174 0.7745 0.4753
vn -0.7043 0.3978 0.5879
vn -0.7004 0.3578 0.6176
vn -0.6233 0.3564 0.6960
vn -0.6199 0.3613 0.6966
vn -0.5665 0.5318 0.6295
vn -0.5637 0.5423 0.6230
vn -0.5667 0.5876 0.5776
vn -0.6844 0.4621 0.5640
vn -0.6196 0.3584 0.6983
vn -0.6209 0.3534 0.6997
vn -0.6743 0.0849 0.7335
vn -0.6647 0.0470 0.7457
vn -0.6631 0.0444 0.7472
vn -0.6630 0.0447 0.7473
vn -0.6227 0.3508 0.6994
vn -0.6636 0.0007 0.7481
vn -0.6634 -0.0000 0.7483
vn -0.6635 -0.0000 0.7482
vn -0.9139 -0.0000 0.4059
vn -0.9349 0.0008 0.3548
vn -0.9353 0.0024 0.3538
vn 0.7157 0.3674 -0.5940
vn 0.7313 0.3111 -0.6069
vn 0.0208 0.9998 -0.0071
vn -0.0071 0.9999 0.0119
vn -0.0104 0.9998 0.0175
vn -0.0564 0.9964 0.0635
vn -0.0667 0.9948 0.0772
vn -0.0771 0.9922 0.0982
vn -0.1777 0.9639 0.1984
vn -0.2248 0.9397 0.2577
vn -0.2260 0.9390 0.2594
vn -0.2365 0.9317 0.2757
vn -0.2368 0.9313 0.2766
vn -0.3355 0.8652 0.3726
vn -0.3456 0.8554 0.3859
vn -0.3624 0.8369 0.4102
vn -0.3713 0.8254 0.4254
vn -0.3716 0.8248 0.4262
vn -0.4051 0.7902 0.4598
vn -0.4168 0.7753 0.4745
vn -0.6871 0.4982 0.5289
vn -0.7222 0.4585 0.5179
vn -0.7682 0.3574 0.5311
vn -0.7689 0.3554 0.5315
vn -0.7246 0.3633 0.5856
vn -0.7195 0.3240 0.6143
vn -0.7451 0.0852 0.6615
vn -0.4038 0.7920 0.4579
vn -0.4025 0.7950 0.4539
vn -0.3962 0.8034 0.4446
vn -0.3935 0.8100 0.4347
vn -0.4315 0.7849 0.4447
vn -0.3994 0.8544 0.3323
vn -0.5131 0.7762 0.3663
vn -0.6654 0.0010 0.7465
vn -0.7490 0.0727 0.6585
vn -0.7510 -0.0000 0.6603
vn -0.6674 -0.0000 0.7447
vn -0.6664 -0.0000 0.7456
vn -0.6638 0.0010 0.7480
vn -0.6659 -0.0000 0.7461
vn -0.6636 -0.0000 0.7481
vn -0.9135 -0.0000 0.4069
vn -0.9136 -0.0000 0.4066
vn -0.9136 0.0013 0.4066
vn -0.9348 0.0014 0.3552
vn -0.9340 0.0399 0.3549
vn -0.9346 0.0418 0.3532
vn -0.9354 0.0033 0.3536
vn 0.6773 0.4710 -0.5652
vn 0.7060 0.3990 -0.5852
vn 0.0283 0.9993 -0.0238
vn 0.0208 0.9996 -0.0172
vn 0.1365 0.9844 -0.1112
vn 0.0568 0.9973 -0.0471
vn -0.0071 0.9999 0.0106
vn -0.0000 1.0000 -0.0000
vn -0.0424 0.9980 0.0459
vn -0.0562 0.9964 0.0632
vn -0.1450 0.9777 0.1518
vn -0.1484 0.9761 0.1587
vn -0.3312 0.8836 0.3309
vn -0.3268 0.8749 0.3574
vn -0.1518 0.9767 0.1517
vn -0.3271 0.8744 0.3583
vn -0.3342 0.8665 0.3707
vn -0.3881 0.8638 0.3213
vn -0.6244 0.6515 0.4308
vn -0.6662 0.5857 0.4617
vn -0.5096 0.7835 0.3556
vn -0.5313 0.7631 0.3680
vn -0.7658 0.3685 0.5271
vn -0.7672 0.3649 0.5275
vn -0.7686 0.3596 0.5291
vn -0.7693 0.3559 0.5305
vn -0.7692 0.3546 0.5315
vn -0.8165 0.1359 0.5611
vn -0.8223 0.0849 0.5626
vn -0.8226 0.0309 0.5678
vn -0.8225 0.0300 0.5679
vn -0.8222 0.0275 0.5685
vn -0.7748 0.0284 0.6316
vn -0.7704 0.3515 0.5319
vn -0.4901 0.8030 0.3391
vn -0.3894 0.8671 0.3106
vn -0.4340 0.8485 0.3029
vn -0.4460 0.8398 0.3096
vn -0.7751 -0.0000 0.6318
vn -0.7739 -0.0000 0.6333
vn -0.8824 -0.0000 0.4704
vn -0.8819 0.0013 0.4714
vn -0.8811 -0.0000 0.4729
vn -0.9095 0.0946 0.4047
vn -0.8783 0.2562 0.4037
vn -0.8712 0.3030 0.3863
vn -0.8725 0.3573 0.3332
vn -0.8764 0.3508 0.3300
vn -0.9323 0.1897 0.3079
vn -0.9326 0.1883 0.3080
vn -0.8977 0.1399 0.4178
vn 0.4661 0.7962 -0.3859
vn 0.4752 0.7873 -0.3929
vn 0.4854 0.7767 -0.4014
vn 0.0353 0.9983 -0.0472
vn -0.0564 0.9984 -0.0000
vn 0.3726 0.8767 -0.3042
vn 0.2414 0.9492 -0.2020
vn 0.2334 0.9525 -0.1955
vn 0.2351 0.9507 -0.2022
vn -0.0354 0.9987 0.0354
vn -0.1521 0.9786 0.1386
vn -0.0425 0.9985 0.0354
vn -0.0630 0.9968 0.0491
vn -0.1727 0.9752 0.1382
vn -0.2371 0.9566 0.1694
vn -0.2893 0.9353 0.2039
vn -0.5022 0.7936 0.3435
vn -0.5041 0.7921 0.3441
vn -0.5809 0.7136 0.3916
vn -0.6140 0.6835 0.3948
vn -0.7041 0.5562 0.4414
vn -0.7678 0.3710 0.5224
vn -0.4987 0.7968 0.3412
vn -0.7694 0.3684 0.5218
vn -0.8790 0.0813 0.4698
vn -0.8224 0.0854 0.5625
vn -0.8238 0.3526 0.4439
vn -0.8230 0.0002 0.5680
vn -0.8230 0.0008 0.5681
vn -0.8805 -0.0000 0.4740
vn -0.8233 -0.0000 0.5675
vn -0.8231 -0.0000 0.5679
vn -0.8229 0.0010 0.5682
vn -0.8225 0.0010 0.5687
vn -0.8224 0.0004 0.5690
vn -0.8222 -0.0000 0.5692
vn -0.8218 -0.0000 0.5698
vn -0.7779 -0.0000 0.6284
vn -0.4854 0.8103 0.3283
vn -0.4749 0.8193 0.3213
vn -0.3015 0.9301 0.2097
vn -0.3822 0.8859 0.2631
vn -0.3524 0.9070 0.2305
vn -0.3632 0.9030 0.2295
vn -0.4259 0.8669 0.2589
vn -0.8248 0.3960 0.4035
vn -0.8458 0.3836 0.3709
vn -0.8440 0.4106 0.3450
vn -0.8700 0.3642 0.3323
vn -0.8700 0.3669 0.3295
vn -0.8704 0.3665 0.3287
vn -0.8566 0.4346 0.2782
vn -0.0585 0.9983 0.0070
vn -0.0141 0.9999 0.0071
vn -0.1286 0.9906 0.0468
vn -0.0858 0.9959 0.0281
vn -0.2903 0.9559 0.0452
vn -0.0283 0.9994 0.0212
vn -0.0911 0.9938 0.0630
vn -0.1121 0.9907 0.0770
vn -0.1121 0.9907 0.0771
vn -0.0424 0.9987 0.0283
vn -0.0633 0.9971 0.0422
vn -0.1729 0.9779 0.1176
vn -0.2245 0.9618 0.1564
vn -0.2960 0.9332 0.2039
vn -0.4861 0.8097 0.3287
vn -0.5385 0.7711 0.3398
vn -0.6822 0.6820 0.2635
vn -0.8434 0.4126 0.3442
vn -0.5079 0.8247 0.2487
vn -0.6711 0.6945 0.2593
vn -0.8230 -0.0000 0.5680
vn -0.8224 -0.0000 0.5689
vn -0.8224 -0.0000 0.5690
vn -0.5014 0.8302 0.2436
vn -0.2695 0.9545 0.1280
vn -0.1530 0.9834 0.0973
vn -0.2065 0.9737 0.0964
vn -0.4850 0.8554 0.1819
vn -0.5072 0.8397 0.1941
vn -0.3575 0.9256 0.1241
vn -0.8185 0.5139 0.2567
vn -0.8039 0.5511 0.2236
vn -0.0353 0.9992 0.0212
vn -0.0493 0.9984 0.0282
vn -0.1868 0.9794 0.0761
vn -0.2978 0.9518 0.0739
vn -0.5302 0.8293 0.1764
vn -0.5850 0.7815 0.2166
vn -0.5347 0.8222 0.1951
s 0
f 1//1 2//1 3//1
f 1//2 3//2 4//2
f 1//3 4//3 5//3
f 1//4 5//4 6//4
f 1//5 6//5 13//5
f 1//5 13//5 23//5
f 1//5 23//5 36//5
f 1//5 36//5 54//5
f 1//5 54//5 53//5
f 1//5 53//5 78//5
f 1//5 78//5 107//5
f 1//5 107//5 140//5
f 1//5 140//5 139//5
f 1//5 139//5 110//5
f 1//5 110//5 79//5
f 1//5 79//5 55//5
f 1//5 55//5 37//5
f 1//5 37//5 24//5
f 1//5 24//5 14//5
f 1//5 14//5 7//5
f 1//5 7//5 2//5
f 2//6 7//6 8//6
f 2//7 8//7 3//7
f 3//8 9//8 4//8
f 3//9 8//9 9//9
f 4//10 9//10 10//10
f 4//11 10//11 11//11
f 4//12 11//12 12//12
f 4//13 12//13 5//13
f 5//14 12//14 11//14
f 5//15 11//15 21//15
f 5//16 21//16 20//16
f 5//16 20//16 32//16
f 5//16 32//16 31//16
f 5//16 31//16 49//16
f 5//16 49//16 48//16
f 5//16 48//16 47//16
f 5//16 47//16 72//16
f 5//16 72//16 100//16
f 5//16 100//16 99//16
f 5//16 99//16 98//16
f 5//16 98//16 130//16
f 5//16 130//16 129//16
f 5//16 129//16 159//16
f 5//16 159//16 158//16
f 5//16 158//16 177//16
f 5//16 177//16 156//16
f 5//16 156//16 155//16
f 5//16 155//16 131//16
f 5//16 131//16 101//16
f 5//16 101//16 73//16
f 5//16 73//16 50//16
f 5//16 50//16 34//16
f 5//16 34//16 22//16
f 5//16 22//16 13//16
f 5//16 13//16 6//16
f 7//17 14//17 15//17
f 7//18 15//18 16//18
f 7//19 16//19 8//19
f 8//20 17//20 18//20
f 8//21 18//21 19//21
f 8//22 19//22 10//22
f 8//23 10//23 9//23
f 8//24 16//24 17//24
f 10//25 19//25 20//25
f 10//26 20//26 21//26
f 10//27 21//27 11//27
f 13//28 22//28 23//28
f 14//29 24//29 25//29
f 14//30 25//30 26//30
f 14//31 26//31 15//31
f 15//32 26//32 27//32
f 15//33 27//33 16//33
f 16//34 27//34 17//34
f 17//35 27//35 18//35
f 18//36 27//36 28//36
f 18//37 28//37 29//37
f 18//38 29//38 19//38
f 19//39 29//39 30//39
f 19//40 30//40 31//40
f 19//41 31//41 32//41
f 19//42 32//42 20//42
f 22//43 33//43 23//43
f 22//44 34//44 51//44
f 22//44 51//44 76//44
f 22//44 76//44 105//44
f 22//44 105//44 137//44
f 22//44 137//44 136//44
f 22//44 136//44 166//44
f 22//44 166//44 180//44
f 22//44 180//44 171//44
f 22//44 171//44 142//44
f 22//44 142//44 109//44
f 22//44 109//44 111//44
f 22//44 111//44 138//44
f 22//44 138//44 106//44
f 22//44 106//44 77//44
f 22//44 77//44 52//44
f 22//44 52//44 35//44
f 22//45 35//45 33//45
f 23//46 33//46 35//46
f 23//47 35//47 36//47
f 24//48 37//48 38//48
f 24//49 38//49 39//49
f 24//50 39//50 25//50
f 25//51 39//51 26//51
f 26//52 39//52 27//52
f 27//53 40//53 41//53
f 27//54 41//54 42//54
f 27//55 42//55 43//55
f 27//56 43//56 28//56
f 27//57 39//57 44//57
f 27//58 44//58 40//58
f 28//59 43//59 45//59
f 28//60 45//60 29//60
f 29//61 45//61 46//61
f 29//62 46//62 30//62
f 30//63 46//63 47//63
f 30//64 47//64 48//64
f 30//64 48//64 49//64
f 30//65 49//65 31//65
f 34//66 50//66 74//66
f 34//66 74//66 51//66
f 35//67 52//67 53//67
f 35//68 53//68 54//68
f 35//69 54//69 36//69
f 37//70 55//70 56//70
f 37//71 56//71 57//71
f 37//72 57//72 38//72
f 38//73 57//73 39//73
f 39//74 58//74 59//74
f 39//75 59//75 44//75
f 39//76 57//76 58//76
f 40//77 60//77 41//77
f 40//78 44//78 59//78
f 40//79 59//79 60//79
f 41//80 61//80 62//80
f 41//81 62//81 63//81
f 41//82 63//82 64//82
f 41//83 64//83 42//83
f 41//84 60//84 65//84
f 41//85 65//85 66//85
f 41//86 66//86 67//86
f 41//87 67//87 61//87
f 42//88 64//88 43//88
f 43//89 64//89 45//89
f 45//90 63//90 68//90
f 45//91 68//91 69//91
f 45//92 69//92 70//92
f 45//93 70//93 46//93
f 45//94 64//94 63//94
f 46//95 70//95 71//95
f 46//96 71//96 47//96
f 47//97 71//97 72//97
f 50//98 73//98 74//98
f 51//99 74//99 75//99
f 51//100 75//100 76//100
f 52//101 77//101 78//101
f 52//102 78//102 53//102
f 55//103 79//103 80//103
f 55//104 80//104 81//104
f 55//105 81//105 56//105
f 56//106 81//106 82//106
f 56//107 82//107 83//107
f 56//108 83//108 57//108
f 57//109 83//109 84//109
f 57//110 84//110 85//110
f 57//111 85//111 86//111
f 57//112 86//112 87//112
f 57//113 87//113 58//113
f 58//114 87//114 88//114
f 58//115 88//115 89//115
f 58//116 89//116 90//116
f 58//117 90//117 91//117
f 58//118 91//118 59//118
f 59//119 91//119 65//119
f 59//120 65//120 60//120
f 61//121 67//121 92//121
f 61//122 92//122 93//122
f 61//123 93//123 94//123
f 61//124 94//124 95//124
f 61//125 95//125 62//125
f 62//126 95//126 63//126
f 63//127 95//127 68//127
f 65//128 91//128 90//128
f 65//129 90//129 66//129
f 66//130 90//130 89//130
f 66//131 89//131 88//131
f 66//132 88//132 67//132
f 67//133 88//133 96//133
f 67//134 96//134 92//134
f 68//135 71//135 69//135
f 68//136 95//136 97//136
f 68//137 97//137 130//137
f 68//137 130//137 98//137
f 68//138 98//138 99//138
f 68//139 99//139 71//139
f 69//140 71//140 70//140
f 71//141 99//141 100//141
f 71//142 100//142 72//142
f 73//143 101//143 102//143
f 73//144 102//144 74//144
f 74//145 102//145 132//145
f 74//145 132//145 103//145
f 74//146 103//146 75//146
f 75//147 103//147 104//147
f 75//148 104//148 105//148
f 75//149 105//149 76//149
f 77//150 106//150 107//150
f 77//151 107//151 78//151
f 79//152 108//152 109//152
f 79//153 109//153 80//153
f 79//154 110//154 111//154
f 79//155 111//155 108//155
f 80//156 112//156 81//156
f 80//157 109//157 141//157
f 80//157 141//157 167//157
f 80//157 167//157 172//157
f 80//157 172//157 144//157
f 80//157 144//157 112//157
f 81//158 112//158 113//158
f 81//159 113//159 82//159
f 82//160 113//160 84//160
f 82//161 84//161 83//161
f 84//162 114//162 88//162
f 84//163 88//163 85//163
f 84//164 113//164 114//164
f 85//165 88//165 86//165
f 86//166 88//166 87//166
f 88//167 114//167 96//167
f 92//168 115//168 116//168
f 92//169 116//169 93//169
f 92//170 96//170 117//170
f 92//171 117//171 115//171
f 93//172 116//172 94//172
f 94//173 116//173 118//173
f 94//174 118//174 119//174
f 94//175 119//175 120//175
f 94//176 120//176 95//176
f 95//177 119//177 121//177
f 95//178 121//178 122//178
f 95//179 122//179 123//179
f 95//180 123//180 124//180
f 95//181 124//181 125//181
f 95//182 125//182 97//182
f 95//183 120//183 119//183
f 96//184 126//184 117//184
f 96//185 114//185 127//185
f 96//186 127//186 128//186
f 96//187 128//187 126//187
f 97//188 125//188 129//188
f 97//189 129//189 130//189
f 101//190 131//190 102//190
f 102//191 122//191 132//191
f 102//192 131//192 122//192
f 103//193 132//193 104//193
f 104//194 119//194 133//194
f 104//195 133//195 134//195
f 104//196 134//196 135//196
f 104//197 135//197 136//197
f 104//198 136//198 137//198
f 104//199 137//199 105//199
f 104//200 132//200 119//200
f 106//201 138//201 139//201
f 106//202 139//202 140//202
f 106//203 140//203 107//203
f 108//204 111//204 109//204
f 109//205 142//205 141//205
f 110//206 139//206 138//206
f 110//207 138//207 143//207
f 110//208 143//208 111//208
f 111//209 143//209 138//209
f 112//210 144//210 113//210
f 113//211 145//211 114//211
f 113//212 144//212 146//212
f 113//213 146//213 145//213
f 114//214 145//214 147//214
f 114//215 147//215 148//215
f 114//216 148//216 127//216
f 115//217 117//217 149//217
f 115//218 149//218 150//218
f 115//219 150//219 116//219
f 116//220 150//220 151//220
f 116//221 151//221 152//221
f 116//222 152//222 118//222
f 117//223 126//223 149//223
f 118//224 152//224 119//224
f 119//225 132//225 122//225
f 119//226 122//226 121//226
f 119//227 152//227 133//227
f 122//228 153//228 154//228
f 122//229 154//229 123//229
f 122//230 131//230 155//230
f 122//231 155//231 156//231
f 122//232 156//232 153//232
f 123//233 154//233 124//233
f 124//234 154//234 125//234
f 125//235 154//235 157//235
f 125//236 157//236 158//236
f 125//237 158//237 159//237
f 125//238 159//238 129//238
f 126//239 160//239 149//239
f 126//240 128//240 160//240
f 127//241 148//241 161//241
f 127//242 161//242 128//242
f 128//243 161//243 162//243
f 128//244 162//244 163//244
f 128//245 163//245 160//245
f 133//246 152//246 151//246
f 133//247 151//247 134//247
f 134//248 151//248 164//248
f 134//249 164//249 135//249
f 135//250 164//250 165//250
f 135//251 165//251 136//251
f 136//252 165//252 166//252
f 141//253 142//253 168//253
f 141//254 168//254 167//254
f 142//255 169//255 170//255
f 142//256 170//256 168//256
f 142//257 171//257 169//257
f 144//258 172//258 146//258
f 145//259 146//259 170//259
f 145//260 170//260 174//260
f 145//261 174//261 147//261
f 146//262 172//262 173//262
f 146//263 173//263 170//263
f 147//264 174//264 162//264
f 147//265 162//265 148//265
f 148//266 162//266 161//266
f 149//267 160//267 150//267
f 150//268 160//268 151//268
f 151//269 175//269 165//269
f 151//270 165//270 164//270
f 151//271 160//271 176//271
f 151//272 176//272 175//272
f 153//273 156//273 154//273
f 154//273 156//273 177//273
f 154//274 177//274 158//274
f 154//275 158//275 157//275
f 160//276 163//276 176//276
f 162//277 178//277 163//277
f 162//278 174//278 170//278
f 162//279 170//279 178//279
f 163//280 171//280 179//280
f 163//281 179//281 176//281
f 163//282 178//282 171//282
f 165//283 175//283 166//283
f 166//284 175//284 180//284
f 167//254 168//254 172//254
f 168//285 173//285 172//285
f 168//286 170//286 173//286
f 169//287 178//287 170//287
f 169//288 171//288 178//288
f 171//289 180//289 179//289
f 175//290 176//290 180//290
f 176//291 179//291 180//291
