# Blender 4.1.1
# www.blender.org
o mug_collision.024
v 0.051463 0.023599 0.000650
v 0.051463 0.023599 -0.000649
v 0.048930 0.031636 0.000059
v 0.049092 0.030993 0.000554
v 0.049026 0.030578 0.001942
v 0.048954 0.030399 0.002794
v 0.048879 0.030169 0.003658
v 0.050983 0.023599 0.003258
v 0.049026 0.030578 -0.001941
v 0.049092 0.030993 -0.000552
v 0.048930 0.031636 -0.000056
v 0.050983 0.023599 -0.003259
v 0.048879 0.030166 -0.003657
v 0.048954 0.030399 -0.002793
v 0.046362 0.036961 0.000144
v 0.047664 0.034248 0.000188
v 0.047923 0.033632 0.000632
v 0.048635 0.032144 0.000554
v 0.045061 0.036961 0.010484
v 0.050713 0.023599 0.004469
v 0.050818 0.023599 0.004041
v 0.045005 0.036961 0.010722
v 0.044909 0.036961 0.011132
v 0.045236 0.036961 -0.009143
v 0.048635 0.032144 -0.000552
v 0.047923 0.033616 -0.000607
v 0.046362 0.036961 -0.000141
v 0.050713 0.023599 -0.004468
v 0.045167 0.036961 0.009713
v 0.045128 0.036961 0.009997
v 0.050356 0.023599 0.005327
v 0.044801 0.036961 0.011477
v 0.050576 0.023599 -0.004900
v 0.050356 0.023599 -0.005326
v 0.050179 0.023599 -0.005542
v 0.049454 0.023599 -0.006266
v 0.049077 0.023599 -0.006595
v 0.045739 0.025003 -0.009143
v 0.036518 0.036961 -0.009143
v 0.046314 0.036961 -0.000548
v 0.044801 0.023599 0.011477
v 0.035721 0.036961 0.011477
v 0.045737 0.023599 -0.009143
v 0.045753 0.024488 -0.009143
v 0.036479 0.031534 -0.009143
v 0.035630 0.024488 0.011477
v 0.035657 0.028373 0.011477
v 0.035715 0.036143 0.011477
v 0.035746 0.023599 0.011477
v 0.036423 0.023599 -0.009143
v 0.036430 0.024488 -0.009143
v 0.035625 0.023599 0.011473
vn 0.9537 0.3006 -0.0000
vn 0.9485 0.3052 0.0849
vn 0.9429 0.3041 0.1361
vn 0.9424 0.3027 0.1426
vn 0.9413 0.2963 0.1617
vn 0.9409 0.2908 0.1734
vn -0.0000 -1.0000 -0.0000
vn 0.9429 0.3041 -0.1361
vn 0.9485 0.3052 -0.0846
vn 0.9409 0.2910 -0.1733
vn 0.9413 0.2960 -0.1626
vn 0.9424 0.3027 -0.1426
vn 0.9007 0.4344 -0.0000
vn 0.8996 0.4329 0.0583
vn 0.8989 0.4317 0.0748
vn 0.8997 0.4249 0.0999
vn 0.9083 0.3959 0.1349
vn 0.9188 0.3626 0.1557
vn 0.9229 0.3539 0.1517
vn 0.9256 0.3482 0.1484
vn 0.9226 0.3447 0.1730
vn 0.9299 0.2879 0.2291
vn 0.9372 0.2882 0.1967
vn 0.9279 0.3029 0.2175
vn 0.9279 0.3027 0.2177
vn 0.9292 0.2880 0.2317
vn 0.9254 0.3487 -0.1485
vn 0.9227 0.3543 -0.1518
vn 0.9168 0.3670 -0.1576
vn 0.9099 0.3899 -0.1413
vn 0.8978 0.4304 -0.0928
vn 0.8977 0.4315 -0.0888
vn 0.9350 0.2869 -0.2086
vn 0.9228 0.2892 -0.2545
vn 0.9197 0.3512 -0.1756
vn 0.8984 0.4326 0.0763
vn -0.0000 1.0000 -0.0000
vn -0.0000 1.0000 0.0001
vn 0.8933 0.4354 0.1116
vn 0.8983 0.4233 0.1176
vn 0.9012 0.4156 0.1227
vn 0.9018 0.4142 0.1236
vn 0.9222 0.2559 0.2900
vn 0.9042 0.2029 0.3759
vn 0.8695 0.2048 -0.4495
vn 0.7687 0.1148 -0.6292
vn 0.7048 0.0705 -0.7059
vn 0.6571 0.0454 -0.7525
vn 0.6132 0.0258 -0.7895
vn -0.0000 -0.0000 -1.0000
vn 0.8946 0.4325 -0.1122
vn 0.8962 0.4288 -0.1141
vn 0.9169 0.2745 -0.2896
vn 0.8953 0.4327 -0.1056
vn 0.7421 -0.0000 0.6703
vn -0.0000 -0.0000 1.0000
vn 0.6064 -0.0106 -0.7951
vn 0.6109 0.0165 -0.7915
vn -0.9992 0.0071 -0.0387
vn -0.9992 0.0072 -0.0387
vn -0.9992 0.0074 -0.0386
vn -0.9992 0.0076 -0.0386
vn -0.9992 0.0070 -0.0388
vn -0.0334 -0.0044 0.9994
vn -0.9992 0.0054 -0.0387
s 0
f 1//1 2//1 11//1
f 1//1 11//1 3//1
f 1//2 3//2 4//2
f 1//3 4//3 5//3
f 1//4 5//4 6//4
f 1//5 6//5 7//5
f 1//6 7//6 8//6
f 1//7 8//7 21//7
f 1//7 21//7 20//7
f 1//7 20//7 31//7
f 1//7 31//7 41//7
f 1//7 41//7 49//7
f 1//7 49//7 52//7
f 1//7 52//7 50//7
f 1//7 50//7 43//7
f 1//7 43//7 37//7
f 1//7 37//7 36//7
f 1//7 36//7 35//7
f 1//7 35//7 34//7
f 1//7 34//7 33//7
f 1//7 33//7 28//7
f 1//7 28//7 12//7
f 1//7 12//7 2//7
f 2//8 9//8 10//8
f 2//9 10//9 11//9
f 2//10 12//10 13//10
f 2//11 13//11 14//11
f 2//12 14//12 9//12
f 3//13 11//13 27//13
f 3//13 27//13 15//13
f 3//14 15//14 16//14
f 3//15 16//15 17//15
f 3//16 17//16 18//16
f 3//17 18//17 19//17
f 3//18 19//18 6//18
f 3//19 6//19 5//19
f 3//20 5//20 4//20
f 6//21 19//21 7//21
f 7//22 20//22 21//22
f 7//23 21//23 8//23
f 7//24 19//24 22//24
f 7//25 22//25 23//25
f 7//26 23//26 20//26
f 9//27 11//27 10//27
f 9//28 14//28 11//28
f 11//29 14//29 24//29
f 11//30 24//30 25//30
f 11//31 25//31 26//31
f 11//32 26//32 27//32
f 12//33 28//33 13//33
f 13//34 28//34 24//34
f 13//35 24//35 14//35
f 15//36 17//36 16//36
f 15//37 27//37 40//37
f 15//37 40//37 24//37
f 15//37 24//37 39//37
f 15//37 39//37 42//37
f 15//37 42//37 32//37
f 15//37 32//37 23//37
f 15//37 23//37 22//37
f 15//37 22//37 19//37
f 15//37 19//37 30//37
f 15//38 30//38 29//38
f 15//39 29//39 17//39
f 17//40 29//40 18//40
f 18//41 29//41 30//41
f 18//42 30//42 19//42
f 20//43 23//43 32//43
f 20//44 32//44 31//44
f 24//45 33//45 34//45
f 24//46 34//46 35//46
f 24//47 35//47 36//47
f 24//48 36//48 37//48
f 24//49 37//49 38//49
f 24//50 38//50 44//50
f 24//50 44//50 43//50
f 24//50 43//50 50//50
f 24//50 50//50 51//50
f 24//50 51//50 45//50
f 24//50 45//50 39//50
f 24//51 40//51 26//51
f 24//52 26//52 25//52
f 24//53 28//53 33//53
f 26//54 40//54 27//54
f 31//55 32//55 41//55
f 32//56 42//56 48//56
f 32//56 48//56 47//56
f 32//56 47//56 46//56
f 32//56 46//56 49//56
f 32//56 49//56 41//56
f 37//57 43//57 44//57
f 37//58 44//58 38//58
f 39//59 45//59 46//59
f 39//60 46//60 47//60
f 39//61 47//61 48//61
f 39//62 48//62 42//62
f 45//63 51//63 46//63
f 46//64 52//64 49//64
f 46//63 51//63 50//63
f 46//65 50//65 52//65
