# Blender 4.1.1
# www.blender.org
o mug_collision.026
v -0.009079 0.013103 0.045645
v -0.009079 -0.000033 0.045645
v -0.025856 0.013103 0.038696
v -0.025856 -0.000033 0.038696
v -0.038696 0.013103 0.025856
v -0.038696 -0.000033 0.025856
v -0.045645 0.013103 0.009079
v -0.045645 -0.000033 0.009079
v -0.045645 0.013103 -0.009079
v -0.045645 -0.000033 -0.009079
v -0.038696 0.013103 -0.025856
v -0.038696 -0.000033 -0.025856
v -0.025856 0.013103 -0.038696
v -0.025856 -0.000033 -0.038696
v -0.009079 0.013103 -0.045645
v -0.009079 -0.000033 -0.045645
v 0.009079 0.013103 -0.045645
v 0.009079 -0.000033 -0.045645
v 0.025856 0.013103 -0.038696
v 0.025856 -0.000033 -0.038696
v 0.038696 0.013103 -0.025856
v 0.038696 -0.000033 -0.025856
v 0.045645 0.013103 -0.009079
v 0.045645 -0.000033 -0.009079
v 0.045645 0.013103 0.009079
v 0.045645 -0.000033 0.009079
v 0.038696 0.013103 0.025856
v 0.038696 -0.000033 0.025856
v 0.025856 0.013103 0.038696
v 0.025856 -0.000033 0.038696
v 0.009079 0.013103 0.045645
v 0.009079 -0.000033 0.045645
vn -0.3827 -0.0000 0.9239
vn -0.7071 -0.0000 0.7071
vn -0.9239 -0.0000 0.3827
vn -1.0000 -0.0000 -0.0000
vn -0.0000 -0.0000 -1.0000
vn -0.9239 -0.0000 -0.3827
vn -0.7071 -0.0000 -0.7071
vn -0.3827 -0.0000 -0.9239
vn 0.7071 -0.0000 -0.7071
vn 0.9239 -0.0000 -0.3827
vn 1.0000 -0.0000 -0.0000
vn 0.9239 -0.0000 0.3827
vn 0.7071 -0.0000 0.7071
vn 0.3827 -0.0000 0.9239
vn -0.0000 -0.0000 1.0000
vn -0.0000 -1.0000 -0.0000
vn -0.0000 1.0000 -0.0000
vn 0.3827 -0.0000 -0.9239
vt 0.968750 1.000000
vt 0.906250 1.000000
vt 0.906250 0.500000
vt 0.968750 0.500000
vt 0.843750 1.000000
vt 0.843750 0.500000
vt 0.781250 1.000000
vt 0.781250 0.500000
vt 0.718750 1.000000
vt 0.718750 0.500000
vt 0.531250 1.000000
vt 0.468750 1.000000
vt 0.468750 0.500000
vt 0.531250 0.500000
vt 0.656250 1.000000
vt 0.656250 0.500000
vt 0.593750 1.000000
vt 0.593750 0.500000
vt 0.406250 1.000000
vt 0.343750 1.000000
vt 0.343750 0.500000
vt 0.406250 0.500000
vt 0.281250 1.000000
vt 0.281250 0.500000
vt 0.218750 1.000000
vt 0.218750 0.500000
vt 0.156250 1.000000
vt 0.156250 0.500000
vt 0.093750 1.000000
vt 0.093750 0.500000
vt 0.031250 1.000000
vt 0.031250 0.500000
vt 0.296822 0.485388
vt 0.203178 0.485388
vt 0.116663 0.449553
vt 0.050447 0.383337
vt 0.014612 0.296822
vt 0.014612 0.203178
vt 0.050447 0.116663
vt 0.116663 0.050447
vt 0.203178 0.014612
vt 0.296822 0.014612
vt 0.383337 0.050447
vt 0.449553 0.116663
vt 0.485388 0.203178
vt 0.485388 0.296822
vt 0.449553 0.383337
vt 0.383337 0.449553
vt 0.796822 0.485388
vt 0.883337 0.449553
vt 0.949553 0.383337
vt 0.985388 0.296822
vt 0.985388 0.203178
vt 0.949553 0.116663
vt 0.883337 0.050447
vt 0.796822 0.014612
vt 0.703178 0.014612
vt 0.616663 0.050447
vt 0.550447 0.116663
vt 0.514612 0.203178
vt 0.514612 0.296822
vt 0.550447 0.383337
vt 0.616663 0.449553
vt 0.703178 0.485388
s 0
f 2/1/1 1/4/1 3/3/1 4/2/1
f 4/2/2 3/3/2 5/6/2 6/5/2
f 6/5/3 5/6/3 7/8/3 8/7/3
f 8/7/4 7/8/4 9/10/4 10/9/4
f 16/11/5 15/14/5 17/13/5 18/12/5
f 10/9/6 9/10/6 11/16/6 12/15/6
f 12/15/7 11/16/7 13/18/7 14/17/7
f 14/17/8 13/18/8 15/14/8 16/11/8
f 20/19/9 19/22/9 21/21/9 22/20/9
f 22/20/10 21/21/10 23/24/10 24/23/10
f 24/23/11 23/24/11 25/26/11 26/25/11
f 26/25/12 25/26/12 27/28/12 28/27/12
f 28/27/13 27/28/13 29/30/13 30/29/13
f 30/29/14 29/30/14 31/32/14 32/31/14
f 31/32/15 1/4/15 2/1/15 32/31/15
f 2/33/16 4/48/16 6/47/16 8/46/16 10/45/16 12/44/16 14/43/16 16/42/16 18/41/16 20/40/16 22/39/16 24/38/16 26/37/16 28/36/16 30/35/16 32/34/16
f 1/49/17 31/64/17 29/63/17 27/62/17 25/61/17 23/60/17 21/59/17 19/58/17 17/57/17 15/56/17 13/55/17 11/54/17 9/53/17 7/52/17 5/51/17 3/50/17
f 18/12/18 17/13/18 19/22/18 20/19/18
