# Blender 4.1.1
# www.blender.org
o mug_collision.007
v -0.012618 0.011926 0.035099
v -0.012618 0.011926 0.044276
v -0.012618 0.011935 0.035060
v -0.012601 0.011926 0.035060
v -0.012601 0.011926 0.044280
v -0.012618 0.100898 0.044276
v -0.012618 0.102197 0.035936
v 0.007025 0.011926 0.036469
v 0.007025 0.102197 0.037322
v -0.007965 0.011926 0.045423
v -0.012601 0.100898 0.044280
v -0.012618 0.102197 0.044275
v -0.012618 0.103249 0.036103
v 0.007025 0.102947 0.037404
v 0.007025 0.011926 0.045653
v -0.007420 0.011926 0.045557
v -0.007420 0.100898 0.045557
v -0.008199 0.102197 0.045364
v -0.012601 0.102197 0.044279
v -0.008155 0.102901 0.045353
v -0.012618 0.103157 0.044156
v -0.012618 0.103267 0.036111
v 0.007025 0.103157 0.037447
v 0.006999 0.011926 0.045661
v 0.007025 0.102197 0.045653
v -0.006124 0.011926 0.045863
v -0.006124 0.100898 0.045863
v -0.007420 0.102197 0.045556
v -0.007420 0.103139 0.045443
v -0.006124 0.102197 0.045861
v -0.011353 0.103569 0.044304
v -0.011815 0.104054 0.043994
v -0.012618 0.103807 0.043892
v -0.012618 0.103898 0.036373
v 0.007025 0.103798 0.037710
v 0.006825 0.011926 0.045704
v 0.006825 0.100898 0.045704
v 0.007025 0.102380 0.045637
v 0.006825 0.102197 0.045703
v -0.004830 0.011926 0.046009
v -0.004830 0.100898 0.046009
v -0.006155 0.103560 0.045581
v -0.006605 0.104045 0.045283
v -0.004830 0.102197 0.046006
v -0.004830 0.103487 0.045762
v -0.010951 0.104228 0.044109
v -0.012618 0.104566 0.043245
v -0.012618 0.103908 0.036381
v 0.007025 0.104429 0.038208
v 0.005922 0.011926 0.045866
v 0.005529 0.100898 0.045935
v 0.005529 0.102197 0.045934
v 0.007025 0.103340 0.045461
v 0.004235 0.011926 0.046009
v 0.004235 0.100898 0.046009
v -0.005742 0.104219 0.045394
v 0.004235 0.102197 0.046006
v 0.004235 0.103487 0.045762
v -0.004830 0.104264 0.045425
v -0.010011 0.104356 0.044225
v -0.010011 0.104905 0.043389
v -0.012618 0.105179 0.042094
v -0.008715 0.104475 0.044380
v -0.012618 0.104575 0.037019
v 0.007025 0.104557 0.038342
v 0.005529 0.011926 0.045935
v 0.005529 0.103487 0.045686
v 0.007025 0.103478 0.045407
v 0.006718 0.103478 0.045485
v -0.004830 0.104786 0.044685
v -0.006155 0.104575 0.044784
v 0.005529 0.104209 0.045386
v 0.004235 0.104264 0.045425
v -0.007420 0.104557 0.044533
v -0.008715 0.105078 0.043389
v -0.007420 0.105179 0.043389
v -0.011305 0.105252 0.042094
v -0.012618 0.105371 0.040815
v -0.012618 0.105197 0.038209
v -0.012601 0.105197 0.038209
v 0.007025 0.105078 0.039290
v 0.006212 0.104155 0.045341
v 0.007025 0.103834 0.045259
v 0.004235 0.104786 0.044685
v -0.004830 0.105280 0.043389
v -0.006124 0.105243 0.043389
v 0.005529 0.104713 0.044685
v -0.010011 0.105316 0.042094
v -0.007420 0.105371 0.042094
v -0.006124 0.105380 0.042094
v -0.011305 0.105380 0.040799
v -0.012618 0.105371 0.039504
v -0.008715 0.105362 0.042094
v 0.007025 0.105179 0.039504
v -0.012601 0.105371 0.039504
v -0.011305 0.105362 0.039504
v 0.007025 0.105353 0.040597
v 0.007025 0.103981 0.045157
v 0.007025 0.104511 0.044682
v 0.006718 0.104511 0.044748
v 0.007025 0.105197 0.043389
v 0.006825 0.105207 0.043389
v 0.005529 0.105261 0.043389
v 0.004235 0.105280 0.043389
v 0.007025 0.104649 0.044449
v 0.006825 0.105380 0.042094
v -0.007420 0.105380 0.040799
v 0.007025 0.105371 0.040799
v 0.007025 0.105234 0.043187
v 0.007025 0.105380 0.041892
v 0.007025 0.105371 0.042094
vn -1.0000 -0.0000 -0.0000
vn -0.4574 -0.8652 -0.2052
vn -0.0000 -1.0000 -0.0000
vn -0.2401 -0.0000 0.9707
vn 0.0051 0.0097 -0.9999
vn 0.0704 0.0097 -0.9975
vn 0.0716 0.0094 -0.9974
vn -0.2393 -0.0000 0.9709
vn -0.2397 0.0008 0.9708
vn -0.2406 0.0008 0.9706
vn 0.0677 0.1566 -0.9853
vn 0.0700 0.1091 -0.9916
vn 1.0000 -0.0000 -0.0000
vn -0.2391 -0.0000 0.9710
vn -0.2393 -0.0000 0.9710
vn -0.2393 0.0008 0.9710
vn -0.2407 0.0392 0.9698
vn -0.2509 0.1190 0.9607
vn 0.0650 0.3784 -0.9234
vn 0.0649 0.3786 -0.9233
vn 0.0678 0.1992 -0.9776
vn 0.2681 -0.0000 0.9634
vn -0.2294 -0.0000 0.9733
vn -0.2294 0.0008 0.9733
vn -0.2392 0.0008 0.9710
vn -0.2391 0.0298 0.9705
vn -0.2392 0.0298 0.9705
vn -0.2242 0.3480 0.9103
vn -0.2292 0.0406 0.9725
vn -0.1780 0.1840 0.9667
vn -0.2231 0.3602 0.9058
vn -0.2241 0.3642 0.9040
vn -0.2269 0.3664 0.9024
vn 0.0647 0.3833 -0.9214
vn 0.2442 -0.0000 0.9697
vn 0.2405 -0.0000 0.9707
vn 0.2385 0.0850 0.9674
vn 0.2394 0.0008 0.9709
vn -0.1127 -0.0000 0.9936
vn -0.1128 -0.0000 0.9936
vn -0.1127 0.0008 0.9936
vn -0.2172 0.3569 0.9086
vn -0.2228 0.3614 0.9054
vn -0.1697 0.1952 0.9660
vn -0.1092 0.1850 0.9766
vn -0.1221 0.1976 0.9726
vn -0.1111 0.0025 0.9938
vn -0.2229 0.3653 0.9038
vn -0.2098 0.4802 0.8517
vn -0.2288 0.6716 0.7047
vn -0.2836 0.6222 0.7297
vn 0.0549 0.6335 -0.7718
vn 0.0565 0.6187 -0.7836
vn 0.1763 -0.0000 0.9843
vn 0.1758 0.0008 0.9844
vn 0.1758 -0.0000 0.9844
vn 0.1737 0.1576 0.9721
vn 0.1705 0.1784 0.9691
vn -0.0000 -0.0000 1.0000
vn -0.0000 0.0025 1.0000
vn -0.1929 0.3776 0.9057
vn -0.1096 0.3339 0.9362
vn -0.2080 0.4902 0.8465
vn -0.0000 0.1862 0.9825
vn -0.0000 0.1861 0.9825
vn -0.0000 0.3973 0.9177
vn -0.0000 0.3972 0.9177
vn -0.0512 0.3967 0.9165
vn -0.1796 0.6564 0.7327
vn -0.1805 0.7462 0.6407
vn -0.1391 0.8741 0.4654
vn -0.1417 0.8208 0.5533
vn -0.1375 0.8304 0.5399
vn 0.0488 0.6905 -0.7217
vn 0.0471 0.7221 -0.6902
vn 0.1749 -0.0000 0.9846
vn 0.0571 0.0008 0.9984
vn 0.0571 -0.0000 0.9984
vn 0.0554 0.0025 0.9985
vn 0.1640 0.1868 0.9686
vn 0.0576 0.1890 0.9803
vn 0.0544 0.1859 0.9811
vn 0.2305 0.3540 0.9064
vn 0.1646 0.1953 0.9668
vn -0.0606 0.8162 0.5746
vn -0.0908 0.8315 0.5480
vn -0.1208 0.8190 0.5609
vn -0.1451 0.7709 0.6202
vn 0.0542 0.3830 0.9222
vn 0.0449 0.3968 0.9168
vn -0.0000 0.8177 0.5757
vn -0.1153 0.8474 0.5182
vn -0.1148 0.8481 0.5173
vn -0.1139 0.8495 0.5152
vn -0.1199 0.8943 0.4310
vn -0.0740 0.9520 0.2971
vn -0.0543 0.9744 0.2179
vn -0.0550 0.9874 0.1483
vn -0.1155 0.8457 0.5210
vn -0.0000 0.8862 -0.4633
vn 0.0309 0.8856 -0.4634
vn 0.0333 0.8756 -0.4819
vn 0.0914 0.3819 0.9197
vn 0.1600 0.3192 0.9341
vn 0.2364 0.3721 0.8976
vn 0.2295 0.3644 0.9025
vn -0.0000 0.9344 0.3562
vn -0.0264 0.9341 0.3561
vn -0.0458 0.9268 0.3728
vn -0.0705 0.9066 0.4161
vn -0.0999 0.8634 0.4945
vn 0.1032 0.8081 0.5800
vn 0.0522 0.8113 0.5823
vn 0.0462 0.8168 0.5751
vn -0.0483 0.9785 0.2005
vn -0.0484 0.9785 0.2006
vn -0.0489 0.9886 0.1422
vn -0.0071 0.9996 0.0287
vn -0.0066 0.9996 0.0265
vn -0.0070 1.0000 -0.0000
vn -0.0350 0.9929 0.1141
vn -0.0000 0.9911 -0.1330
vn 0.0289 0.9049 -0.4247
vn 0.0070 0.9911 -0.1330
vn 0.0085 0.9909 -0.1345
vn 0.0113 0.9875 -0.1570
vn 0.2935 0.5460 0.7847
vn 0.2965 0.6369 0.7117
vn 0.1249 0.7994 0.5877
vn 0.1063 0.8093 0.5778
vn 0.0517 0.9143 0.4017
vn 0.0422 0.9224 0.3839
vn 0.0392 0.9248 0.3786
vn 0.0132 0.9343 0.3562
vn -0.0000 0.9970 0.0775
vn -0.0070 0.9964 0.0845
vn -0.0280 0.9888 0.1468
vn -0.0348 0.9865 0.1602
vn 0.1098 0.8827 0.4570
vn 0.1135 0.8379 0.5339
vn 0.1159 0.8565 0.5029
vn -0.0000 1.0000 0.0001
vn -0.0000 1.0000 -0.0000
vn -0.0000 1.0000 -0.0071
vn -0.0000 1.0000 -0.0072
vn 0.0006 1.0000 -0.0096
vn 0.0060 0.9959 -0.0904
vn 0.0070 0.9940 -0.1093
vn 0.0450 0.9829 0.1784
vn 0.0416 0.9836 0.1754
vn 0.0141 0.9943 0.1054
vn 0.0352 0.9914 0.1263
vn 0.0453 0.9912 0.1244
vn 0.0457 0.9979 0.0453
vn 0.0006 1.0000 -0.0084
s 0
f 1//1 2//1 6//1
f 1//1 6//1 12//1
f 1//1 12//1 21//1
f 1//1 21//1 33//1
f 1//1 33//1 47//1
f 1//1 47//1 62//1
f 1//1 62//1 78//1
f 1//1 78//1 92//1
f 1//1 92//1 79//1
f 1//1 79//1 64//1
f 1//1 64//1 48//1
f 1//1 48//1 34//1
f 1//1 34//1 22//1
f 1//1 22//1 13//1
f 1//1 13//1 7//1
f 1//1 7//1 3//1
f 1//2 3//2 4//2
f 1//3 4//3 8//3
f 1//3 8//3 15//3
f 1//3 15//3 24//3
f 1//3 24//3 36//3
f 1//3 36//3 50//3
f 1//3 50//3 66//3
f 1//3 66//3 54//3
f 1//3 54//3 40//3
f 1//3 40//3 26//3
f 1//3 26//3 16//3
f 1//3 16//3 10//3
f 1//3 10//3 5//3
f 1//3 5//3 2//3
f 2//4 5//4 11//4
f 2//4 11//4 6//4
f 3//5 7//5 4//5
f 4//6 7//6 9//6
f 4//7 9//7 8//7
f 5//8 10//8 11//8
f 6//9 11//9 19//9
f 6//10 19//10 12//10
f 7//11 13//11 14//11
f 7//12 14//12 9//12
f 8//13 9//13 14//13
f 8//13 14//13 23//13
f 8//13 23//13 35//13
f 8//13 35//13 49//13
f 8//13 49//13 65//13
f 8//13 65//13 81//13
f 8//13 81//13 94//13
f 8//13 94//13 97//13
f 8//13 97//13 108//13
f 8//13 108//13 110//13
f 8//13 110//13 111//13
f 8//13 111//13 109//13
f 8//13 109//13 101//13
f 8//13 101//13 105//13
f 8//13 105//13 99//13
f 8//13 99//13 98//13
f 8//13 98//13 83//13
f 8//13 83//13 68//13
f 8//13 68//13 53//13
f 8//13 53//13 38//13
f 8//13 38//13 25//13
f 8//13 25//13 15//13
f 10//14 16//14 17//14
f 10//15 17//15 11//15
f 11//16 17//16 18//16
f 11//16 18//16 19//16
f 12//17 19//17 20//17
f 12//18 20//18 21//18
f 13//19 22//19 35//19
f 13//20 35//20 23//20
f 13//21 23//21 14//21
f 15//22 25//22 24//22
f 16//23 26//23 27//23
f 16//23 27//23 17//23
f 17//24 27//24 30//24
f 17//24 30//24 28//24
f 17//25 28//25 18//25
f 18//26 28//26 20//26
f 18//27 20//27 19//27
f 20//28 29//28 21//28
f 20//29 28//29 30//29
f 20//30 30//30 29//30
f 21//31 29//31 31//31
f 21//32 31//32 32//32
f 21//33 32//33 33//33
f 22//34 34//34 35//34
f 24//35 25//35 37//35
f 24//36 37//36 36//36
f 25//37 38//37 39//37
f 25//38 39//38 37//38
f 26//39 40//39 41//39
f 26//40 41//40 27//40
f 27//41 41//41 30//41
f 29//42 42//42 43//42
f 29//43 43//43 31//43
f 29//44 30//44 42//44
f 30//45 44//45 45//45
f 30//46 45//46 42//46
f 30//47 41//47 44//47
f 31//48 43//48 32//48
f 32//49 43//49 46//49
f 32//50 46//50 47//50
f 32//51 47//51 33//51
f 34//52 48//52 49//52
f 34//53 49//53 35//53
f 36//54 37//54 50//54
f 37//55 39//55 52//55
f 37//55 52//55 51//55
f 37//56 51//56 50//56
f 38//57 52//57 39//57
f 38//58 53//58 52//58
f 40//59 54//59 55//59
f 40//59 55//59 41//59
f 41//60 55//60 57//60
f 41//60 57//60 44//60
f 42//61 56//61 43//61
f 42//62 45//62 56//62
f 43//63 56//63 46//63
f 44//64 57//64 58//64
f 44//65 58//65 45//65
f 45//66 58//66 73//66
f 45//67 73//67 59//67
f 45//68 59//68 56//68
f 46//69 56//69 60//69
f 46//70 60//70 47//70
f 47//71 61//71 62//71
f 47//72 60//72 63//72
f 47//73 63//73 61//73
f 48//74 64//74 49//74
f 49//75 64//75 65//75
f 50//76 51//76 66//76
f 51//77 52//77 55//77
f 51//78 55//78 54//78
f 51//78 54//78 66//78
f 52//79 57//79 55//79
f 52//80 53//80 67//80
f 52//81 67//81 58//81
f 52//82 58//82 57//82
f 53//83 68//83 69//83
f 53//84 69//84 67//84
f 56//85 59//85 70//85
f 56//86 70//86 71//86
f 56//87 71//87 63//87
f 56//88 63//88 60//88
f 58//89 67//89 72//89
f 58//90 72//90 73//90
f 59//91 73//91 84//91
f 59//91 84//91 70//91
f 61//92 63//92 74//92
f 61//93 74//93 71//93
f 61//94 71//94 75//94
f 61//95 75//95 62//95
f 62//96 75//96 76//96
f 62//97 76//97 77//97
f 62//98 77//98 78//98
f 63//99 71//99 74//99
f 64//100 79//100 80//100
f 64//101 80//101 81//101
f 64//102 81//102 65//102
f 67//103 82//103 72//103
f 67//104 69//104 82//104
f 68//105 83//105 82//105
f 68//106 82//106 69//106
f 70//107 84//107 104//107
f 70//107 104//107 85//107
f 70//108 85//108 86//108
f 70//109 86//109 76//109
f 70//110 76//110 75//110
f 70//111 75//111 71//111
f 72//112 82//112 87//112
f 72//113 87//113 73//113
f 73//114 87//114 84//114
f 76//115 86//115 88//115
f 76//116 88//116 77//116
f 77//117 88//117 78//117
f 78//118 89//118 90//118
f 78//119 90//119 91//119
f 78//120 91//120 92//120
f 78//121 88//121 93//121
f 78//118 93//118 89//118
f 79//122 92//122 95//122
f 79//122 95//122 80//122
f 80//123 94//123 81//123
f 80//124 95//124 96//124
f 80//125 96//125 97//125
f 80//126 97//126 94//126
f 82//127 83//127 98//127
f 82//128 98//128 99//128
f 82//129 99//129 100//129
f 82//130 100//130 87//130
f 84//131 87//131 101//131
f 84//132 101//132 102//132
f 84//133 102//133 103//133
f 84//134 103//134 104//134
f 85//135 104//135 106//135
f 85//135 106//135 90//135
f 85//136 90//136 89//136
f 85//136 89//136 93//136
f 85//137 93//137 86//137
f 86//138 93//138 88//138
f 87//139 105//139 101//139
f 87//140 100//140 99//140
f 87//141 99//141 105//141
f 90//142 106//142 110//142
f 90//143 110//143 107//143
f 90//143 107//143 91//143
f 91//144 107//144 95//144
f 91//145 95//145 92//145
f 95//146 107//146 108//146
f 95//147 108//147 97//147
f 95//148 97//148 96//148
f 101//149 109//149 102//149
f 102//150 109//150 103//150
f 103//151 106//151 104//151
f 103//152 109//152 106//152
f 106//153 109//153 111//153
f 106//154 111//154 110//154
f 107//155 110//155 108//155
