# Blender 4.1.1
# www.blender.org
o mug_collision.006
v -0.032736 0.012401 -0.018157
v -0.032736 0.012401 -0.032464
v -0.022652 0.012401 -0.029571
v -0.022448 0.100903 -0.030731
v -0.032736 0.100684 -0.019300
v -0.031377 0.012401 -0.033669
v -0.032736 0.102195 -0.032464
v -0.022448 0.012401 -0.029883
v -0.022448 0.098309 -0.030705
v -0.022448 0.102195 -0.030752
v -0.032736 0.101995 -0.019317
v -0.029784 0.012401 -0.035082
v -0.031377 0.100903 -0.033669
v -0.032736 0.102732 -0.032432
v -0.027972 0.102195 -0.036686
v -0.027242 0.100903 -0.037335
v -0.022448 0.012401 -0.040178
v -0.022448 0.102741 -0.030811
v -0.032736 0.102759 -0.019332
v -0.027242 0.012401 -0.037335
v -0.032736 0.102941 -0.032415
v -0.032728 0.102941 -0.032425
v -0.027242 0.102195 -0.037332
v -0.026594 0.100903 -0.037869
v -0.027028 0.012401 -0.037511
v -0.022448 0.102195 -0.040178
v -0.023058 0.012401 -0.039859
v -0.022448 0.103078 -0.030886
v -0.032675 0.102850 -0.019425
v -0.032736 0.102905 -0.019371
v -0.032736 0.103424 -0.032175
v -0.032483 0.103806 -0.032208
v -0.027056 0.103487 -0.037169
v -0.026409 0.103487 -0.037723
v -0.026594 0.102195 -0.037867
v -0.025587 0.102195 -0.038516
v -0.026594 0.012401 -0.037869
v -0.023058 0.100903 -0.039859
v -0.023057 0.102195 -0.039859
v -0.024928 0.102868 -0.038865
v -0.022448 0.102996 -0.040116
v -0.024259 0.012401 -0.039230
v -0.022448 0.103396 -0.030998
v -0.022448 0.103815 -0.031261
v -0.032736 0.103606 -0.019845
v -0.032736 0.103678 -0.032044
v -0.032736 0.104088 -0.031759
v -0.030269 0.104288 -0.033835
v -0.027568 0.104206 -0.036328
v -0.026217 0.104152 -0.037572
v -0.025438 0.103378 -0.038363
v -0.024939 0.102195 -0.038872
v -0.025372 0.012401 -0.038635
v -0.025587 0.012401 -0.038516
v -0.024259 0.100903 -0.039230
v -0.024577 0.103733 -0.038682
v -0.022448 0.103597 -0.039857
v -0.024939 0.012401 -0.038872
v -0.022448 0.103860 -0.031294
v -0.032736 0.103961 -0.020121
v -0.031620 0.104315 -0.032589
v -0.032736 0.104407 -0.031449
v -0.030714 0.104534 -0.033023
v -0.029386 0.104479 -0.034288
v -0.028056 0.104425 -0.035554
v -0.026729 0.104352 -0.036819
v -0.025555 0.104834 -0.036912
v -0.025555 0.104325 -0.037761
v -0.023713 0.104206 -0.038908
v -0.022448 0.104052 -0.039596
v -0.022448 0.104479 -0.031878
v -0.032577 0.104243 -0.020580
v -0.032736 0.104306 -0.020481
v -0.032736 0.104598 -0.031095
v -0.032043 0.104579 -0.031757
v -0.026850 0.104934 -0.035616
v -0.024259 0.105162 -0.036912
v -0.022964 0.104916 -0.038208
v -0.024191 0.104516 -0.038234
v -0.022964 0.104370 -0.039105
v -0.022448 0.104434 -0.039273
v -0.022448 0.104689 -0.032212
v -0.032736 0.104470 -0.020839
v -0.032736 0.104862 -0.030463
v -0.029439 0.105044 -0.033027
v -0.028144 0.104989 -0.034323
v -0.025555 0.105262 -0.035616
v -0.022448 0.105025 -0.038208
v -0.022964 0.105298 -0.036912
v -0.022448 0.105253 -0.037429
v -0.022448 0.104771 -0.038721
v -0.022448 0.105035 -0.033027
v -0.032736 0.104852 -0.021874
v -0.032736 0.105135 -0.029730
v -0.032029 0.105135 -0.030435
v -0.026850 0.105289 -0.034323
v -0.024259 0.105362 -0.035616
v -0.022448 0.105326 -0.036912
v -0.022448 0.105207 -0.033542
v -0.032736 0.105207 -0.023256
v -0.032736 0.105226 -0.029144
v -0.032029 0.105335 -0.029144
v -0.029439 0.105317 -0.031731
v -0.025555 0.105371 -0.034323
v -0.022964 0.105380 -0.035616
v -0.022448 0.105371 -0.036134
v -0.022448 0.105326 -0.034323
v -0.032736 0.105335 -0.024552
v -0.032736 0.105326 -0.028437
v -0.032029 0.105380 -0.027848
v -0.030734 0.105380 -0.029144
v -0.028144 0.105380 -0.031731
v -0.022448 0.105380 -0.035616
v -0.022448 0.105362 -0.034838
v -0.022964 0.105362 -0.034323
v -0.032736 0.105371 -0.025847
v -0.032736 0.105371 -0.027141
v -0.026850 0.105380 -0.031731
vn -0.0000 -1.0000 -0.0000
vn 0.7494 0.0069 0.6621
vn 0.7432 0.0087 0.6691
vn -1.0000 -0.0000 -0.0000
vn -0.6633 -0.0000 -0.7483
vn 0.8369 0.0052 0.5473
vn 0.8045 0.0059 0.5939
vn 1.0000 -0.0000 -0.0000
vn 0.7433 0.0112 0.6689
vn 0.7432 0.0088 0.6691
vn -0.6633 -0.0000 -0.7484
vn -0.6625 0.0450 -0.7477
vn -0.6631 0.0012 -0.7485
vn -0.6633 0.0001 -0.7484
vn 0.7428 0.0710 0.6657
vn 0.7432 0.0132 0.6689
vn -0.8001 0.0493 -0.5979
vn -0.6621 0.0486 -0.7478
vn -0.6624 0.0462 -0.7477
vn -0.6631 0.0013 -0.7486
vn -0.6367 0.0013 -0.7711
vn -0.6367 -0.0000 -0.7711
vn -0.6378 -0.0000 -0.7702
vn -0.4633 -0.0000 -0.8862
vn 0.7366 0.1479 0.6600
vn 0.7329 0.1750 0.6575
vn 0.7327 0.1753 0.6576
vn -0.7676 0.2847 -0.5742
vn -0.6205 0.3527 -0.7004
vn -0.6200 0.3527 -0.7008
vn -0.6408 0.1863 -0.7448
vn -0.6388 0.1862 -0.7465
vn -0.6269 0.1748 -0.7593
vn -0.5416 0.0014 -0.8406
vn -0.5404 -0.0000 -0.8414
vn -0.6362 -0.0000 -0.7716
vn -0.4639 0.0004 -0.8859
vn -0.4639 0.0183 -0.8857
vn -0.4519 0.0694 -0.8894
vn -0.4641 -0.0000 -0.8858
vn 0.7242 0.2289 0.6505
vn 0.7328 0.1756 0.6574
vn 0.6816 0.3893 0.6196
vn 0.6720 0.4151 0.6133
vn -0.6266 0.3574 -0.6926
vn -0.6325 0.4420 -0.6360
vn -0.5814 0.4988 -0.6428
vn -0.5833 0.4893 -0.6483
vn -0.5944 0.4518 -0.6653
vn -0.6189 0.3568 -0.6998
vn -0.6117 0.3386 -0.7149
vn -0.4948 0.3255 -0.8057
vn -0.5019 0.2984 -0.8118
vn -0.5563 0.1707 -0.8132
vn -0.5393 0.0934 -0.8369
vn -0.4814 0.0163 -0.8763
vn -0.4815 -0.0000 -0.8765
vn -0.4838 -0.0000 -0.8752
vn -0.4641 0.0004 -0.8858
vn -0.4645 0.0162 -0.8854
vn -0.4645 0.0009 -0.8855
vn -0.4503 0.3566 -0.8186
vn -0.4356 0.3526 -0.8282
vn -0.4338 0.3564 -0.8275
vn -0.4658 -0.0000 -0.8849
vn -0.4659 -0.0000 -0.8849
vn 0.6660 0.4323 0.6079
vn 0.6534 0.4646 0.5976
vn -0.5774 0.5107 -0.6370
vn -0.5591 0.5787 -0.5937
vn -0.4258 0.7682 -0.4780
vn -0.4091 0.7869 -0.4620
vn -0.4070 0.7884 -0.4613
vn -0.4072 0.7880 -0.4618
vn -0.4224 0.7670 -0.4830
vn -0.4155 0.7725 -0.4802
vn -0.4191 0.7652 -0.4887
vn -0.3676 0.8057 -0.4644
vn -0.3479 0.8039 -0.4824
vn -0.3606 0.6706 -0.6483
vn -0.4358 0.4131 -0.7996
vn -0.4534 0.3717 -0.8101
vn -0.4803 -0.0000 -0.8771
vn -0.4263 0.3874 -0.8174
vn -0.3800 0.4600 -0.8025
vn 0.6229 0.5370 0.5688
vn 0.6088 0.5643 0.5576
vn 0.5845 0.5852 0.5621
vn -0.3954 0.8080 -0.4368
vn -0.3981 0.8012 -0.4467
vn -0.3620 0.8371 -0.4101
vn -0.3706 0.8260 -0.4246
vn -0.3708 0.8257 -0.4252
vn -0.3697 0.8221 -0.4330
vn -0.3711 0.8196 -0.4364
vn -0.2336 0.9233 -0.3048
vn -0.2254 0.8909 -0.3942
vn -0.2641 0.8395 -0.4748
vn -0.2859 0.8217 -0.4930
vn -0.3004 0.7772 -0.5530
vn -0.3169 0.7459 -0.5859
vn -0.3232 0.6022 -0.7300
vn -0.3118 0.6137 -0.7254
vn 0.4977 0.7351 0.4604
vn 0.5789 0.6179 0.5321
vn 0.4033 0.8320 0.3809
vn -0.3309 0.8707 -0.3638
vn -0.3344 0.8664 -0.3708
vn -0.3350 0.8658 -0.3717
vn -0.3444 0.8564 -0.3846
vn -0.2358 0.9320 -0.2752
vn -0.1925 0.9108 -0.3652
vn -0.1031 0.9785 -0.1787
vn -0.1029 0.9766 -0.1887
vn -0.1273 0.9520 -0.2783
vn -0.1860 0.8800 -0.4370
vn -0.2599 0.8281 -0.4967
vn -0.2610 0.8241 -0.5028
vn -0.2676 0.8154 -0.5133
vn 0.3811 0.8511 0.3612
vn 0.3379 0.8829 0.3261
vn -0.3287 0.8850 -0.3296
vn -0.3245 0.8767 -0.3551
vn -0.2243 0.9400 -0.2572
vn -0.2356 0.9322 -0.2747
vn -0.0767 0.9922 -0.0978
vn -0.0765 0.9892 -0.1251
vn -0.1773 0.9641 -0.1979
vn -0.0525 0.9935 -0.1013
vn -0.0523 0.9889 -0.1392
vn 0.3117 0.9008 0.3023
vn 0.2413 0.9399 0.2414
vn -0.1512 0.9768 -0.1516
vn -0.1509 0.9769 -0.1515
vn -0.1446 0.9778 -0.1516
vn -0.1475 0.9764 -0.1576
vn -0.0663 0.9949 -0.0767
vn -0.0140 0.9997 -0.0211
vn -0.0140 0.9994 -0.0316
vn -0.0217 0.9981 -0.0584
vn -0.0562 0.9964 -0.0633
vn -0.0563 0.9964 -0.0634
vn 0.1482 0.9778 0.1482
vn 0.0934 0.9908 0.0975
vn -0.1512 0.9787 -0.1386
vn -0.0479 0.9982 -0.0351
vn -0.0351 0.9988 -0.0351
vn -0.0419 0.9981 -0.0454
vn -0.0105 0.9998 -0.0140
vn -0.0000 1.0000 -0.0000
vn -0.0000 0.9998 -0.0176
vn 0.0701 0.9951 0.0703
vn 0.0701 0.9949 0.0729
vn 0.0253 0.9993 0.0281
vn -0.0129 0.9999 -0.0000
vn 0.0046 1.0000 0.0062
vn 0.0117 0.9998 0.0132
vn 0.0201 0.9996 0.0221
vn 0.0233 0.9995 0.0234
s 0
f 1//1 2//1 6//1
f 1//1 6//1 12//1
f 1//1 12//1 20//1
f 1//1 20//1 25//1
f 1//1 25//1 37//1
f 1//1 37//1 54//1
f 1//1 54//1 53//1
f 1//1 53//1 58//1
f 1//1 58//1 42//1
f 1//1 42//1 27//1
f 1//1 27//1 17//1
f 1//1 17//1 8//1
f 1//1 8//1 3//1
f 1//2 3//2 4//2
f 1//3 4//3 5//3
f 1//4 5//4 11//4
f 1//4 11//4 19//4
f 1//4 19//4 30//4
f 1//4 30//4 45//4
f 1//4 45//4 60//4
f 1//4 60//4 73//4
f 1//4 73//4 83//4
f 1//4 83//4 93//4
f 1//4 93//4 100//4
f 1//4 100//4 108//4
f 1//4 108//4 116//4
f 1//4 116//4 117//4
f 1//4 117//4 109//4
f 1//4 109//4 101//4
f 1//4 101//4 94//4
f 1//4 94//4 84//4
f 1//4 84//4 74//4
f 1//4 74//4 62//4
f 1//4 62//4 47//4
f 1//4 47//4 46//4
f 1//4 46//4 31//4
f 1//4 31//4 21//4
f 1//4 21//4 14//4
f 1//4 14//4 7//4
f 1//4 7//4 2//4
f 2//5 7//5 13//5
f 2//5 13//5 6//5
f 3//6 8//6 9//6
f 3//7 9//7 4//7
f 4//8 9//8 8//8
f 4//8 8//8 17//8
f 4//8 17//8 26//8
f 4//8 26//8 41//8
f 4//8 41//8 57//8
f 4//8 57//8 70//8
f 4//8 70//8 81//8
f 4//8 81//8 91//8
f 4//8 91//8 88//8
f 4//8 88//8 90//8
f 4//8 90//8 98//8
f 4//8 98//8 106//8
f 4//8 106//8 113//8
f 4//8 113//8 114//8
f 4//8 114//8 107//8
f 4//8 107//8 99//8
f 4//8 99//8 92//8
f 4//8 92//8 82//8
f 4//8 82//8 71//8
f 4//8 71//8 59//8
f 4//8 59//8 44//8
f 4//8 44//8 43//8
f 4//8 43//8 28//8
f 4//8 28//8 18//8
f 4//8 18//8 10//8
f 4//9 10//9 11//9
f 4//10 11//10 5//10
f 6//11 13//11 12//11
f 7//12 14//12 15//12
f 7//13 15//13 16//13
f 7//14 16//14 13//14
f 10//15 18//15 19//15
f 10//16 19//16 11//16
f 12//11 13//11 16//11
f 12//11 16//11 20//11
f 14//17 21//17 22//17
f 14//18 22//18 23//18
f 14//19 23//19 15//19
f 15//20 23//20 16//20
f 16//21 23//21 35//21
f 16//21 35//21 24//21
f 16//22 24//22 25//22
f 16//23 25//23 20//23
f 17//24 27//24 38//24
f 17//24 38//24 26//24
f 18//25 28//25 19//25
f 19//26 28//26 29//26
f 19//27 29//27 30//27
f 21//28 31//28 22//28
f 22//29 31//29 32//29
f 22//30 32//30 33//30
f 22//31 33//31 23//31
f 23//32 33//32 34//32
f 23//33 34//33 35//33
f 24//34 35//34 36//34
f 24//35 36//35 54//35
f 24//35 54//35 37//35
f 24//36 37//36 25//36
f 26//37 38//37 39//37
f 26//38 39//38 40//38
f 26//39 40//39 41//39
f 27//40 42//40 55//40
f 27//40 55//40 38//40
f 28//41 43//41 30//41
f 28//42 30//42 29//42
f 30//43 43//43 44//43
f 30//44 44//44 45//44
f 31//45 46//45 32//45
f 32//46 46//46 47//46
f 32//47 47//47 48//47
f 32//48 48//48 49//48
f 32//49 49//49 50//49
f 32//50 50//50 33//50
f 33//51 50//51 34//51
f 34//52 50//52 51//52
f 34//53 51//53 40//53
f 34//54 40//54 35//54
f 35//55 40//55 36//55
f 36//56 40//56 52//56
f 36//57 52//57 53//57
f 36//58 53//58 54//58
f 38//59 55//59 39//59
f 39//60 52//60 40//60
f 39//61 55//61 52//61
f 40//62 51//62 56//62
f 40//63 56//63 41//63
f 41//64 56//64 57//64
f 42//65 58//65 52//65
f 42//66 52//66 55//66
f 44//67 59//67 45//67
f 45//68 59//68 60//68
f 47//69 61//69 48//69
f 47//70 62//70 61//70
f 48//71 61//71 62//71
f 48//72 62//72 63//72
f 48//73 63//73 64//73
f 48//74 64//74 65//74
f 48//75 65//75 49//75
f 49//76 65//76 66//76
f 49//77 66//77 50//77
f 50//78 66//78 67//78
f 50//79 67//79 68//79
f 50//80 68//80 69//80
f 50//81 69//81 56//81
f 50//82 56//82 51//82
f 52//83 58//83 53//83
f 56//84 69//84 57//84
f 57//85 69//85 70//85
f 59//86 71//86 60//86
f 60//87 71//87 72//87
f 60//88 72//88 73//88
f 62//89 74//89 75//89
f 62//90 75//90 63//90
f 63//91 75//91 76//91
f 63//92 76//92 64//92
f 64//93 76//93 65//93
f 65//94 76//94 67//94
f 65//95 67//95 66//95
f 67//96 76//96 87//96
f 67//96 87//96 77//96
f 67//97 77//97 78//97
f 67//98 78//98 79//98
f 67//99 79//99 68//99
f 68//100 79//100 80//100
f 68//101 80//101 69//101
f 69//102 80//102 70//102
f 70//103 80//103 81//103
f 71//104 82//104 73//104
f 71//105 73//105 72//105
f 73//106 82//106 83//106
f 74//107 84//107 85//107
f 74//108 85//108 86//108
f 74//109 86//109 76//109
f 74//110 76//110 75//110
f 76//111 86//111 87//111
f 77//112 88//112 78//112
f 77//113 87//113 89//113
f 77//114 89//114 90//114
f 77//115 90//115 88//115
f 78//116 88//116 91//116
f 78//117 91//117 79//117
f 79//118 91//118 81//118
f 79//119 81//119 80//119
f 82//120 92//120 83//120
f 83//121 92//121 93//121
f 84//122 94//122 95//122
f 84//123 95//123 85//123
f 85//124 95//124 87//124
f 85//125 87//125 86//125
f 87//126 96//126 97//126
f 87//127 97//127 89//127
f 87//128 95//128 96//128
f 89//129 97//129 98//129
f 89//130 98//130 90//130
f 92//131 99//131 93//131
f 93//132 99//132 100//132
f 94//133 101//133 95//133
f 95//134 101//134 102//134
f 95//135 102//135 103//135
f 95//136 103//136 96//136
f 96//137 103//137 97//137
f 97//138 104//138 105//138
f 97//139 105//139 106//139
f 97//140 106//140 98//140
f 97//141 103//141 102//141
f 97//142 102//142 104//142
f 99//143 107//143 100//143
f 100//144 107//144 108//144
f 101//145 109//145 102//145
f 102//146 109//146 117//146
f 102//146 117//146 110//146
f 102//147 110//147 111//147
f 102//147 111//147 112//147
f 102//148 112//148 104//148
f 104//149 112//149 105//149
f 105//150 112//150 111//150
f 105//150 111//150 110//150
f 105//150 110//150 118//150
f 105//150 118//150 113//150
f 105//151 113//151 106//151
f 107//152 114//152 115//152
f 107//153 115//153 108//153
f 108//154 115//154 116//154
f 110//155 117//155 116//155
f 110//156 116//156 118//156
f 113//157 118//157 116//157
f 113//158 116//158 115//158
f 113//159 115//159 114//159
